<?xml version="1.0" encoding="UTF-8" standalone="no"?>
<!DOCTYPE svg PUBLIC "-//W3C//DTD SVG 1.1//EN"
 "http://www.w3.org/Graphics/SVG/1.1/DTD/svg11.dtd">
<!-- Generated by graphviz version 14.1.5 (20260411.2331)
 -->
<!-- Title: Tree Pages: 1 -->
<svg width="518pt" height="365pt"
 viewBox="0.00 0.00 518.00 365.00" xmlns="http://www.w3.org/2000/svg" xmlns:xlink="http://www.w3.org/1999/xlink">
<g id="graph0" class="graph" transform="scale(1 1) rotate(0) translate(4 361)">
<title>Tree</title>
<polygon fill="white" stroke="none" points="-4,4 -4,-361 514.38,-361 514.38,4 -4,4"/>
<!-- 0 -->
<g id="node1" class="node">
<title>0</title>
<path fill="#3e84e6" stroke="black" d="M328,-357C328,-357 228,-357 228,-357 222,-357 216,-351 216,-345 216,-345 216,-298 216,-298 216,-292 222,-286 228,-286 228,-286 328,-286 328,-286 334,-286 340,-292 340,-298 340,-298 340,-345 340,-345 340,-351 334,-357 328,-357"/>
<text xml:space="preserve" text-anchor="start" x="244.25" y="-340.25" font-family="Helvetica,sans-Serif" font-size="14.00">Δsal ≤ 16.0</text>
<text xml:space="preserve" text-anchor="start" x="229.62" y="-324.5" font-family="Helvetica,sans-Serif" font-size="14.00">samples = 2095</text>
<text xml:space="preserve" text-anchor="start" x="224" y="-308.75" font-family="Helvetica,sans-Serif" font-size="14.00">value = [2043, 52]</text>
<text xml:space="preserve" text-anchor="start" x="240.5" y="-293" font-family="Helvetica,sans-Serif" font-size="14.00">class = Alive</text>
</g>
<!-- 1 -->
<g id="node2" class="node">
<title>1</title>
<path fill="#3c83e5" stroke="black" d="M260,-250C260,-250 160,-250 160,-250 154,-250 148,-244 148,-238 148,-238 148,-191 148,-191 148,-185 154,-179 160,-179 160,-179 260,-179 260,-179 266,-179 272,-185 272,-191 272,-191 272,-238 272,-238 272,-244 266,-250 260,-250"/>
<text xml:space="preserve" text-anchor="start" x="159" y="-233.25" font-family="Helvetica,sans-Serif" font-size="14.00">min_temp ≤ 31.5</text>
<text xml:space="preserve" text-anchor="start" x="161.62" y="-217.5" font-family="Helvetica,sans-Serif" font-size="14.00">samples = 2069</text>
<text xml:space="preserve" text-anchor="start" x="156" y="-201.75" font-family="Helvetica,sans-Serif" font-size="14.00">value = [2040, 29]</text>
<text xml:space="preserve" text-anchor="start" x="172.5" y="-186" font-family="Helvetica,sans-Serif" font-size="14.00">class = Alive</text>
</g>
<!-- 0&#45;&gt;1 -->
<g id="edge1" class="edge">
<title>0&#45;&gt;1</title>
<path fill="none" stroke="black" d="M255.36,-285.54C250.02,-277.3 244.27,-268.42 238.71,-259.83"/>
<polygon fill="black" stroke="black" points="241.74,-258.07 233.37,-251.58 235.86,-261.88 241.74,-258.07"/>
<text xml:space="preserve" text-anchor="middle" x="227.32" y="-269.33" font-family="Helvetica,sans-Serif" font-size="14.00">True</text>
</g>
<!-- 8 -->
<g id="node9" class="node">
<title>8</title>
<path fill="#e8aa53" stroke="black" d="M385.75,-250C385.75,-250 308.25,-250 308.25,-250 302.25,-250 296.25,-244 296.25,-238 296.25,-238 296.25,-191 296.25,-191 296.25,-185 302.25,-179 308.25,-179 308.25,-179 385.75,-179 385.75,-179 391.75,-179 397.75,-185 397.75,-191 397.75,-191 397.75,-238 397.75,-238 397.75,-244 391.75,-250 385.75,-250"/>
<text xml:space="preserve" text-anchor="start" x="310.25" y="-233.25" font-family="Helvetica,sans-Serif" font-size="14.00">Δtemp ≤ 7.0</text>
<text xml:space="preserve" text-anchor="start" x="306.12" y="-217.5" font-family="Helvetica,sans-Serif" font-size="14.00">samples = 26</text>
<text xml:space="preserve" text-anchor="start" x="304.25" y="-201.75" font-family="Helvetica,sans-Serif" font-size="14.00">value = [3, 23]</text>
<text xml:space="preserve" text-anchor="start" x="307.62" y="-186" font-family="Helvetica,sans-Serif" font-size="14.00">class = Dead</text>
</g>
<!-- 0&#45;&gt;8 -->
<g id="edge8" class="edge">
<title>0&#45;&gt;8</title>
<path fill="none" stroke="black" d="M300.98,-285.54C306.39,-277.3 312.23,-268.42 317.87,-259.83"/>
<polygon fill="black" stroke="black" points="320.73,-261.85 323.29,-251.58 314.88,-258.01 320.73,-261.85"/>
<text xml:space="preserve" text-anchor="middle" x="329.19" y="-269.37" font-family="Helvetica,sans-Serif" font-size="14.00">False</text>
</g>
<!-- 2 -->
<g id="node3" class="node">
<title>2</title>
<path fill="#3b83e5" stroke="black" d="M112,-143C112,-143 12,-143 12,-143 6,-143 0,-137 0,-131 0,-131 0,-84 0,-84 0,-78 6,-72 12,-72 12,-72 112,-72 112,-72 118,-72 124,-78 124,-84 124,-84 124,-131 124,-131 124,-137 118,-143 112,-143"/>
<text xml:space="preserve" text-anchor="start" x="25.25" y="-126.25" font-family="Helvetica,sans-Serif" font-size="14.00">Δtemp ≤ 4.5</text>
<text xml:space="preserve" text-anchor="start" x="13.62" y="-110.5" font-family="Helvetica,sans-Serif" font-size="14.00">samples = 2039</text>
<text xml:space="preserve" text-anchor="start" x="8" y="-94.75" font-family="Helvetica,sans-Serif" font-size="14.00">value = [2014, 25]</text>
<text xml:space="preserve" text-anchor="start" x="24.5" y="-79" font-family="Helvetica,sans-Serif" font-size="14.00">class = Alive</text>
</g>
<!-- 1&#45;&gt;2 -->
<g id="edge2" class="edge">
<title>1&#45;&gt;2</title>
<path fill="none" stroke="black" d="M160.72,-178.54C147.81,-169.38 133.76,-159.41 120.42,-149.95"/>
<polygon fill="black" stroke="black" points="122.73,-147.3 112.55,-144.37 118.68,-153.01 122.73,-147.3"/>
</g>
<!-- 5 -->
<g id="node6" class="node">
<title>5</title>
<path fill="#5794e9" stroke="black" d="M266.38,-143C266.38,-143 153.62,-143 153.62,-143 147.62,-143 141.62,-137 141.62,-131 141.62,-131 141.62,-84 141.62,-84 141.62,-78 147.62,-72 153.62,-72 153.62,-72 266.38,-72 266.38,-72 272.38,-72 278.38,-78 278.38,-84 278.38,-84 278.38,-131 278.38,-131 278.38,-137 272.38,-143 266.38,-143"/>
<text xml:space="preserve" text-anchor="start" x="149.62" y="-126.25" font-family="Helvetica,sans-Serif" font-size="14.00">days_passed ≤ 23.5</text>
<text xml:space="preserve" text-anchor="start" x="169.12" y="-110.5" font-family="Helvetica,sans-Serif" font-size="14.00">samples = 30</text>
<text xml:space="preserve" text-anchor="start" x="167.25" y="-94.75" font-family="Helvetica,sans-Serif" font-size="14.00">value = [26, 4]</text>
<text xml:space="preserve" text-anchor="start" x="172.5" y="-79" font-family="Helvetica,sans-Serif" font-size="14.00">class = Alive</text>
</g>
<!-- 1&#45;&gt;5 -->
<g id="edge5" class="edge">
<title>1&#45;&gt;5</title>
<path fill="none" stroke="black" d="M210,-178.54C210,-170.92 210,-162.75 210,-154.77"/>
<polygon fill="black" stroke="black" points="213.5,-154.82 210,-144.82 206.5,-154.82 213.5,-154.82"/>
</g>
<!-- 3 -->
<g id="node4" class="node">
<title>3</title>
<path fill="#c0c0c0" stroke="black" d="M43,-36C43,-36 13,-36 13,-36 7,-36 1,-30 1,-24 1,-24 1,-12 1,-12 1,-6 7,0 13,0 13,0 43,0 43,0 49,0 55,-6 55,-12 55,-12 55,-24 55,-24 55,-30 49,-36 43,-36"/>
<text xml:space="preserve" text-anchor="middle" x="28" y="-12.57" font-family="Helvetica,sans-Serif" font-size="14.00">(...)</text>
</g>
<!-- 2&#45;&gt;3 -->
<g id="edge3" class="edge">
<title>2&#45;&gt;3</title>
<path fill="none" stroke="black" d="M48.46,-71.67C45.24,-63.37 41.85,-54.63 38.77,-46.71"/>
<polygon fill="black" stroke="black" points="42.11,-45.65 35.22,-37.59 35.58,-48.18 42.11,-45.65"/>
</g>
<!-- 4 -->
<g id="node5" class="node">
<title>4</title>
<path fill="#c0c0c0" stroke="black" d="M115,-36C115,-36 85,-36 85,-36 79,-36 73,-30 73,-24 73,-24 73,-12 73,-12 73,-6 79,0 85,0 85,0 115,0 115,0 121,0 127,-6 127,-12 127,-12 127,-24 127,-24 127,-30 121,-36 115,-36"/>
<text xml:space="preserve" text-anchor="middle" x="100" y="-12.57" font-family="Helvetica,sans-Serif" font-size="14.00">(...)</text>
</g>
<!-- 2&#45;&gt;4 -->
<g id="edge4" class="edge">
<title>2&#45;&gt;4</title>
<path fill="none" stroke="black" d="M77.13,-71.67C80.73,-63.37 84.52,-54.63 87.97,-46.71"/>
<polygon fill="black" stroke="black" points="91.16,-48.14 91.93,-37.57 84.74,-45.35 91.16,-48.14"/>
</g>
<!-- 6 -->
<g id="node7" class="node">
<title>6</title>
<path fill="#c0c0c0" stroke="black" d="M206,-36C206,-36 176,-36 176,-36 170,-36 164,-30 164,-24 164,-24 164,-12 164,-12 164,-6 170,0 176,0 176,0 206,0 206,0 212,0 218,-6 218,-12 218,-12 218,-24 218,-24 218,-30 212,-36 206,-36"/>
<text xml:space="preserve" text-anchor="middle" x="191" y="-12.57" font-family="Helvetica,sans-Serif" font-size="14.00">(...)</text>
</g>
<!-- 5&#45;&gt;6 -->
<g id="edge6" class="edge">
<title>5&#45;&gt;6</title>
<path fill="none" stroke="black" d="M202.44,-71.67C200.68,-63.56 198.83,-55.04 197.14,-47.26"/>
<polygon fill="black" stroke="black" points="200.59,-46.69 195.05,-37.66 193.75,-48.18 200.59,-46.69"/>
</g>
<!-- 7 -->
<g id="node8" class="node">
<title>7</title>
<path fill="#c0c0c0" stroke="black" d="M278,-36C278,-36 248,-36 248,-36 242,-36 236,-30 236,-24 236,-24 236,-12 236,-12 236,-6 242,0 248,0 248,0 278,0 278,0 284,0 290,-6 290,-12 290,-12 290,-24 290,-24 290,-30 284,-36 278,-36"/>
<text xml:space="preserve" text-anchor="middle" x="263" y="-12.57" font-family="Helvetica,sans-Serif" font-size="14.00">(...)</text>
</g>
<!-- 5&#45;&gt;7 -->
<g id="edge7" class="edge">
<title>5&#45;&gt;7</title>
<path fill="none" stroke="black" d="M231.1,-71.67C236.3,-63.09 241.78,-54.03 246.71,-45.89"/>
<polygon fill="black" stroke="black" points="249.62,-47.84 251.81,-37.48 243.63,-44.22 249.62,-47.84"/>
</g>
<!-- 9 -->
<g id="node10" class="node">
<title>9</title>
<path fill="#e59d39" stroke="black" d="M385.75,-135.12C385.75,-135.12 308.25,-135.12 308.25,-135.12 302.25,-135.12 296.25,-129.12 296.25,-123.12 296.25,-123.12 296.25,-91.88 296.25,-91.88 296.25,-85.88 302.25,-79.88 308.25,-79.88 308.25,-79.88 385.75,-79.88 385.75,-79.88 391.75,-79.88 397.75,-85.88 397.75,-91.88 397.75,-91.88 397.75,-123.12 397.75,-123.12 397.75,-129.12 391.75,-135.12 385.75,-135.12"/>
<text xml:space="preserve" text-anchor="start" x="306.12" y="-118.38" font-family="Helvetica,sans-Serif" font-size="14.00">samples = 18</text>
<text xml:space="preserve" text-anchor="start" x="304.25" y="-102.62" font-family="Helvetica,sans-Serif" font-size="14.00">value = [0, 18]</text>
<text xml:space="preserve" text-anchor="start" x="307.62" y="-86.88" font-family="Helvetica,sans-Serif" font-size="14.00">class = Dead</text>
</g>
<!-- 8&#45;&gt;9 -->
<g id="edge9" class="edge">
<title>8&#45;&gt;9</title>
<path fill="none" stroke="black" d="M347,-178.54C347,-168.31 347,-157.07 347,-146.66"/>
<polygon fill="black" stroke="black" points="350.5,-146.85 347,-136.85 343.5,-146.85 350.5,-146.85"/>
</g>
<!-- 10 -->
<g id="node11" class="node">
<title>10</title>
<path fill="#f5d8b0" stroke="black" d="M498.38,-135.12C498.38,-135.12 427.62,-135.12 427.62,-135.12 421.62,-135.12 415.62,-129.12 415.62,-123.12 415.62,-123.12 415.62,-91.88 415.62,-91.88 415.62,-85.88 421.62,-79.88 427.62,-79.88 427.62,-79.88 498.38,-79.88 498.38,-79.88 504.38,-79.88 510.38,-85.88 510.38,-91.88 510.38,-91.88 510.38,-123.12 510.38,-123.12 510.38,-129.12 504.38,-135.12 498.38,-135.12"/>
<text xml:space="preserve" text-anchor="start" x="425.88" y="-118.38" font-family="Helvetica,sans-Serif" font-size="14.00">samples = 8</text>
<text xml:space="preserve" text-anchor="start" x="424" y="-102.62" font-family="Helvetica,sans-Serif" font-size="14.00">value = [3, 5]</text>
<text xml:space="preserve" text-anchor="start" x="423.62" y="-86.88" font-family="Helvetica,sans-Serif" font-size="14.00">class = Dead</text>
</g>
<!-- 8&#45;&gt;10 -->
<g id="edge10" class="edge">
<title>8&#45;&gt;10</title>
<path fill="none" stroke="black" d="M385.63,-178.54C398.26,-167.1 412.29,-154.4 424.89,-143"/>
<polygon fill="black" stroke="black" points="427.16,-145.66 432.23,-136.36 422.46,-140.47 427.16,-145.66"/>
</g>
</g>
</svg>
