<?xml version="1.0" encoding="UTF-8" standalone="no"?>
<!DOCTYPE svg PUBLIC "-//W3C//DTD SVG 1.1//EN"
 "http://www.w3.org/Graphics/SVG/1.1/DTD/svg11.dtd">
<!-- Generated by graphviz version 14.1.5 (20260411.2331)
 -->
<!-- Title: Tree Pages: 1 -->
<svg width="545pt" height="365pt"
 viewBox="0.00 0.00 545.00 365.00" xmlns="http://www.w3.org/2000/svg" xmlns:xlink="http://www.w3.org/1999/xlink">
<g id="graph0" class="graph" transform="scale(1 1) rotate(0) translate(4 361)">
<title>Tree</title>
<polygon fill="white" stroke="none" points="-4,4 -4,-361 541,-361 541,4 -4,4"/>
<!-- 0 -->
<g id="node1" class="node">
<title>0</title>
<path fill="#3e84e6" stroke="black" d="M296,-357C296,-357 196,-357 196,-357 190,-357 184,-351 184,-345 184,-345 184,-298 184,-298 184,-292 190,-286 196,-286 196,-286 296,-286 296,-286 302,-286 308,-292 308,-298 308,-298 308,-345 308,-345 308,-351 302,-357 296,-357"/>
<text xml:space="preserve" text-anchor="start" x="201.75" y="-340.25" font-family="Helvetica,sans-Serif" font-size="14.00">min_sal ≤ 19.5</text>
<text xml:space="preserve" text-anchor="start" x="197.62" y="-324.5" font-family="Helvetica,sans-Serif" font-size="14.00">samples = 2095</text>
<text xml:space="preserve" text-anchor="start" x="192" y="-308.75" font-family="Helvetica,sans-Serif" font-size="14.00">value = [2043, 52]</text>
<text xml:space="preserve" text-anchor="start" x="208.5" y="-293" font-family="Helvetica,sans-Serif" font-size="14.00">class = Alive</text>
</g>
<!-- 1 -->
<g id="node2" class="node">
<title>1</title>
<path fill="#e8aa53" stroke="black" d="M224.88,-250C224.88,-250 127.12,-250 127.12,-250 121.12,-250 115.12,-244 115.12,-238 115.12,-238 115.12,-191 115.12,-191 115.12,-185 121.12,-179 127.12,-179 127.12,-179 224.88,-179 224.88,-179 230.88,-179 236.88,-185 236.88,-191 236.88,-191 236.88,-238 236.88,-238 236.88,-244 230.88,-250 224.88,-250"/>
<text xml:space="preserve" text-anchor="start" x="123.12" y="-233.25" font-family="Helvetica,sans-Serif" font-size="14.00">max_temp ≤ 21.5</text>
<text xml:space="preserve" text-anchor="start" x="135.12" y="-217.5" font-family="Helvetica,sans-Serif" font-size="14.00">samples = 26</text>
<text xml:space="preserve" text-anchor="start" x="133.25" y="-201.75" font-family="Helvetica,sans-Serif" font-size="14.00">value = [3, 23]</text>
<text xml:space="preserve" text-anchor="start" x="136.62" y="-186" font-family="Helvetica,sans-Serif" font-size="14.00">class = Dead</text>
</g>
<!-- 0&#45;&gt;1 -->
<g id="edge1" class="edge">
<title>0&#45;&gt;1</title>
<path fill="none" stroke="black" d="M222.69,-285.54C217.2,-277.3 211.28,-268.42 205.55,-259.83"/>
<polygon fill="black" stroke="black" points="208.51,-257.95 200.05,-251.57 202.68,-261.83 208.51,-257.95"/>
<text xml:space="preserve" text-anchor="middle" x="194.3" y="-269.4" font-family="Helvetica,sans-Serif" font-size="14.00">True</text>
</g>
<!-- 6 -->
<g id="node7" class="node">
<title>6</title>
<path fill="#3c83e5" stroke="black" d="M367,-250C367,-250 267,-250 267,-250 261,-250 255,-244 255,-238 255,-238 255,-191 255,-191 255,-185 261,-179 267,-179 267,-179 367,-179 367,-179 373,-179 379,-185 379,-191 379,-191 379,-238 379,-238 379,-244 373,-250 367,-250"/>
<text xml:space="preserve" text-anchor="start" x="266" y="-233.25" font-family="Helvetica,sans-Serif" font-size="14.00">min_temp ≤ 32.5</text>
<text xml:space="preserve" text-anchor="start" x="268.62" y="-217.5" font-family="Helvetica,sans-Serif" font-size="14.00">samples = 2069</text>
<text xml:space="preserve" text-anchor="start" x="263" y="-201.75" font-family="Helvetica,sans-Serif" font-size="14.00">value = [2040, 29]</text>
<text xml:space="preserve" text-anchor="start" x="279.5" y="-186" font-family="Helvetica,sans-Serif" font-size="14.00">class = Alive</text>
</g>
<!-- 0&#45;&gt;6 -->
<g id="edge6" class="edge">
<title>0&#45;&gt;6</title>
<path fill="none" stroke="black" d="M269.64,-285.54C275.21,-277.3 281.22,-268.42 287.03,-259.83"/>
<polygon fill="black" stroke="black" points="289.91,-261.81 292.61,-251.56 284.11,-257.89 289.91,-261.81"/>
<text xml:space="preserve" text-anchor="middle" x="298.2" y="-269.43" font-family="Helvetica,sans-Serif" font-size="14.00">False</text>
</g>
<!-- 2 -->
<g id="node3" class="node">
<title>2</title>
<path fill="#bdd5f6" stroke="black" d="M98,-143C98,-143 28,-143 28,-143 22,-143 16,-137 16,-131 16,-131 16,-84 16,-84 16,-78 22,-72 28,-72 28,-72 98,-72 98,-72 104,-72 110,-78 110,-84 110,-84 110,-131 110,-131 110,-137 104,-143 98,-143"/>
<text xml:space="preserve" text-anchor="start" x="26.25" y="-126.25" font-family="Helvetica,sans-Serif" font-size="14.00">Δtemp ≤ 0.5</text>
<text xml:space="preserve" text-anchor="start" x="25.88" y="-110.5" font-family="Helvetica,sans-Serif" font-size="14.00">samples = 5</text>
<text xml:space="preserve" text-anchor="start" x="24" y="-94.75" font-family="Helvetica,sans-Serif" font-size="14.00">value = [3, 2]</text>
<text xml:space="preserve" text-anchor="start" x="25.5" y="-79" font-family="Helvetica,sans-Serif" font-size="14.00">class = Alive</text>
</g>
<!-- 1&#45;&gt;2 -->
<g id="edge2" class="edge">
<title>1&#45;&gt;2</title>
<path fill="none" stroke="black" d="M138.37,-178.54C128.84,-169.68 118.5,-160.07 108.62,-150.89"/>
<polygon fill="black" stroke="black" points="111.28,-148.58 101.57,-144.34 106.52,-153.71 111.28,-148.58"/>
</g>
<!-- 5 -->
<g id="node6" class="node">
<title>5</title>
<path fill="#e59d39" stroke="black" d="M217.75,-135.12C217.75,-135.12 140.25,-135.12 140.25,-135.12 134.25,-135.12 128.25,-129.12 128.25,-123.12 128.25,-123.12 128.25,-91.88 128.25,-91.88 128.25,-85.88 134.25,-79.88 140.25,-79.88 140.25,-79.88 217.75,-79.88 217.75,-79.88 223.75,-79.88 229.75,-85.88 229.75,-91.88 229.75,-91.88 229.75,-123.12 229.75,-123.12 229.75,-129.12 223.75,-135.12 217.75,-135.12"/>
<text xml:space="preserve" text-anchor="start" x="138.12" y="-118.38" font-family="Helvetica,sans-Serif" font-size="14.00">samples = 21</text>
<text xml:space="preserve" text-anchor="start" x="136.25" y="-102.62" font-family="Helvetica,sans-Serif" font-size="14.00">value = [0, 21]</text>
<text xml:space="preserve" text-anchor="start" x="139.62" y="-86.88" font-family="Helvetica,sans-Serif" font-size="14.00">class = Dead</text>
</g>
<!-- 1&#45;&gt;5 -->
<g id="edge5" class="edge">
<title>1&#45;&gt;5</title>
<path fill="none" stroke="black" d="M177,-178.54C177.29,-168.31 177.61,-157.07 177.91,-146.66"/>
<polygon fill="black" stroke="black" points="181.4,-146.95 178.19,-136.85 174.41,-146.75 181.4,-146.95"/>
</g>
<!-- 3 -->
<g id="node4" class="node">
<title>3</title>
<path fill="#c0c0c0" stroke="black" d="M42,-36C42,-36 12,-36 12,-36 6,-36 0,-30 0,-24 0,-24 0,-12 0,-12 0,-6 6,0 12,0 12,0 42,0 42,0 48,0 54,-6 54,-12 54,-12 54,-24 54,-24 54,-30 48,-36 42,-36"/>
<text xml:space="preserve" text-anchor="middle" x="27" y="-12.57" font-family="Helvetica,sans-Serif" font-size="14.00">(...)</text>
</g>
<!-- 2&#45;&gt;3 -->
<g id="edge3" class="edge">
<title>2&#45;&gt;3</title>
<path fill="none" stroke="black" d="M48.67,-71.67C45.26,-63.37 41.66,-54.63 38.4,-46.71"/>
<polygon fill="black" stroke="black" points="41.69,-45.5 34.65,-37.58 35.21,-48.16 41.69,-45.5"/>
</g>
<!-- 4 -->
<g id="node5" class="node">
<title>4</title>
<path fill="#c0c0c0" stroke="black" d="M114,-36C114,-36 84,-36 84,-36 78,-36 72,-30 72,-24 72,-24 72,-12 72,-12 72,-6 78,0 84,0 84,0 114,0 114,0 120,0 126,-6 126,-12 126,-12 126,-24 126,-24 126,-30 120,-36 114,-36"/>
<text xml:space="preserve" text-anchor="middle" x="99" y="-12.57" font-family="Helvetica,sans-Serif" font-size="14.00">(...)</text>
</g>
<!-- 2&#45;&gt;4 -->
<g id="edge4" class="edge">
<title>2&#45;&gt;4</title>
<path fill="none" stroke="black" d="M77.33,-71.67C80.74,-63.37 84.34,-54.63 87.6,-46.71"/>
<polygon fill="black" stroke="black" points="90.79,-48.16 91.35,-37.58 84.31,-45.5 90.79,-48.16"/>
</g>
<!-- 7 -->
<g id="node8" class="node">
<title>7</title>
<path fill="#3b83e5" stroke="black" d="M365,-143C365,-143 265,-143 265,-143 259,-143 253,-137 253,-131 253,-131 253,-84 253,-84 253,-78 259,-72 265,-72 265,-72 365,-72 365,-72 371,-72 377,-78 377,-84 377,-84 377,-131 377,-131 377,-137 371,-143 365,-143"/>
<text xml:space="preserve" text-anchor="start" x="278.25" y="-126.25" font-family="Helvetica,sans-Serif" font-size="14.00">Δtemp ≤ 0.5</text>
<text xml:space="preserve" text-anchor="start" x="266.62" y="-110.5" font-family="Helvetica,sans-Serif" font-size="14.00">samples = 2029</text>
<text xml:space="preserve" text-anchor="start" x="261" y="-94.75" font-family="Helvetica,sans-Serif" font-size="14.00">value = [2004, 25]</text>
<text xml:space="preserve" text-anchor="start" x="277.5" y="-79" font-family="Helvetica,sans-Serif" font-size="14.00">class = Alive</text>
</g>
<!-- 6&#45;&gt;7 -->
<g id="edge7" class="edge">
<title>6&#45;&gt;7</title>
<path fill="none" stroke="black" d="M316.33,-178.54C316.19,-170.92 316.03,-162.75 315.88,-154.77"/>
<polygon fill="black" stroke="black" points="319.38,-154.76 315.69,-144.82 312.38,-154.89 319.38,-154.76"/>
</g>
<!-- 10 -->
<g id="node11" class="node">
<title>10</title>
<path fill="#4f8fe8" stroke="black" d="M504.88,-143C504.88,-143 407.12,-143 407.12,-143 401.12,-143 395.12,-137 395.12,-131 395.12,-131 395.12,-84 395.12,-84 395.12,-78 401.12,-72 407.12,-72 407.12,-72 504.88,-72 504.88,-72 510.88,-72 516.88,-78 516.88,-84 516.88,-84 516.88,-131 516.88,-131 516.88,-137 510.88,-143 504.88,-143"/>
<text xml:space="preserve" text-anchor="start" x="403.12" y="-126.25" font-family="Helvetica,sans-Serif" font-size="14.00">max_temp ≤ 33.5</text>
<text xml:space="preserve" text-anchor="start" x="415.12" y="-110.5" font-family="Helvetica,sans-Serif" font-size="14.00">samples = 40</text>
<text xml:space="preserve" text-anchor="start" x="413.25" y="-94.75" font-family="Helvetica,sans-Serif" font-size="14.00">value = [36, 4]</text>
<text xml:space="preserve" text-anchor="start" x="418.5" y="-79" font-family="Helvetica,sans-Serif" font-size="14.00">class = Alive</text>
</g>
<!-- 6&#45;&gt;10 -->
<g id="edge10" class="edge">
<title>6&#45;&gt;10</title>
<path fill="none" stroke="black" d="M363.28,-178.54C375.36,-169.42 388.49,-159.5 400.97,-150.07"/>
<polygon fill="black" stroke="black" points="402.84,-153.04 408.71,-144.22 398.62,-147.46 402.84,-153.04"/>
</g>
<!-- 8 -->
<g id="node9" class="node">
<title>8</title>
<path fill="#c0c0c0" stroke="black" d="M275,-36C275,-36 245,-36 245,-36 239,-36 233,-30 233,-24 233,-24 233,-12 233,-12 233,-6 239,0 245,0 245,0 275,0 275,0 281,0 287,-6 287,-12 287,-12 287,-24 287,-24 287,-30 281,-36 275,-36"/>
<text xml:space="preserve" text-anchor="middle" x="260" y="-12.57" font-family="Helvetica,sans-Serif" font-size="14.00">(...)</text>
</g>
<!-- 7&#45;&gt;8 -->
<g id="edge8" class="edge">
<title>7&#45;&gt;8</title>
<path fill="none" stroke="black" d="M293.1,-71.67C287.71,-63.09 282.02,-54.03 276.9,-45.89"/>
<polygon fill="black" stroke="black" points="279.89,-44.07 271.61,-37.46 273.96,-47.79 279.89,-44.07"/>
</g>
<!-- 9 -->
<g id="node10" class="node">
<title>9</title>
<path fill="#c0c0c0" stroke="black" d="M347,-36C347,-36 317,-36 317,-36 311,-36 305,-30 305,-24 305,-24 305,-12 305,-12 305,-6 311,0 317,0 317,0 347,0 347,0 353,0 359,-6 359,-12 359,-12 359,-24 359,-24 359,-30 353,-36 347,-36"/>
<text xml:space="preserve" text-anchor="middle" x="332" y="-12.57" font-family="Helvetica,sans-Serif" font-size="14.00">(...)</text>
</g>
<!-- 7&#45;&gt;9 -->
<g id="edge9" class="edge">
<title>7&#45;&gt;9</title>
<path fill="none" stroke="black" d="M321.77,-71.67C323.34,-63.56 325,-55.04 326.51,-47.26"/>
<polygon fill="black" stroke="black" points="329.9,-48.15 328.37,-37.67 323.03,-46.82 329.9,-48.15"/>
</g>
<!-- 11 -->
<g id="node12" class="node">
<title>11</title>
<path fill="#c0c0c0" stroke="black" d="M453,-36C453,-36 423,-36 423,-36 417,-36 411,-30 411,-24 411,-24 411,-12 411,-12 411,-6 417,0 423,0 423,0 453,0 453,0 459,0 465,-6 465,-12 465,-12 465,-24 465,-24 465,-30 459,-36 453,-36"/>
<text xml:space="preserve" text-anchor="middle" x="438" y="-12.57" font-family="Helvetica,sans-Serif" font-size="14.00">(...)</text>
</g>
<!-- 10&#45;&gt;11 -->
<g id="edge11" class="edge">
<title>10&#45;&gt;11</title>
<path fill="none" stroke="black" d="M448.83,-71.67C447.17,-63.56 445.41,-55.04 443.81,-47.26"/>
<polygon fill="black" stroke="black" points="447.28,-46.75 441.84,-37.67 440.43,-48.17 447.28,-46.75"/>
</g>
<!-- 12 -->
<g id="node13" class="node">
<title>12</title>
<path fill="#c0c0c0" stroke="black" d="M525,-36C525,-36 495,-36 495,-36 489,-36 483,-30 483,-24 483,-24 483,-12 483,-12 483,-6 489,0 495,0 495,0 525,0 525,0 531,0 537,-6 537,-12 537,-12 537,-24 537,-24 537,-30 531,-36 525,-36"/>
<text xml:space="preserve" text-anchor="middle" x="510" y="-12.57" font-family="Helvetica,sans-Serif" font-size="14.00">(...)</text>
</g>
<!-- 10&#45;&gt;12 -->
<g id="edge12" class="edge">
<title>10&#45;&gt;12</title>
<path fill="none" stroke="black" d="M477.5,-71.67C482.79,-63.09 488.38,-54.03 493.4,-45.89"/>
<polygon fill="black" stroke="black" points="496.33,-47.82 498.6,-37.47 490.37,-44.14 496.33,-47.82"/>
</g>
</g>
</svg>
