<?xml version="1.0" encoding="UTF-8" standalone="no"?>
<!DOCTYPE svg PUBLIC "-//W3C//DTD SVG 1.1//EN"
 "http://www.w3.org/Graphics/SVG/1.1/DTD/svg11.dtd">
<!-- Generated by graphviz version 14.1.5 (20260411.2331)
 -->
<!-- Title: Tree Pages: 1 -->
<svg width="553pt" height="365pt"
 viewBox="0.00 0.00 553.00 365.00" xmlns="http://www.w3.org/2000/svg" xmlns:xlink="http://www.w3.org/1999/xlink">
<g id="graph0" class="graph" transform="scale(1 1) rotate(0) translate(4 361)">
<title>Tree</title>
<polygon fill="white" stroke="none" points="-4,4 -4,-361 549.38,-361 549.38,4 -4,4"/>
<!-- 0 -->
<g id="node1" class="node">
<title>0</title>
<path fill="#3e84e6" stroke="black" d="M310,-357C310,-357 210,-357 210,-357 204,-357 198,-351 198,-345 198,-345 198,-298 198,-298 198,-292 204,-286 210,-286 210,-286 310,-286 310,-286 316,-286 322,-292 322,-298 322,-298 322,-345 322,-345 322,-351 316,-357 310,-357"/>
<text xml:space="preserve" text-anchor="start" x="213.88" y="-340.25" font-family="Helvetica,sans-Serif" font-size="14.00">max_sal ≤ 19.5</text>
<text xml:space="preserve" text-anchor="start" x="211.62" y="-324.5" font-family="Helvetica,sans-Serif" font-size="14.00">samples = 2095</text>
<text xml:space="preserve" text-anchor="start" x="206" y="-308.75" font-family="Helvetica,sans-Serif" font-size="14.00">value = [2043, 52]</text>
<text xml:space="preserve" text-anchor="start" x="222.5" y="-293" font-family="Helvetica,sans-Serif" font-size="14.00">class = Alive</text>
</g>
<!-- 1 -->
<g id="node2" class="node">
<title>1</title>
<path fill="#e8aa53" stroke="black" d="M238.88,-250C238.88,-250 141.12,-250 141.12,-250 135.12,-250 129.12,-244 129.12,-238 129.12,-238 129.12,-191 129.12,-191 129.12,-185 135.12,-179 141.12,-179 141.12,-179 238.88,-179 238.88,-179 244.88,-179 250.88,-185 250.88,-191 250.88,-191 250.88,-238 250.88,-238 250.88,-244 244.88,-250 238.88,-250"/>
<text xml:space="preserve" text-anchor="start" x="137.12" y="-233.25" font-family="Helvetica,sans-Serif" font-size="14.00">max_temp ≤ 21.0</text>
<text xml:space="preserve" text-anchor="start" x="149.12" y="-217.5" font-family="Helvetica,sans-Serif" font-size="14.00">samples = 26</text>
<text xml:space="preserve" text-anchor="start" x="147.25" y="-201.75" font-family="Helvetica,sans-Serif" font-size="14.00">value = [3, 23]</text>
<text xml:space="preserve" text-anchor="start" x="150.62" y="-186" font-family="Helvetica,sans-Serif" font-size="14.00">class = Dead</text>
</g>
<!-- 0&#45;&gt;1 -->
<g id="edge1" class="edge">
<title>0&#45;&gt;1</title>
<path fill="none" stroke="black" d="M236.69,-285.54C231.2,-277.3 225.28,-268.42 219.55,-259.83"/>
<polygon fill="black" stroke="black" points="222.51,-257.95 214.05,-251.57 216.68,-261.83 222.51,-257.95"/>
<text xml:space="preserve" text-anchor="middle" x="208.3" y="-269.4" font-family="Helvetica,sans-Serif" font-size="14.00">True</text>
</g>
<!-- 6 -->
<g id="node7" class="node">
<title>6</title>
<path fill="#3c83e5" stroke="black" d="M381,-250C381,-250 281,-250 281,-250 275,-250 269,-244 269,-238 269,-238 269,-191 269,-191 269,-185 275,-179 281,-179 281,-179 381,-179 381,-179 387,-179 393,-185 393,-191 393,-191 393,-238 393,-238 393,-244 387,-250 381,-250"/>
<text xml:space="preserve" text-anchor="start" x="280" y="-233.25" font-family="Helvetica,sans-Serif" font-size="14.00">min_temp ≤ 30.5</text>
<text xml:space="preserve" text-anchor="start" x="282.62" y="-217.5" font-family="Helvetica,sans-Serif" font-size="14.00">samples = 2069</text>
<text xml:space="preserve" text-anchor="start" x="277" y="-201.75" font-family="Helvetica,sans-Serif" font-size="14.00">value = [2040, 29]</text>
<text xml:space="preserve" text-anchor="start" x="293.5" y="-186" font-family="Helvetica,sans-Serif" font-size="14.00">class = Alive</text>
</g>
<!-- 0&#45;&gt;6 -->
<g id="edge6" class="edge">
<title>0&#45;&gt;6</title>
<path fill="none" stroke="black" d="M283.64,-285.54C289.21,-277.3 295.22,-268.42 301.03,-259.83"/>
<polygon fill="black" stroke="black" points="303.91,-261.81 306.61,-251.56 298.11,-257.89 303.91,-261.81"/>
<text xml:space="preserve" text-anchor="middle" x="312.2" y="-269.43" font-family="Helvetica,sans-Serif" font-size="14.00">False</text>
</g>
<!-- 2 -->
<g id="node3" class="node">
<title>2</title>
<path fill="#f5d8b0" stroke="black" d="M111.88,-143C111.88,-143 14.12,-143 14.12,-143 8.12,-143 2.12,-137 2.12,-131 2.12,-131 2.12,-84 2.12,-84 2.12,-78 8.12,-72 14.12,-72 14.12,-72 111.88,-72 111.88,-72 117.88,-72 123.88,-78 123.88,-84 123.88,-84 123.88,-131 123.88,-131 123.88,-137 117.88,-143 111.88,-143"/>
<text xml:space="preserve" text-anchor="start" x="10.12" y="-126.25" font-family="Helvetica,sans-Serif" font-size="14.00">max_temp ≤ 18.5</text>
<text xml:space="preserve" text-anchor="start" x="25.88" y="-110.5" font-family="Helvetica,sans-Serif" font-size="14.00">samples = 8</text>
<text xml:space="preserve" text-anchor="start" x="24" y="-94.75" font-family="Helvetica,sans-Serif" font-size="14.00">value = [3, 5]</text>
<text xml:space="preserve" text-anchor="start" x="23.62" y="-79" font-family="Helvetica,sans-Serif" font-size="14.00">class = Dead</text>
</g>
<!-- 1&#45;&gt;2 -->
<g id="edge2" class="edge">
<title>1&#45;&gt;2</title>
<path fill="none" stroke="black" d="M147.71,-178.54C136.89,-169.59 125.15,-159.88 113.94,-150.62"/>
<polygon fill="black" stroke="black" points="116.21,-147.95 106.27,-144.28 111.75,-153.34 116.21,-147.95"/>
</g>
<!-- 5 -->
<g id="node6" class="node">
<title>5</title>
<path fill="#e59d39" stroke="black" d="M231.75,-135.12C231.75,-135.12 154.25,-135.12 154.25,-135.12 148.25,-135.12 142.25,-129.12 142.25,-123.12 142.25,-123.12 142.25,-91.88 142.25,-91.88 142.25,-85.88 148.25,-79.88 154.25,-79.88 154.25,-79.88 231.75,-79.88 231.75,-79.88 237.75,-79.88 243.75,-85.88 243.75,-91.88 243.75,-91.88 243.75,-123.12 243.75,-123.12 243.75,-129.12 237.75,-135.12 231.75,-135.12"/>
<text xml:space="preserve" text-anchor="start" x="152.12" y="-118.38" font-family="Helvetica,sans-Serif" font-size="14.00">samples = 18</text>
<text xml:space="preserve" text-anchor="start" x="150.25" y="-102.62" font-family="Helvetica,sans-Serif" font-size="14.00">value = [0, 18]</text>
<text xml:space="preserve" text-anchor="start" x="153.62" y="-86.88" font-family="Helvetica,sans-Serif" font-size="14.00">class = Dead</text>
</g>
<!-- 1&#45;&gt;5 -->
<g id="edge5" class="edge">
<title>1&#45;&gt;5</title>
<path fill="none" stroke="black" d="M191,-178.54C191.29,-168.31 191.61,-157.07 191.91,-146.66"/>
<polygon fill="black" stroke="black" points="195.4,-146.95 192.19,-136.85 188.41,-146.75 195.4,-146.95"/>
</g>
<!-- 3 -->
<g id="node4" class="node">
<title>3</title>
<path fill="#c0c0c0" stroke="black" d="M42,-36C42,-36 12,-36 12,-36 6,-36 0,-30 0,-24 0,-24 0,-12 0,-12 0,-6 6,0 12,0 12,0 42,0 42,0 48,0 54,-6 54,-12 54,-12 54,-24 54,-24 54,-30 48,-36 42,-36"/>
<text xml:space="preserve" text-anchor="middle" x="27" y="-12.57" font-family="Helvetica,sans-Serif" font-size="14.00">(...)</text>
</g>
<!-- 2&#45;&gt;3 -->
<g id="edge3" class="edge">
<title>2&#45;&gt;3</title>
<path fill="none" stroke="black" d="M48.67,-71.67C45.26,-63.37 41.66,-54.63 38.4,-46.71"/>
<polygon fill="black" stroke="black" points="41.69,-45.5 34.65,-37.58 35.21,-48.16 41.69,-45.5"/>
</g>
<!-- 4 -->
<g id="node5" class="node">
<title>4</title>
<path fill="#c0c0c0" stroke="black" d="M114,-36C114,-36 84,-36 84,-36 78,-36 72,-30 72,-24 72,-24 72,-12 72,-12 72,-6 78,0 84,0 84,0 114,0 114,0 120,0 126,-6 126,-12 126,-12 126,-24 126,-24 126,-30 120,-36 114,-36"/>
<text xml:space="preserve" text-anchor="middle" x="99" y="-12.57" font-family="Helvetica,sans-Serif" font-size="14.00">(...)</text>
</g>
<!-- 2&#45;&gt;4 -->
<g id="edge4" class="edge">
<title>2&#45;&gt;4</title>
<path fill="none" stroke="black" d="M77.33,-71.67C80.74,-63.37 84.34,-54.63 87.6,-46.71"/>
<polygon fill="black" stroke="black" points="90.79,-48.16 91.35,-37.58 84.31,-45.5 90.79,-48.16"/>
</g>
<!-- 7 -->
<g id="node8" class="node">
<title>7</title>
<path fill="#3b82e5" stroke="black" d="M379,-143C379,-143 279,-143 279,-143 273,-143 267,-137 267,-131 267,-131 267,-84 267,-84 267,-78 273,-72 279,-72 279,-72 379,-72 379,-72 385,-72 391,-78 391,-84 391,-84 391,-131 391,-131 391,-137 385,-143 379,-143"/>
<text xml:space="preserve" text-anchor="start" x="282.88" y="-126.25" font-family="Helvetica,sans-Serif" font-size="14.00">max_sal ≤ 27.5</text>
<text xml:space="preserve" text-anchor="start" x="280.62" y="-110.5" font-family="Helvetica,sans-Serif" font-size="14.00">samples = 1876</text>
<text xml:space="preserve" text-anchor="start" x="275" y="-94.75" font-family="Helvetica,sans-Serif" font-size="14.00">value = [1856, 20]</text>
<text xml:space="preserve" text-anchor="start" x="291.5" y="-79" font-family="Helvetica,sans-Serif" font-size="14.00">class = Alive</text>
</g>
<!-- 6&#45;&gt;7 -->
<g id="edge7" class="edge">
<title>6&#45;&gt;7</title>
<path fill="none" stroke="black" d="M330.33,-178.54C330.19,-170.92 330.03,-162.75 329.88,-154.77"/>
<polygon fill="black" stroke="black" points="333.38,-154.76 329.69,-144.82 326.38,-154.89 333.38,-154.76"/>
</g>
<!-- 10 -->
<g id="node11" class="node">
<title>10</title>
<path fill="#4387e6" stroke="black" d="M533.38,-143C533.38,-143 420.62,-143 420.62,-143 414.62,-143 408.62,-137 408.62,-131 408.62,-131 408.62,-84 408.62,-84 408.62,-78 414.62,-72 420.62,-72 420.62,-72 533.38,-72 533.38,-72 539.38,-72 545.38,-78 545.38,-84 545.38,-84 545.38,-131 545.38,-131 545.38,-137 539.38,-143 533.38,-143"/>
<text xml:space="preserve" text-anchor="start" x="416.62" y="-126.25" font-family="Helvetica,sans-Serif" font-size="14.00">days_passed ≤ 31.5</text>
<text xml:space="preserve" text-anchor="start" x="432.38" y="-110.5" font-family="Helvetica,sans-Serif" font-size="14.00">samples = 193</text>
<text xml:space="preserve" text-anchor="start" x="430.5" y="-94.75" font-family="Helvetica,sans-Serif" font-size="14.00">value = [184, 9]</text>
<text xml:space="preserve" text-anchor="start" x="439.5" y="-79" font-family="Helvetica,sans-Serif" font-size="14.00">class = Alive</text>
</g>
<!-- 6&#45;&gt;10 -->
<g id="edge10" class="edge">
<title>6&#45;&gt;10</title>
<path fill="none" stroke="black" d="M379.62,-178.54C392.42,-169.33 406.36,-159.3 419.58,-149.8"/>
<polygon fill="black" stroke="black" points="421.29,-152.87 427.37,-144.19 417.21,-147.19 421.29,-152.87"/>
</g>
<!-- 8 -->
<g id="node9" class="node">
<title>8</title>
<path fill="#c0c0c0" stroke="black" d="M292,-36C292,-36 262,-36 262,-36 256,-36 250,-30 250,-24 250,-24 250,-12 250,-12 250,-6 256,0 262,0 262,0 292,0 292,0 298,0 304,-6 304,-12 304,-12 304,-24 304,-24 304,-30 298,-36 292,-36"/>
<text xml:space="preserve" text-anchor="middle" x="277" y="-12.57" font-family="Helvetica,sans-Serif" font-size="14.00">(...)</text>
</g>
<!-- 7&#45;&gt;8 -->
<g id="edge8" class="edge">
<title>7&#45;&gt;8</title>
<path fill="none" stroke="black" d="M308.3,-71.67C303.2,-63.09 297.82,-54.03 292.98,-45.89"/>
<polygon fill="black" stroke="black" points="296.1,-44.29 287.98,-37.48 290.08,-47.87 296.1,-44.29"/>
</g>
<!-- 9 -->
<g id="node10" class="node">
<title>9</title>
<path fill="#c0c0c0" stroke="black" d="M364,-36C364,-36 334,-36 334,-36 328,-36 322,-30 322,-24 322,-24 322,-12 322,-12 322,-6 328,0 334,0 334,0 364,0 364,0 370,0 376,-6 376,-12 376,-12 376,-24 376,-24 376,-30 370,-36 364,-36"/>
<text xml:space="preserve" text-anchor="middle" x="349" y="-12.57" font-family="Helvetica,sans-Serif" font-size="14.00">(...)</text>
</g>
<!-- 7&#45;&gt;9 -->
<g id="edge9" class="edge">
<title>7&#45;&gt;9</title>
<path fill="none" stroke="black" d="M336.96,-71.67C338.81,-63.56 340.76,-55.04 342.54,-47.26"/>
<polygon fill="black" stroke="black" points="345.92,-48.19 344.74,-37.66 339.09,-46.63 345.92,-48.19"/>
</g>
<!-- 11 -->
<g id="node12" class="node">
<title>11</title>
<path fill="#c0c0c0" stroke="black" d="M456,-36C456,-36 426,-36 426,-36 420,-36 414,-30 414,-24 414,-24 414,-12 414,-12 414,-6 420,0 426,0 426,0 456,0 456,0 462,0 468,-6 468,-12 468,-12 468,-24 468,-24 468,-30 462,-36 456,-36"/>
<text xml:space="preserve" text-anchor="middle" x="441" y="-12.57" font-family="Helvetica,sans-Serif" font-size="14.00">(...)</text>
</g>
<!-- 10&#45;&gt;11 -->
<g id="edge11" class="edge">
<title>10&#45;&gt;11</title>
<path fill="none" stroke="black" d="M462.67,-71.67C459.26,-63.37 455.66,-54.63 452.4,-46.71"/>
<polygon fill="black" stroke="black" points="455.69,-45.5 448.65,-37.58 449.21,-48.16 455.69,-45.5"/>
</g>
<!-- 12 -->
<g id="node13" class="node">
<title>12</title>
<path fill="#c0c0c0" stroke="black" d="M528,-36C528,-36 498,-36 498,-36 492,-36 486,-30 486,-24 486,-24 486,-12 486,-12 486,-6 492,0 498,0 498,0 528,0 528,0 534,0 540,-6 540,-12 540,-12 540,-24 540,-24 540,-30 534,-36 528,-36"/>
<text xml:space="preserve" text-anchor="middle" x="513" y="-12.57" font-family="Helvetica,sans-Serif" font-size="14.00">(...)</text>
</g>
<!-- 10&#45;&gt;12 -->
<g id="edge12" class="edge">
<title>10&#45;&gt;12</title>
<path fill="none" stroke="black" d="M491.33,-71.67C494.74,-63.37 498.34,-54.63 501.6,-46.71"/>
<polygon fill="black" stroke="black" points="504.79,-48.16 505.35,-37.58 498.31,-45.5 504.79,-48.16"/>
</g>
</g>
</svg>
