<?xml version="1.0" encoding="UTF-8" standalone="no"?>
<!DOCTYPE svg PUBLIC "-//W3C//DTD SVG 1.1//EN"
 "http://www.w3.org/Graphics/SVG/1.1/DTD/svg11.dtd">
<!-- Generated by graphviz version 14.1.5 (20260411.2331)
 -->
<!-- Title: Tree Pages: 1 -->
<svg width="542pt" height="365pt"
 viewBox="0.00 0.00 542.00 365.00" xmlns="http://www.w3.org/2000/svg" xmlns:xlink="http://www.w3.org/1999/xlink">
<g id="graph0" class="graph" transform="scale(1 1) rotate(0) translate(4 361)">
<title>Tree</title>
<polygon fill="white" stroke="none" points="-4,4 -4,-361 538,-361 538,4 -4,4"/>
<!-- 0 -->
<g id="node1" class="node">
<title>0</title>
<path fill="#3e84e6" stroke="black" d="M329,-357C329,-357 229,-357 229,-357 223,-357 217,-351 217,-345 217,-345 217,-298 217,-298 217,-292 223,-286 229,-286 229,-286 329,-286 329,-286 335,-286 341,-292 341,-298 341,-298 341,-345 341,-345 341,-351 335,-357 329,-357"/>
<text xml:space="preserve" text-anchor="start" x="245.25" y="-340.25" font-family="Helvetica,sans-Serif" font-size="14.00">Δsal ≤ 16.0</text>
<text xml:space="preserve" text-anchor="start" x="230.62" y="-324.5" font-family="Helvetica,sans-Serif" font-size="14.00">samples = 2095</text>
<text xml:space="preserve" text-anchor="start" x="225" y="-308.75" font-family="Helvetica,sans-Serif" font-size="14.00">value = [2043, 52]</text>
<text xml:space="preserve" text-anchor="start" x="241.5" y="-293" font-family="Helvetica,sans-Serif" font-size="14.00">class = Alive</text>
</g>
<!-- 1 -->
<g id="node2" class="node">
<title>1</title>
<path fill="#3c83e5" stroke="black" d="M261,-250C261,-250 161,-250 161,-250 155,-250 149,-244 149,-238 149,-238 149,-191 149,-191 149,-185 155,-179 161,-179 161,-179 261,-179 261,-179 267,-179 273,-185 273,-191 273,-191 273,-238 273,-238 273,-244 267,-250 261,-250"/>
<text xml:space="preserve" text-anchor="start" x="160" y="-233.25" font-family="Helvetica,sans-Serif" font-size="14.00">min_temp ≤ 32.5</text>
<text xml:space="preserve" text-anchor="start" x="162.62" y="-217.5" font-family="Helvetica,sans-Serif" font-size="14.00">samples = 2069</text>
<text xml:space="preserve" text-anchor="start" x="157" y="-201.75" font-family="Helvetica,sans-Serif" font-size="14.00">value = [2040, 29]</text>
<text xml:space="preserve" text-anchor="start" x="173.5" y="-186" font-family="Helvetica,sans-Serif" font-size="14.00">class = Alive</text>
</g>
<!-- 0&#45;&gt;1 -->
<g id="edge1" class="edge">
<title>0&#45;&gt;1</title>
<path fill="none" stroke="black" d="M256.36,-285.54C251.02,-277.3 245.27,-268.42 239.71,-259.83"/>
<polygon fill="black" stroke="black" points="242.74,-258.07 234.37,-251.58 236.86,-261.88 242.74,-258.07"/>
<text xml:space="preserve" text-anchor="middle" x="228.32" y="-269.33" font-family="Helvetica,sans-Serif" font-size="14.00">True</text>
</g>
<!-- 8 -->
<g id="node9" class="node">
<title>8</title>
<path fill="#e8aa53" stroke="black" d="M386.75,-250C386.75,-250 309.25,-250 309.25,-250 303.25,-250 297.25,-244 297.25,-238 297.25,-238 297.25,-191 297.25,-191 297.25,-185 303.25,-179 309.25,-179 309.25,-179 386.75,-179 386.75,-179 392.75,-179 398.75,-185 398.75,-191 398.75,-191 398.75,-238 398.75,-238 398.75,-244 392.75,-250 386.75,-250"/>
<text xml:space="preserve" text-anchor="start" x="311.25" y="-233.25" font-family="Helvetica,sans-Serif" font-size="14.00">Δtemp ≤ 7.0</text>
<text xml:space="preserve" text-anchor="start" x="307.12" y="-217.5" font-family="Helvetica,sans-Serif" font-size="14.00">samples = 26</text>
<text xml:space="preserve" text-anchor="start" x="305.25" y="-201.75" font-family="Helvetica,sans-Serif" font-size="14.00">value = [3, 23]</text>
<text xml:space="preserve" text-anchor="start" x="308.62" y="-186" font-family="Helvetica,sans-Serif" font-size="14.00">class = Dead</text>
</g>
<!-- 0&#45;&gt;8 -->
<g id="edge8" class="edge">
<title>0&#45;&gt;8</title>
<path fill="none" stroke="black" d="M301.98,-285.54C307.39,-277.3 313.23,-268.42 318.87,-259.83"/>
<polygon fill="black" stroke="black" points="321.73,-261.85 324.29,-251.58 315.88,-258.01 321.73,-261.85"/>
<text xml:space="preserve" text-anchor="middle" x="330.19" y="-269.37" font-family="Helvetica,sans-Serif" font-size="14.00">False</text>
</g>
<!-- 2 -->
<g id="node3" class="node">
<title>2</title>
<path fill="#3b83e5" stroke="black" d="M113,-143C113,-143 13,-143 13,-143 7,-143 1,-137 1,-131 1,-131 1,-84 1,-84 1,-78 7,-72 13,-72 13,-72 113,-72 113,-72 119,-72 125,-78 125,-84 125,-84 125,-131 125,-131 125,-137 119,-143 113,-143"/>
<text xml:space="preserve" text-anchor="start" x="18.75" y="-126.25" font-family="Helvetica,sans-Serif" font-size="14.00">min_sal ≤ 34.5</text>
<text xml:space="preserve" text-anchor="start" x="14.62" y="-110.5" font-family="Helvetica,sans-Serif" font-size="14.00">samples = 2038</text>
<text xml:space="preserve" text-anchor="start" x="9" y="-94.75" font-family="Helvetica,sans-Serif" font-size="14.00">value = [2013, 25]</text>
<text xml:space="preserve" text-anchor="start" x="25.5" y="-79" font-family="Helvetica,sans-Serif" font-size="14.00">class = Alive</text>
</g>
<!-- 1&#45;&gt;2 -->
<g id="edge2" class="edge">
<title>1&#45;&gt;2</title>
<path fill="none" stroke="black" d="M161.72,-178.54C148.81,-169.38 134.76,-159.41 121.42,-149.95"/>
<polygon fill="black" stroke="black" points="123.73,-147.3 113.55,-144.37 119.68,-153.01 123.73,-147.3"/>
</g>
<!-- 5 -->
<g id="node6" class="node">
<title>5</title>
<path fill="#5694e9" stroke="black" d="M267.38,-143C267.38,-143 154.62,-143 154.62,-143 148.62,-143 142.62,-137 142.62,-131 142.62,-131 142.62,-84 142.62,-84 142.62,-78 148.62,-72 154.62,-72 154.62,-72 267.38,-72 267.38,-72 273.38,-72 279.38,-78 279.38,-84 279.38,-84 279.38,-131 279.38,-131 279.38,-137 273.38,-143 267.38,-143"/>
<text xml:space="preserve" text-anchor="start" x="150.62" y="-126.25" font-family="Helvetica,sans-Serif" font-size="14.00">days_passed ≤ 23.5</text>
<text xml:space="preserve" text-anchor="start" x="170.12" y="-110.5" font-family="Helvetica,sans-Serif" font-size="14.00">samples = 31</text>
<text xml:space="preserve" text-anchor="start" x="168.25" y="-94.75" font-family="Helvetica,sans-Serif" font-size="14.00">value = [27, 4]</text>
<text xml:space="preserve" text-anchor="start" x="173.5" y="-79" font-family="Helvetica,sans-Serif" font-size="14.00">class = Alive</text>
</g>
<!-- 1&#45;&gt;5 -->
<g id="edge5" class="edge">
<title>1&#45;&gt;5</title>
<path fill="none" stroke="black" d="M211,-178.54C211,-170.92 211,-162.75 211,-154.77"/>
<polygon fill="black" stroke="black" points="214.5,-154.82 211,-144.82 207.5,-154.82 214.5,-154.82"/>
</g>
<!-- 3 -->
<g id="node4" class="node">
<title>3</title>
<path fill="#c0c0c0" stroke="black" d="M42,-36C42,-36 12,-36 12,-36 6,-36 0,-30 0,-24 0,-24 0,-12 0,-12 0,-6 6,0 12,0 12,0 42,0 42,0 48,0 54,-6 54,-12 54,-12 54,-24 54,-24 54,-30 48,-36 42,-36"/>
<text xml:space="preserve" text-anchor="middle" x="27" y="-12.57" font-family="Helvetica,sans-Serif" font-size="14.00">(...)</text>
</g>
<!-- 2&#45;&gt;3 -->
<g id="edge3" class="edge">
<title>2&#45;&gt;3</title>
<path fill="none" stroke="black" d="M48.67,-71.67C45.26,-63.37 41.66,-54.63 38.4,-46.71"/>
<polygon fill="black" stroke="black" points="41.69,-45.5 34.65,-37.58 35.21,-48.16 41.69,-45.5"/>
</g>
<!-- 4 -->
<g id="node5" class="node">
<title>4</title>
<path fill="#c0c0c0" stroke="black" d="M114,-36C114,-36 84,-36 84,-36 78,-36 72,-30 72,-24 72,-24 72,-12 72,-12 72,-6 78,0 84,0 84,0 114,0 114,0 120,0 126,-6 126,-12 126,-12 126,-24 126,-24 126,-30 120,-36 114,-36"/>
<text xml:space="preserve" text-anchor="middle" x="99" y="-12.57" font-family="Helvetica,sans-Serif" font-size="14.00">(...)</text>
</g>
<!-- 2&#45;&gt;4 -->
<g id="edge4" class="edge">
<title>2&#45;&gt;4</title>
<path fill="none" stroke="black" d="M77.33,-71.67C80.74,-63.37 84.34,-54.63 87.6,-46.71"/>
<polygon fill="black" stroke="black" points="90.79,-48.16 91.35,-37.58 84.31,-45.5 90.79,-48.16"/>
</g>
<!-- 6 -->
<g id="node7" class="node">
<title>6</title>
<path fill="#c0c0c0" stroke="black" d="M206,-36C206,-36 176,-36 176,-36 170,-36 164,-30 164,-24 164,-24 164,-12 164,-12 164,-6 170,0 176,0 176,0 206,0 206,0 212,0 218,-6 218,-12 218,-12 218,-24 218,-24 218,-30 212,-36 206,-36"/>
<text xml:space="preserve" text-anchor="middle" x="191" y="-12.57" font-family="Helvetica,sans-Serif" font-size="14.00">(...)</text>
</g>
<!-- 5&#45;&gt;6 -->
<g id="edge6" class="edge">
<title>5&#45;&gt;6</title>
<path fill="none" stroke="black" d="M203.04,-71.67C201.19,-63.56 199.24,-55.04 197.46,-47.26"/>
<polygon fill="black" stroke="black" points="200.91,-46.63 195.26,-37.66 194.08,-48.19 200.91,-46.63"/>
</g>
<!-- 7 -->
<g id="node8" class="node">
<title>7</title>
<path fill="#c0c0c0" stroke="black" d="M278,-36C278,-36 248,-36 248,-36 242,-36 236,-30 236,-24 236,-24 236,-12 236,-12 236,-6 242,0 248,0 248,0 278,0 278,0 284,0 290,-6 290,-12 290,-12 290,-24 290,-24 290,-30 284,-36 278,-36"/>
<text xml:space="preserve" text-anchor="middle" x="263" y="-12.57" font-family="Helvetica,sans-Serif" font-size="14.00">(...)</text>
</g>
<!-- 5&#45;&gt;7 -->
<g id="edge7" class="edge">
<title>5&#45;&gt;7</title>
<path fill="none" stroke="black" d="M231.7,-71.67C236.8,-63.09 242.18,-54.03 247.02,-45.89"/>
<polygon fill="black" stroke="black" points="249.92,-47.87 252.02,-37.48 243.9,-44.29 249.92,-47.87"/>
</g>
<!-- 9 -->
<g id="node10" class="node">
<title>9</title>
<path fill="#e59d39" stroke="black" d="M386.75,-135.12C386.75,-135.12 309.25,-135.12 309.25,-135.12 303.25,-135.12 297.25,-129.12 297.25,-123.12 297.25,-123.12 297.25,-91.88 297.25,-91.88 297.25,-85.88 303.25,-79.88 309.25,-79.88 309.25,-79.88 386.75,-79.88 386.75,-79.88 392.75,-79.88 398.75,-85.88 398.75,-91.88 398.75,-91.88 398.75,-123.12 398.75,-123.12 398.75,-129.12 392.75,-135.12 386.75,-135.12"/>
<text xml:space="preserve" text-anchor="start" x="307.12" y="-118.38" font-family="Helvetica,sans-Serif" font-size="14.00">samples = 21</text>
<text xml:space="preserve" text-anchor="start" x="305.25" y="-102.62" font-family="Helvetica,sans-Serif" font-size="14.00">value = [0, 21]</text>
<text xml:space="preserve" text-anchor="start" x="308.62" y="-86.88" font-family="Helvetica,sans-Serif" font-size="14.00">class = Dead</text>
</g>
<!-- 8&#45;&gt;9 -->
<g id="edge9" class="edge">
<title>8&#45;&gt;9</title>
<path fill="none" stroke="black" d="M348,-178.54C348,-168.31 348,-157.07 348,-146.66"/>
<polygon fill="black" stroke="black" points="351.5,-146.85 348,-136.85 344.5,-146.85 351.5,-146.85"/>
</g>
<!-- 10 -->
<g id="node11" class="node">
<title>10</title>
<path fill="#bdd5f6" stroke="black" d="M513.12,-143C513.12,-143 428.88,-143 428.88,-143 422.88,-143 416.88,-137 416.88,-131 416.88,-131 416.88,-84 416.88,-84 416.88,-78 422.88,-72 428.88,-72 428.88,-72 513.12,-72 513.12,-72 519.12,-72 525.12,-78 525.12,-84 525.12,-84 525.12,-131 525.12,-131 525.12,-137 519.12,-143 513.12,-143"/>
<text xml:space="preserve" text-anchor="start" x="424.88" y="-126.25" font-family="Helvetica,sans-Serif" font-size="14.00">max_sal ≤ 37.5</text>
<text xml:space="preserve" text-anchor="start" x="433.88" y="-110.5" font-family="Helvetica,sans-Serif" font-size="14.00">samples = 5</text>
<text xml:space="preserve" text-anchor="start" x="432" y="-94.75" font-family="Helvetica,sans-Serif" font-size="14.00">value = [3, 2]</text>
<text xml:space="preserve" text-anchor="start" x="433.5" y="-79" font-family="Helvetica,sans-Serif" font-size="14.00">class = Alive</text>
</g>
<!-- 8&#45;&gt;10 -->
<g id="edge10" class="edge">
<title>8&#45;&gt;10</title>
<path fill="none" stroke="black" d="M388.96,-178.54C399.43,-169.59 410.81,-159.88 421.66,-150.62"/>
<polygon fill="black" stroke="black" points="423.74,-153.45 429.07,-144.29 419.19,-148.12 423.74,-153.45"/>
</g>
<!-- 11 -->
<g id="node12" class="node">
<title>11</title>
<path fill="#c0c0c0" stroke="black" d="M450,-36C450,-36 420,-36 420,-36 414,-36 408,-30 408,-24 408,-24 408,-12 408,-12 408,-6 414,0 420,0 420,0 450,0 450,0 456,0 462,-6 462,-12 462,-12 462,-24 462,-24 462,-30 456,-36 450,-36"/>
<text xml:space="preserve" text-anchor="middle" x="435" y="-12.57" font-family="Helvetica,sans-Serif" font-size="14.00">(...)</text>
</g>
<!-- 10&#45;&gt;11 -->
<g id="edge11" class="edge">
<title>10&#45;&gt;11</title>
<path fill="none" stroke="black" d="M456.67,-71.67C453.26,-63.37 449.66,-54.63 446.4,-46.71"/>
<polygon fill="black" stroke="black" points="449.69,-45.5 442.65,-37.58 443.21,-48.16 449.69,-45.5"/>
</g>
<!-- 12 -->
<g id="node13" class="node">
<title>12</title>
<path fill="#c0c0c0" stroke="black" d="M522,-36C522,-36 492,-36 492,-36 486,-36 480,-30 480,-24 480,-24 480,-12 480,-12 480,-6 486,0 492,0 492,0 522,0 522,0 528,0 534,-6 534,-12 534,-12 534,-24 534,-24 534,-30 528,-36 522,-36"/>
<text xml:space="preserve" text-anchor="middle" x="507" y="-12.57" font-family="Helvetica,sans-Serif" font-size="14.00">(...)</text>
</g>
<!-- 10&#45;&gt;12 -->
<g id="edge12" class="edge">
<title>10&#45;&gt;12</title>
<path fill="none" stroke="black" d="M485.33,-71.67C488.74,-63.37 492.34,-54.63 495.6,-46.71"/>
<polygon fill="black" stroke="black" points="498.79,-48.16 499.35,-37.58 492.31,-45.5 498.79,-48.16"/>
</g>
</g>
</svg>
