<?xml version="1.0" encoding="utf-8" standalone="no"?>
<!DOCTYPE svg PUBLIC "-//W3C//DTD SVG 1.1//EN"
  "http://www.w3.org/Graphics/SVG/1.1/DTD/svg11.dtd">
<svg xmlns:xlink="http://www.w3.org/1999/xlink" width="1353.6pt" height="901.44pt" viewBox="0 0 1353.6 901.44" xmlns="http://www.w3.org/2000/svg" version="1.1">
 <metadata>
  <rdf:RDF xmlns:dc="http://purl.org/dc/elements/1.1/" xmlns:cc="http://creativecommons.org/ns#" xmlns:rdf="http://www.w3.org/1999/02/22-rdf-syntax-ns#">
   <cc:Work>
    <dc:type rdf:resource="http://purl.org/dc/dcmitype/StillImage"/>
    <dc:date>2026-04-27T14:23:22.841784</dc:date>
    <dc:format>image/svg+xml</dc:format>
    <dc:creator>
     <cc:Agent>
      <dc:title>Matplotlib v3.10.1, https://matplotlib.org/</dc:title>
     </cc:Agent>
    </dc:creator>
   </cc:Work>
  </rdf:RDF>
 </metadata>
 <defs>
  <style type="text/css">*{stroke-linejoin: round; stroke-linecap: butt}</style>
 </defs>
 <g id="figure_1">
  <g id="patch_1">
   <path d="M 0 901.44 
L 1353.6 901.44 
L 1353.6 0 
L 0 0 
z
" style="fill: #ffffff"/>
  </g>
  <g id="axes_1">
   <g id="patch_2">
    <path d="M 138.700906 743.814975 
Q 183.900406 653.999194 229.50198 563.384453 
" style="fill: none; stroke: #262626; stroke-width: 0.8; stroke-linecap: round"/>
    <path d="M 145.87022 738.466991 
L 138.700906 743.814975 
L 138.724107 734.870733 
" style="fill: none; stroke: #262626; stroke-width: 0.8; stroke-linecap: round"/>
   </g>
   <g id="text_1">
    <g id="patch_3">
     <path d="M 92.69375 819.9225 
L 144.90625 819.9225 
Q 150.90625 819.9225 150.90625 813.9225 
L 150.90625 752.7975 
Q 150.90625 746.7975 144.90625 746.7975 
L 92.69375 746.7975 
Q 86.69375 746.7975 86.69375 752.7975 
L 86.69375 813.9225 
Q 86.69375 819.9225 92.69375 819.9225 
z
" style="fill: #808080; stroke: #ffffff; stroke-width: 0.8; stroke-linejoin: miter"/>
    </g>
    <!--  -->
    <g style="fill: #262626" transform="translate(118.8 767.113125) scale(0.2 -0.2)"/>
    <!--   (...)   -->
    <g style="fill: #262626" transform="translate(92.69375 788.559375) scale(0.2 -0.2)">
     <defs>
      <path id="ArialMT-20" transform="scale(0.015625)"/>
      <path id="ArialMT-28" d="M 1497 -1347 
Q 1031 -759 709 28 
Q 388 816 388 1659 
Q 388 2403 628 3084 
Q 909 3875 1497 4659 
L 1900 4659 
Q 1522 4009 1400 3731 
Q 1209 3300 1100 2831 
Q 966 2247 966 1656 
Q 966 153 1900 -1347 
L 1497 -1347 
z
" transform="scale(0.015625)"/>
      <path id="ArialMT-2e" d="M 581 0 
L 581 641 
L 1222 641 
L 1222 0 
L 581 0 
z
" transform="scale(0.015625)"/>
      <path id="ArialMT-29" d="M 791 -1347 
L 388 -1347 
Q 1322 153 1322 1656 
Q 1322 2244 1188 2822 
Q 1081 3291 891 3722 
Q 769 4003 388 4659 
L 791 4659 
Q 1378 3875 1659 3084 
Q 1900 2403 1900 1659 
Q 1900 816 1576 28 
Q 1253 -759 791 -1347 
z
" transform="scale(0.015625)"/>
     </defs>
     <use xlink:href="#ArialMT-20"/>
     <use xlink:href="#ArialMT-20" transform="translate(27.783203 0)"/>
     <use xlink:href="#ArialMT-28" transform="translate(55.566406 0)"/>
     <use xlink:href="#ArialMT-2e" transform="translate(88.867188 0)"/>
     <use xlink:href="#ArialMT-2e" transform="translate(116.650391 0)"/>
     <use xlink:href="#ArialMT-2e" transform="translate(144.433594 0)"/>
     <use xlink:href="#ArialMT-29" transform="translate(172.216797 0)"/>
     <use xlink:href="#ArialMT-20" transform="translate(205.517578 0)"/>
     <use xlink:href="#ArialMT-20" transform="translate(233.300781 0)"/>
    </g>
    <!--  -->
    <g style="fill: #262626" transform="translate(118.8 809.9475) scale(0.2 -0.2)"/>
   </g>
   <g id="patch_4">
    <path d="M 322.099094 743.814975 
Q 276.899594 653.999194 231.29802 563.384453 
" style="fill: none; stroke: #262626; stroke-width: 0.8; stroke-linecap: round"/>
    <path d="M 322.075893 734.870733 
L 322.099094 743.814975 
L 314.92978 738.466991 
" style="fill: none; stroke: #262626; stroke-width: 0.8; stroke-linecap: round"/>
   </g>
   <g id="text_2">
    <g id="patch_5">
     <path d="M 315.89375 819.9225 
L 368.10625 819.9225 
Q 374.10625 819.9225 374.10625 813.9225 
L 374.10625 752.7975 
Q 374.10625 746.7975 368.10625 746.7975 
L 315.89375 746.7975 
Q 309.89375 746.7975 309.89375 752.7975 
L 309.89375 813.9225 
Q 309.89375 819.9225 315.89375 819.9225 
z
" style="fill: #808080; stroke: #ffffff; stroke-width: 0.8; stroke-linejoin: miter"/>
    </g>
    <!--  -->
    <g style="fill: #262626" transform="translate(342 767.113125) scale(0.2 -0.2)"/>
    <!--   (...)   -->
    <g style="fill: #262626" transform="translate(315.89375 788.559375) scale(0.2 -0.2)">
     <use xlink:href="#ArialMT-20"/>
     <use xlink:href="#ArialMT-20" transform="translate(27.783203 0)"/>
     <use xlink:href="#ArialMT-28" transform="translate(55.566406 0)"/>
     <use xlink:href="#ArialMT-2e" transform="translate(88.867188 0)"/>
     <use xlink:href="#ArialMT-2e" transform="translate(116.650391 0)"/>
     <use xlink:href="#ArialMT-2e" transform="translate(144.433594 0)"/>
     <use xlink:href="#ArialMT-29" transform="translate(172.216797 0)"/>
     <use xlink:href="#ArialMT-20" transform="translate(205.517578 0)"/>
     <use xlink:href="#ArialMT-20" transform="translate(233.300781 0)"/>
    </g>
    <!--  -->
    <g style="fill: #262626" transform="translate(342 809.9475) scale(0.2 -0.2)"/>
   </g>
   <g id="patch_6">
    <path d="M 585.100906 743.814975 
Q 630.300406 653.999194 675.90198 563.384453 
" style="fill: none; stroke: #262626; stroke-width: 0.8; stroke-linecap: round"/>
    <path d="M 592.27022 738.466991 
L 585.100906 743.814975 
L 585.124107 734.870733 
" style="fill: none; stroke: #262626; stroke-width: 0.8; stroke-linecap: round"/>
   </g>
   <g id="text_3">
    <g id="patch_7">
     <path d="M 539.09375 819.9225 
L 591.30625 819.9225 
Q 597.30625 819.9225 597.30625 813.9225 
L 597.30625 752.7975 
Q 597.30625 746.7975 591.30625 746.7975 
L 539.09375 746.7975 
Q 533.09375 746.7975 533.09375 752.7975 
L 533.09375 813.9225 
Q 533.09375 819.9225 539.09375 819.9225 
z
" style="fill: #808080; stroke: #ffffff; stroke-width: 0.8; stroke-linejoin: miter"/>
    </g>
    <!--  -->
    <g style="fill: #262626" transform="translate(565.2 767.113125) scale(0.2 -0.2)"/>
    <!--   (...)   -->
    <g style="fill: #262626" transform="translate(539.09375 788.559375) scale(0.2 -0.2)">
     <use xlink:href="#ArialMT-20"/>
     <use xlink:href="#ArialMT-20" transform="translate(27.783203 0)"/>
     <use xlink:href="#ArialMT-28" transform="translate(55.566406 0)"/>
     <use xlink:href="#ArialMT-2e" transform="translate(88.867188 0)"/>
     <use xlink:href="#ArialMT-2e" transform="translate(116.650391 0)"/>
     <use xlink:href="#ArialMT-2e" transform="translate(144.433594 0)"/>
     <use xlink:href="#ArialMT-29" transform="translate(172.216797 0)"/>
     <use xlink:href="#ArialMT-20" transform="translate(205.517578 0)"/>
     <use xlink:href="#ArialMT-20" transform="translate(233.300781 0)"/>
    </g>
    <!--  -->
    <g style="fill: #262626" transform="translate(565.2 809.9475) scale(0.2 -0.2)"/>
   </g>
   <g id="patch_8">
    <path d="M 768.499094 743.814975 
Q 723.299594 653.999194 677.69802 563.384453 
" style="fill: none; stroke: #262626; stroke-width: 0.8; stroke-linecap: round"/>
    <path d="M 768.475893 734.870733 
L 768.499094 743.814975 
L 761.32978 738.466991 
" style="fill: none; stroke: #262626; stroke-width: 0.8; stroke-linecap: round"/>
   </g>
   <g id="text_4">
    <g id="patch_9">
     <path d="M 762.29375 819.9225 
L 814.50625 819.9225 
Q 820.50625 819.9225 820.50625 813.9225 
L 820.50625 752.7975 
Q 820.50625 746.7975 814.50625 746.7975 
L 762.29375 746.7975 
Q 756.29375 746.7975 756.29375 752.7975 
L 756.29375 813.9225 
Q 756.29375 819.9225 762.29375 819.9225 
z
" style="fill: #808080; stroke: #ffffff; stroke-width: 0.8; stroke-linejoin: miter"/>
    </g>
    <!--  -->
    <g style="fill: #262626" transform="translate(788.4 767.113125) scale(0.2 -0.2)"/>
    <!--   (...)   -->
    <g style="fill: #262626" transform="translate(762.29375 788.559375) scale(0.2 -0.2)">
     <use xlink:href="#ArialMT-20"/>
     <use xlink:href="#ArialMT-20" transform="translate(27.783203 0)"/>
     <use xlink:href="#ArialMT-28" transform="translate(55.566406 0)"/>
     <use xlink:href="#ArialMT-2e" transform="translate(88.867188 0)"/>
     <use xlink:href="#ArialMT-2e" transform="translate(116.650391 0)"/>
     <use xlink:href="#ArialMT-2e" transform="translate(144.433594 0)"/>
     <use xlink:href="#ArialMT-29" transform="translate(172.216797 0)"/>
     <use xlink:href="#ArialMT-20" transform="translate(205.517578 0)"/>
     <use xlink:href="#ArialMT-20" transform="translate(233.300781 0)"/>
    </g>
    <!--  -->
    <g style="fill: #262626" transform="translate(788.4 809.9475) scale(0.2 -0.2)"/>
   </g>
   <g id="patch_10">
    <path d="M 1031.500906 743.814975 
Q 1076.700406 653.999194 1122.30198 563.384453 
" style="fill: none; stroke: #262626; stroke-width: 0.8; stroke-linecap: round"/>
    <path d="M 1038.67022 738.466991 
L 1031.500906 743.814975 
L 1031.524107 734.870733 
" style="fill: none; stroke: #262626; stroke-width: 0.8; stroke-linecap: round"/>
   </g>
   <g id="text_5">
    <g id="patch_11">
     <path d="M 985.49375 819.9225 
L 1037.70625 819.9225 
Q 1043.70625 819.9225 1043.70625 813.9225 
L 1043.70625 752.7975 
Q 1043.70625 746.7975 1037.70625 746.7975 
L 985.49375 746.7975 
Q 979.49375 746.7975 979.49375 752.7975 
L 979.49375 813.9225 
Q 979.49375 819.9225 985.49375 819.9225 
z
" style="fill: #808080; stroke: #ffffff; stroke-width: 0.8; stroke-linejoin: miter"/>
    </g>
    <!--  -->
    <g style="fill: #262626" transform="translate(1011.6 767.113125) scale(0.2 -0.2)"/>
    <!--   (...)   -->
    <g style="fill: #262626" transform="translate(985.49375 788.559375) scale(0.2 -0.2)">
     <use xlink:href="#ArialMT-20"/>
     <use xlink:href="#ArialMT-20" transform="translate(27.783203 0)"/>
     <use xlink:href="#ArialMT-28" transform="translate(55.566406 0)"/>
     <use xlink:href="#ArialMT-2e" transform="translate(88.867188 0)"/>
     <use xlink:href="#ArialMT-2e" transform="translate(116.650391 0)"/>
     <use xlink:href="#ArialMT-2e" transform="translate(144.433594 0)"/>
     <use xlink:href="#ArialMT-29" transform="translate(172.216797 0)"/>
     <use xlink:href="#ArialMT-20" transform="translate(205.517578 0)"/>
     <use xlink:href="#ArialMT-20" transform="translate(233.300781 0)"/>
    </g>
    <!--  -->
    <g style="fill: #262626" transform="translate(1011.6 809.9475) scale(0.2 -0.2)"/>
   </g>
   <g id="patch_12">
    <path d="M 1214.899094 743.814975 
Q 1169.699594 653.999194 1124.09802 563.384453 
" style="fill: none; stroke: #262626; stroke-width: 0.8; stroke-linecap: round"/>
    <path d="M 1214.875893 734.870733 
L 1214.899094 743.814975 
L 1207.72978 738.466991 
" style="fill: none; stroke: #262626; stroke-width: 0.8; stroke-linecap: round"/>
   </g>
   <g id="text_6">
    <g id="patch_13">
     <path d="M 1208.69375 819.9225 
L 1260.90625 819.9225 
Q 1266.90625 819.9225 1266.90625 813.9225 
L 1266.90625 752.7975 
Q 1266.90625 746.7975 1260.90625 746.7975 
L 1208.69375 746.7975 
Q 1202.69375 746.7975 1202.69375 752.7975 
L 1202.69375 813.9225 
Q 1202.69375 819.9225 1208.69375 819.9225 
z
" style="fill: #808080; stroke: #ffffff; stroke-width: 0.8; stroke-linejoin: miter"/>
    </g>
    <!--  -->
    <g style="fill: #262626" transform="translate(1234.8 767.113125) scale(0.2 -0.2)"/>
    <!--   (...)   -->
    <g style="fill: #262626" transform="translate(1208.69375 788.559375) scale(0.2 -0.2)">
     <use xlink:href="#ArialMT-20"/>
     <use xlink:href="#ArialMT-20" transform="translate(27.783203 0)"/>
     <use xlink:href="#ArialMT-28" transform="translate(55.566406 0)"/>
     <use xlink:href="#ArialMT-2e" transform="translate(88.867188 0)"/>
     <use xlink:href="#ArialMT-2e" transform="translate(116.650391 0)"/>
     <use xlink:href="#ArialMT-2e" transform="translate(144.433594 0)"/>
     <use xlink:href="#ArialMT-29" transform="translate(172.216797 0)"/>
     <use xlink:href="#ArialMT-20" transform="translate(205.517578 0)"/>
     <use xlink:href="#ArialMT-20" transform="translate(233.300781 0)"/>
    </g>
    <!--  -->
    <g style="fill: #262626" transform="translate(1234.8 809.9475) scale(0.2 -0.2)"/>
   </g>
   <g id="patch_14">
    <path d="M 255.525777 511.672649 
Q 298.111801 427.050098 341.099899 341.628587 
" style="fill: none; stroke: #262626; stroke-width: 0.8; stroke-linecap: round"/>
    <path d="M 262.695092 506.324665 
L 255.525777 511.672649 
L 255.548979 502.728407 
" style="fill: none; stroke: #262626; stroke-width: 0.8; stroke-linecap: round"/>
   </g>
   <g id="text_7">
    <g id="patch_15">
     <path d="M 170.353125 608.54125 
L 290.446875 608.54125 
Q 296.446875 608.54125 296.446875 602.54125 
L 296.446875 520.65875 
Q 296.446875 514.65875 290.446875 514.65875 
L 170.353125 514.65875 
Q 164.353125 514.65875 164.353125 520.65875 
L 164.353125 602.54125 
Q 164.353125 608.54125 170.353125 608.54125 
z
" style="fill: #f6d5bd; stroke: #ffffff; stroke-width: 0.8; stroke-linejoin: miter"/>
    </g>
    <!-- Δtemp &lt;= 0.5 -->
    <g style="fill: #262626" transform="translate(170.353125 535.03375) scale(0.2 -0.2)">
     <defs>
      <path id="ArialMT-394" d="M -6 0 
L 1753 4581 
L 2406 4581 
L 4281 0 
L -6 0 
z
M 834 541 
L 3381 541 
L 2391 3150 
Q 2169 3738 2066 4100 
Q 1981 3675 1819 3225 
L 834 541 
z
" transform="scale(0.015625)"/>
      <path id="ArialMT-74" d="M 1650 503 
L 1731 6 
Q 1494 -44 1306 -44 
Q 1000 -44 831 53 
Q 663 150 594 308 
Q 525 466 525 972 
L 525 2881 
L 113 2881 
L 113 3319 
L 525 3319 
L 525 4141 
L 1084 4478 
L 1084 3319 
L 1650 3319 
L 1650 2881 
L 1084 2881 
L 1084 941 
Q 1084 700 1114 631 
Q 1144 563 1211 522 
Q 1278 481 1403 481 
Q 1497 481 1650 503 
z
" transform="scale(0.015625)"/>
      <path id="ArialMT-65" d="M 2694 1069 
L 3275 997 
Q 3138 488 2766 206 
Q 2394 -75 1816 -75 
Q 1088 -75 661 373 
Q 234 822 234 1631 
Q 234 2469 665 2931 
Q 1097 3394 1784 3394 
Q 2450 3394 2872 2941 
Q 3294 2488 3294 1666 
Q 3294 1616 3291 1516 
L 816 1516 
Q 847 969 1125 678 
Q 1403 388 1819 388 
Q 2128 388 2347 550 
Q 2566 713 2694 1069 
z
M 847 1978 
L 2700 1978 
Q 2663 2397 2488 2606 
Q 2219 2931 1791 2931 
Q 1403 2931 1139 2672 
Q 875 2413 847 1978 
z
" transform="scale(0.015625)"/>
      <path id="ArialMT-6d" d="M 422 0 
L 422 3319 
L 925 3319 
L 925 2853 
Q 1081 3097 1340 3245 
Q 1600 3394 1931 3394 
Q 2300 3394 2536 3241 
Q 2772 3088 2869 2813 
Q 3263 3394 3894 3394 
Q 4388 3394 4653 3120 
Q 4919 2847 4919 2278 
L 4919 0 
L 4359 0 
L 4359 2091 
Q 4359 2428 4304 2576 
Q 4250 2725 4106 2815 
Q 3963 2906 3769 2906 
Q 3419 2906 3187 2673 
Q 2956 2441 2956 1928 
L 2956 0 
L 2394 0 
L 2394 2156 
Q 2394 2531 2256 2718 
Q 2119 2906 1806 2906 
Q 1569 2906 1367 2781 
Q 1166 2656 1075 2415 
Q 984 2175 984 1722 
L 984 0 
L 422 0 
z
" transform="scale(0.015625)"/>
      <path id="ArialMT-70" d="M 422 -1272 
L 422 3319 
L 934 3319 
L 934 2888 
Q 1116 3141 1344 3267 
Q 1572 3394 1897 3394 
Q 2322 3394 2647 3175 
Q 2972 2956 3137 2557 
Q 3303 2159 3303 1684 
Q 3303 1175 3120 767 
Q 2938 359 2589 142 
Q 2241 -75 1856 -75 
Q 1575 -75 1351 44 
Q 1128 163 984 344 
L 984 -1272 
L 422 -1272 
z
M 931 1641 
Q 931 1000 1190 694 
Q 1450 388 1819 388 
Q 2194 388 2461 705 
Q 2728 1022 2728 1688 
Q 2728 2322 2467 2637 
Q 2206 2953 1844 2953 
Q 1484 2953 1207 2617 
Q 931 2281 931 1641 
z
" transform="scale(0.015625)"/>
      <path id="ArialMT-3c" d="M 350 2003 
L 350 2528 
L 3384 3809 
L 3384 3250 
L 978 2263 
L 3384 1266 
L 3384 706 
L 350 2003 
z
" transform="scale(0.015625)"/>
      <path id="ArialMT-3d" d="M 3381 2694 
L 356 2694 
L 356 3219 
L 3381 3219 
L 3381 2694 
z
M 3381 1303 
L 356 1303 
L 356 1828 
L 3381 1828 
L 3381 1303 
z
" transform="scale(0.015625)"/>
      <path id="ArialMT-30" d="M 266 2259 
Q 266 3072 433 3567 
Q 600 4063 929 4331 
Q 1259 4600 1759 4600 
Q 2128 4600 2406 4451 
Q 2684 4303 2865 4023 
Q 3047 3744 3150 3342 
Q 3253 2941 3253 2259 
Q 3253 1453 3087 958 
Q 2922 463 2592 192 
Q 2263 -78 1759 -78 
Q 1097 -78 719 397 
Q 266 969 266 2259 
z
M 844 2259 
Q 844 1131 1108 757 
Q 1372 384 1759 384 
Q 2147 384 2411 759 
Q 2675 1134 2675 2259 
Q 2675 3391 2411 3762 
Q 2147 4134 1753 4134 
Q 1366 4134 1134 3806 
Q 844 3388 844 2259 
z
" transform="scale(0.015625)"/>
      <path id="ArialMT-35" d="M 266 1200 
L 856 1250 
Q 922 819 1161 601 
Q 1400 384 1738 384 
Q 2144 384 2425 690 
Q 2706 997 2706 1503 
Q 2706 1984 2436 2262 
Q 2166 2541 1728 2541 
Q 1456 2541 1237 2417 
Q 1019 2294 894 2097 
L 366 2166 
L 809 4519 
L 3088 4519 
L 3088 3981 
L 1259 3981 
L 1013 2750 
Q 1425 3038 1878 3038 
Q 2478 3038 2890 2622 
Q 3303 2206 3303 1553 
Q 3303 931 2941 478 
Q 2500 -78 1738 -78 
Q 1113 -78 717 272 
Q 322 622 266 1200 
z
" transform="scale(0.015625)"/>
     </defs>
     <use xlink:href="#ArialMT-394"/>
     <use xlink:href="#ArialMT-74" transform="translate(66.796875 0)"/>
     <use xlink:href="#ArialMT-65" transform="translate(94.580078 0)"/>
     <use xlink:href="#ArialMT-6d" transform="translate(150.195312 0)"/>
     <use xlink:href="#ArialMT-70" transform="translate(233.496094 0)"/>
     <use xlink:href="#ArialMT-20" transform="translate(289.111328 0)"/>
     <use xlink:href="#ArialMT-3c" transform="translate(316.894531 0)"/>
     <use xlink:href="#ArialMT-3d" transform="translate(375.292969 0)"/>
     <use xlink:href="#ArialMT-20" transform="translate(433.691406 0)"/>
     <use xlink:href="#ArialMT-30" transform="translate(461.474609 0)"/>
     <use xlink:href="#ArialMT-2e" transform="translate(517.089844 0)"/>
     <use xlink:href="#ArialMT-35" transform="translate(544.873047 0)"/>
    </g>
    <!-- samples = 5 -->
    <g style="fill: #262626" transform="translate(176.207812 556.1875) scale(0.2 -0.2)">
     <defs>
      <path id="ArialMT-73" d="M 197 991 
L 753 1078 
Q 800 744 1014 566 
Q 1228 388 1613 388 
Q 2000 388 2187 545 
Q 2375 703 2375 916 
Q 2375 1106 2209 1216 
Q 2094 1291 1634 1406 
Q 1016 1563 777 1677 
Q 538 1791 414 1992 
Q 291 2194 291 2438 
Q 291 2659 392 2848 
Q 494 3038 669 3163 
Q 800 3259 1026 3326 
Q 1253 3394 1513 3394 
Q 1903 3394 2198 3281 
Q 2494 3169 2634 2976 
Q 2775 2784 2828 2463 
L 2278 2388 
Q 2241 2644 2061 2787 
Q 1881 2931 1553 2931 
Q 1166 2931 1000 2803 
Q 834 2675 834 2503 
Q 834 2394 903 2306 
Q 972 2216 1119 2156 
Q 1203 2125 1616 2013 
Q 2213 1853 2448 1751 
Q 2684 1650 2818 1456 
Q 2953 1263 2953 975 
Q 2953 694 2789 445 
Q 2625 197 2315 61 
Q 2006 -75 1616 -75 
Q 969 -75 630 194 
Q 291 463 197 991 
z
" transform="scale(0.015625)"/>
      <path id="ArialMT-61" d="M 2588 409 
Q 2275 144 1986 34 
Q 1697 -75 1366 -75 
Q 819 -75 525 192 
Q 231 459 231 875 
Q 231 1119 342 1320 
Q 453 1522 633 1644 
Q 813 1766 1038 1828 
Q 1203 1872 1538 1913 
Q 2219 1994 2541 2106 
Q 2544 2222 2544 2253 
Q 2544 2597 2384 2738 
Q 2169 2928 1744 2928 
Q 1347 2928 1158 2789 
Q 969 2650 878 2297 
L 328 2372 
Q 403 2725 575 2942 
Q 747 3159 1072 3276 
Q 1397 3394 1825 3394 
Q 2250 3394 2515 3294 
Q 2781 3194 2906 3042 
Q 3031 2891 3081 2659 
Q 3109 2516 3109 2141 
L 3109 1391 
Q 3109 606 3145 398 
Q 3181 191 3288 0 
L 2700 0 
Q 2613 175 2588 409 
z
M 2541 1666 
Q 2234 1541 1622 1453 
Q 1275 1403 1131 1340 
Q 988 1278 909 1158 
Q 831 1038 831 891 
Q 831 666 1001 516 
Q 1172 366 1500 366 
Q 1825 366 2078 508 
Q 2331 650 2450 897 
Q 2541 1088 2541 1459 
L 2541 1666 
z
" transform="scale(0.015625)"/>
      <path id="ArialMT-6c" d="M 409 0 
L 409 4581 
L 972 4581 
L 972 0 
L 409 0 
z
" transform="scale(0.015625)"/>
     </defs>
     <use xlink:href="#ArialMT-73"/>
     <use xlink:href="#ArialMT-61" transform="translate(50 0)"/>
     <use xlink:href="#ArialMT-6d" transform="translate(105.615234 0)"/>
     <use xlink:href="#ArialMT-70" transform="translate(188.916016 0)"/>
     <use xlink:href="#ArialMT-6c" transform="translate(244.53125 0)"/>
     <use xlink:href="#ArialMT-65" transform="translate(266.748047 0)"/>
     <use xlink:href="#ArialMT-73" transform="translate(322.363281 0)"/>
     <use xlink:href="#ArialMT-20" transform="translate(372.363281 0)"/>
     <use xlink:href="#ArialMT-3d" transform="translate(400.146484 0)"/>
     <use xlink:href="#ArialMT-20" transform="translate(458.544922 0)"/>
     <use xlink:href="#ArialMT-35" transform="translate(486.328125 0)"/>
    </g>
    <!-- value = [3, 2] -->
    <g style="fill: #262626" transform="translate(172.864062 577.4125) scale(0.2 -0.2)">
     <defs>
      <path id="ArialMT-76" d="M 1344 0 
L 81 3319 
L 675 3319 
L 1388 1331 
Q 1503 1009 1600 663 
Q 1675 925 1809 1294 
L 2547 3319 
L 3125 3319 
L 1869 0 
L 1344 0 
z
" transform="scale(0.015625)"/>
      <path id="ArialMT-75" d="M 2597 0 
L 2597 488 
Q 2209 -75 1544 -75 
Q 1250 -75 995 37 
Q 741 150 617 320 
Q 494 491 444 738 
Q 409 903 409 1263 
L 409 3319 
L 972 3319 
L 972 1478 
Q 972 1038 1006 884 
Q 1059 663 1231 536 
Q 1403 409 1656 409 
Q 1909 409 2131 539 
Q 2353 669 2445 892 
Q 2538 1116 2538 1541 
L 2538 3319 
L 3100 3319 
L 3100 0 
L 2597 0 
z
" transform="scale(0.015625)"/>
      <path id="ArialMT-5b" d="M 434 -1272 
L 434 4581 
L 1675 4581 
L 1675 4116 
L 997 4116 
L 997 -806 
L 1675 -806 
L 1675 -1272 
L 434 -1272 
z
" transform="scale(0.015625)"/>
      <path id="ArialMT-33" d="M 269 1209 
L 831 1284 
Q 928 806 1161 595 
Q 1394 384 1728 384 
Q 2125 384 2398 659 
Q 2672 934 2672 1341 
Q 2672 1728 2419 1979 
Q 2166 2231 1775 2231 
Q 1616 2231 1378 2169 
L 1441 2663 
Q 1497 2656 1531 2656 
Q 1891 2656 2178 2843 
Q 2466 3031 2466 3422 
Q 2466 3731 2256 3934 
Q 2047 4138 1716 4138 
Q 1388 4138 1169 3931 
Q 950 3725 888 3313 
L 325 3413 
Q 428 3978 793 4289 
Q 1159 4600 1703 4600 
Q 2078 4600 2393 4439 
Q 2709 4278 2876 4000 
Q 3044 3722 3044 3409 
Q 3044 3113 2884 2869 
Q 2725 2625 2413 2481 
Q 2819 2388 3044 2092 
Q 3269 1797 3269 1353 
Q 3269 753 2831 336 
Q 2394 -81 1725 -81 
Q 1122 -81 723 278 
Q 325 638 269 1209 
z
" transform="scale(0.015625)"/>
      <path id="ArialMT-2c" d="M 569 0 
L 569 641 
L 1209 641 
L 1209 0 
Q 1209 -353 1084 -570 
Q 959 -788 688 -906 
L 531 -666 
Q 709 -588 793 -436 
Q 878 -284 888 0 
L 569 0 
z
" transform="scale(0.015625)"/>
      <path id="ArialMT-32" d="M 3222 541 
L 3222 0 
L 194 0 
Q 188 203 259 391 
Q 375 700 629 1000 
Q 884 1300 1366 1694 
Q 2113 2306 2375 2664 
Q 2638 3022 2638 3341 
Q 2638 3675 2398 3904 
Q 2159 4134 1775 4134 
Q 1369 4134 1125 3890 
Q 881 3647 878 3216 
L 300 3275 
Q 359 3922 746 4261 
Q 1134 4600 1788 4600 
Q 2447 4600 2831 4234 
Q 3216 3869 3216 3328 
Q 3216 3053 3103 2787 
Q 2991 2522 2730 2228 
Q 2469 1934 1863 1422 
Q 1356 997 1212 845 
Q 1069 694 975 541 
L 3222 541 
z
" transform="scale(0.015625)"/>
      <path id="ArialMT-5d" d="M 1363 -1272 
L 122 -1272 
L 122 -806 
L 800 -806 
L 800 4116 
L 122 4116 
L 122 4581 
L 1363 4581 
L 1363 -1272 
z
" transform="scale(0.015625)"/>
     </defs>
     <use xlink:href="#ArialMT-76"/>
     <use xlink:href="#ArialMT-61" transform="translate(50 0)"/>
     <use xlink:href="#ArialMT-6c" transform="translate(105.615234 0)"/>
     <use xlink:href="#ArialMT-75" transform="translate(127.832031 0)"/>
     <use xlink:href="#ArialMT-65" transform="translate(183.447266 0)"/>
     <use xlink:href="#ArialMT-20" transform="translate(239.0625 0)"/>
     <use xlink:href="#ArialMT-3d" transform="translate(266.845703 0)"/>
     <use xlink:href="#ArialMT-20" transform="translate(325.244141 0)"/>
     <use xlink:href="#ArialMT-5b" transform="translate(353.027344 0)"/>
     <use xlink:href="#ArialMT-33" transform="translate(380.810547 0)"/>
     <use xlink:href="#ArialMT-2c" transform="translate(436.425781 0)"/>
     <use xlink:href="#ArialMT-20" transform="translate(464.208984 0)"/>
     <use xlink:href="#ArialMT-32" transform="translate(491.992188 0)"/>
     <use xlink:href="#ArialMT-5d" transform="translate(547.607422 0)"/>
    </g>
    <!-- class = Alive -->
    <g style="fill: #262626" transform="translate(175.095313 598.56625) scale(0.2 -0.2)">
     <defs>
      <path id="ArialMT-63" d="M 2588 1216 
L 3141 1144 
Q 3050 572 2676 248 
Q 2303 -75 1759 -75 
Q 1078 -75 664 370 
Q 250 816 250 1647 
Q 250 2184 428 2587 
Q 606 2991 970 3192 
Q 1334 3394 1763 3394 
Q 2303 3394 2647 3120 
Q 2991 2847 3088 2344 
L 2541 2259 
Q 2463 2594 2264 2762 
Q 2066 2931 1784 2931 
Q 1359 2931 1093 2626 
Q 828 2322 828 1663 
Q 828 994 1084 691 
Q 1341 388 1753 388 
Q 2084 388 2306 591 
Q 2528 794 2588 1216 
z
" transform="scale(0.015625)"/>
      <path id="ArialMT-41" d="M -9 0 
L 1750 4581 
L 2403 4581 
L 4278 0 
L 3588 0 
L 3053 1388 
L 1138 1388 
L 634 0 
L -9 0 
z
M 1313 1881 
L 2866 1881 
L 2388 3150 
Q 2169 3728 2063 4100 
Q 1975 3659 1816 3225 
L 1313 1881 
z
" transform="scale(0.015625)"/>
      <path id="ArialMT-69" d="M 425 3934 
L 425 4581 
L 988 4581 
L 988 3934 
L 425 3934 
z
M 425 0 
L 425 3319 
L 988 3319 
L 988 0 
L 425 0 
z
" transform="scale(0.015625)"/>
     </defs>
     <use xlink:href="#ArialMT-63"/>
     <use xlink:href="#ArialMT-6c" transform="translate(50 0)"/>
     <use xlink:href="#ArialMT-61" transform="translate(72.216797 0)"/>
     <use xlink:href="#ArialMT-73" transform="translate(127.832031 0)"/>
     <use xlink:href="#ArialMT-73" transform="translate(177.832031 0)"/>
     <use xlink:href="#ArialMT-20" transform="translate(227.832031 0)"/>
     <use xlink:href="#ArialMT-3d" transform="translate(255.615234 0)"/>
     <use xlink:href="#ArialMT-20" transform="translate(314.013672 0)"/>
     <use xlink:href="#ArialMT-41" transform="translate(336.296875 0)"/>
     <use xlink:href="#ArialMT-6c" transform="translate(402.996094 0)"/>
     <use xlink:href="#ArialMT-69" transform="translate(425.212891 0)"/>
     <use xlink:href="#ArialMT-76" transform="translate(447.429688 0)"/>
     <use xlink:href="#ArialMT-65" transform="translate(497.429688 0)"/>
    </g>
   </g>
   <g id="patch_16">
    <path d="M 433.796907 522.249339 
Q 388.548978 432.337323 342.898974 341.626348 
" style="fill: none; stroke: #262626; stroke-width: 0.8; stroke-linecap: round"/>
    <path d="M 433.773706 513.305097 
L 433.796907 522.249339 
L 426.627593 516.901355 
" style="fill: none; stroke: #262626; stroke-width: 0.8; stroke-linecap: round"/>
   </g>
   <g id="text_8">
    <g id="patch_17">
     <path d="M 390.503125 597.964375 
L 516.696875 597.964375 
Q 522.696875 597.964375 522.696875 591.964375 
L 522.696875 531.235625 
Q 522.696875 525.235625 516.696875 525.235625 
L 390.503125 525.235625 
Q 384.503125 525.235625 384.503125 531.235625 
L 384.503125 591.964375 
Q 384.503125 597.964375 390.503125 597.964375 
z
" style="fill: #399de5; stroke: #ffffff; stroke-width: 0.8; stroke-linejoin: miter"/>
    </g>
    <!-- samples = 21 -->
    <g style="fill: #262626" transform="translate(393.846875 545.610625) scale(0.2 -0.2)">
     <defs>
      <path id="ArialMT-31" d="M 2384 0 
L 1822 0 
L 1822 3584 
Q 1619 3391 1289 3197 
Q 959 3003 697 2906 
L 697 3450 
Q 1169 3672 1522 3987 
Q 1875 4303 2022 4600 
L 2384 4600 
L 2384 0 
z
" transform="scale(0.015625)"/>
     </defs>
     <use xlink:href="#ArialMT-73"/>
     <use xlink:href="#ArialMT-61" transform="translate(50 0)"/>
     <use xlink:href="#ArialMT-6d" transform="translate(105.615234 0)"/>
     <use xlink:href="#ArialMT-70" transform="translate(188.916016 0)"/>
     <use xlink:href="#ArialMT-6c" transform="translate(244.53125 0)"/>
     <use xlink:href="#ArialMT-65" transform="translate(266.748047 0)"/>
     <use xlink:href="#ArialMT-73" transform="translate(322.363281 0)"/>
     <use xlink:href="#ArialMT-20" transform="translate(372.363281 0)"/>
     <use xlink:href="#ArialMT-3d" transform="translate(400.146484 0)"/>
     <use xlink:href="#ArialMT-20" transform="translate(458.544922 0)"/>
     <use xlink:href="#ArialMT-32" transform="translate(486.328125 0)"/>
     <use xlink:href="#ArialMT-31" transform="translate(541.943359 0)"/>
    </g>
    <!-- value = [0, 21] -->
    <g style="fill: #262626" transform="translate(390.503125 566.835625) scale(0.2 -0.2)">
     <use xlink:href="#ArialMT-76"/>
     <use xlink:href="#ArialMT-61" transform="translate(50 0)"/>
     <use xlink:href="#ArialMT-6c" transform="translate(105.615234 0)"/>
     <use xlink:href="#ArialMT-75" transform="translate(127.832031 0)"/>
     <use xlink:href="#ArialMT-65" transform="translate(183.447266 0)"/>
     <use xlink:href="#ArialMT-20" transform="translate(239.0625 0)"/>
     <use xlink:href="#ArialMT-3d" transform="translate(266.845703 0)"/>
     <use xlink:href="#ArialMT-20" transform="translate(325.244141 0)"/>
     <use xlink:href="#ArialMT-5b" transform="translate(353.027344 0)"/>
     <use xlink:href="#ArialMT-30" transform="translate(380.810547 0)"/>
     <use xlink:href="#ArialMT-2c" transform="translate(436.425781 0)"/>
     <use xlink:href="#ArialMT-20" transform="translate(464.208984 0)"/>
     <use xlink:href="#ArialMT-32" transform="translate(491.992188 0)"/>
     <use xlink:href="#ArialMT-31" transform="translate(547.607422 0)"/>
     <use xlink:href="#ArialMT-5d" transform="translate(603.222656 0)"/>
    </g>
    <!-- class = Dead -->
    <g style="fill: #262626" transform="translate(395.515625 587.989375) scale(0.2 -0.2)">
     <defs>
      <path id="ArialMT-44" d="M 494 0 
L 494 4581 
L 2072 4581 
Q 2606 4581 2888 4516 
Q 3281 4425 3559 4188 
Q 3922 3881 4101 3404 
Q 4281 2928 4281 2316 
Q 4281 1794 4159 1391 
Q 4038 988 3847 723 
Q 3656 459 3429 307 
Q 3203 156 2883 78 
Q 2563 0 2147 0 
L 494 0 
z
M 1100 541 
L 2078 541 
Q 2531 541 2789 625 
Q 3047 709 3200 863 
Q 3416 1078 3536 1442 
Q 3656 1806 3656 2325 
Q 3656 3044 3420 3430 
Q 3184 3816 2847 3947 
Q 2603 4041 2063 4041 
L 1100 4041 
L 1100 541 
z
" transform="scale(0.015625)"/>
      <path id="ArialMT-64" d="M 2575 0 
L 2575 419 
Q 2259 -75 1647 -75 
Q 1250 -75 917 144 
Q 584 363 401 755 
Q 219 1147 219 1656 
Q 219 2153 384 2558 
Q 550 2963 881 3178 
Q 1213 3394 1622 3394 
Q 1922 3394 2156 3267 
Q 2391 3141 2538 2938 
L 2538 4581 
L 3097 4581 
L 3097 0 
L 2575 0 
z
M 797 1656 
Q 797 1019 1065 703 
Q 1334 388 1700 388 
Q 2069 388 2326 689 
Q 2584 991 2584 1609 
Q 2584 2291 2321 2609 
Q 2059 2928 1675 2928 
Q 1300 2928 1048 2622 
Q 797 2316 797 1656 
z
" transform="scale(0.015625)"/>
     </defs>
     <use xlink:href="#ArialMT-63"/>
     <use xlink:href="#ArialMT-6c" transform="translate(50 0)"/>
     <use xlink:href="#ArialMT-61" transform="translate(72.216797 0)"/>
     <use xlink:href="#ArialMT-73" transform="translate(127.832031 0)"/>
     <use xlink:href="#ArialMT-73" transform="translate(177.832031 0)"/>
     <use xlink:href="#ArialMT-20" transform="translate(227.832031 0)"/>
     <use xlink:href="#ArialMT-3d" transform="translate(255.615234 0)"/>
     <use xlink:href="#ArialMT-20" transform="translate(314.013672 0)"/>
     <use xlink:href="#ArialMT-44" transform="translate(341.796875 0)"/>
     <use xlink:href="#ArialMT-65" transform="translate(414.013672 0)"/>
     <use xlink:href="#ArialMT-61" transform="translate(469.628906 0)"/>
     <use xlink:href="#ArialMT-64" transform="translate(525.244141 0)"/>
    </g>
   </g>
   <g id="patch_18">
    <path d="M 726.535316 512.185557 
Q 812.239783 427.034022 898.57875 341.252081 
" style="fill: none; stroke: #262626; stroke-width: 0.8; stroke-linecap: round"/>
    <path d="M 735.029706 509.384605 
L 726.535316 512.185557 
L 729.391188 503.709474 
" style="fill: none; stroke: #262626; stroke-width: 0.8; stroke-linecap: round"/>
   </g>
   <g id="text_9">
    <g id="patch_19">
     <path d="M 597.020313 608.576875 
L 756.579688 608.576875 
Q 762.579688 608.576875 762.579688 602.576875 
L 762.579688 520.623125 
Q 762.579688 514.623125 756.579688 514.623125 
L 597.020313 514.623125 
Q 591.020313 514.623125 591.020313 520.623125 
L 591.020313 602.576875 
Q 591.020313 608.576875 597.020313 608.576875 
z
" style="fill: #e5833b; stroke: #ffffff; stroke-width: 0.8; stroke-linejoin: miter"/>
    </g>
    <!-- Δtemp &lt;= 0.5 -->
    <g style="fill: #262626" transform="translate(616.753125 534.998125) scale(0.2 -0.2)">
     <use xlink:href="#ArialMT-394"/>
     <use xlink:href="#ArialMT-74" transform="translate(66.796875 0)"/>
     <use xlink:href="#ArialMT-65" transform="translate(94.580078 0)"/>
     <use xlink:href="#ArialMT-6d" transform="translate(150.195312 0)"/>
     <use xlink:href="#ArialMT-70" transform="translate(233.496094 0)"/>
     <use xlink:href="#ArialMT-20" transform="translate(289.111328 0)"/>
     <use xlink:href="#ArialMT-3c" transform="translate(316.894531 0)"/>
     <use xlink:href="#ArialMT-3d" transform="translate(375.292969 0)"/>
     <use xlink:href="#ArialMT-20" transform="translate(433.691406 0)"/>
     <use xlink:href="#ArialMT-30" transform="translate(461.474609 0)"/>
     <use xlink:href="#ArialMT-2e" transform="translate(517.089844 0)"/>
     <use xlink:href="#ArialMT-35" transform="translate(544.873047 0)"/>
    </g>
    <!-- samples = 2029 -->
    <g style="fill: #262626" transform="translate(605.925 556.223125) scale(0.2 -0.2)">
     <defs>
      <path id="ArialMT-39" d="M 350 1059 
L 891 1109 
Q 959 728 1153 556 
Q 1347 384 1650 384 
Q 1909 384 2104 503 
Q 2300 622 2425 820 
Q 2550 1019 2634 1356 
Q 2719 1694 2719 2044 
Q 2719 2081 2716 2156 
Q 2547 1888 2255 1720 
Q 1963 1553 1622 1553 
Q 1053 1553 659 1965 
Q 266 2378 266 3053 
Q 266 3750 677 4175 
Q 1088 4600 1706 4600 
Q 2153 4600 2523 4359 
Q 2894 4119 3086 3673 
Q 3278 3228 3278 2384 
Q 3278 1506 3087 986 
Q 2897 466 2520 194 
Q 2144 -78 1638 -78 
Q 1100 -78 759 220 
Q 419 519 350 1059 
z
M 2653 3081 
Q 2653 3566 2395 3850 
Q 2138 4134 1775 4134 
Q 1400 4134 1122 3828 
Q 844 3522 844 3034 
Q 844 2597 1108 2323 
Q 1372 2050 1759 2050 
Q 2150 2050 2401 2323 
Q 2653 2597 2653 3081 
z
" transform="scale(0.015625)"/>
     </defs>
     <use xlink:href="#ArialMT-73"/>
     <use xlink:href="#ArialMT-61" transform="translate(50 0)"/>
     <use xlink:href="#ArialMT-6d" transform="translate(105.615234 0)"/>
     <use xlink:href="#ArialMT-70" transform="translate(188.916016 0)"/>
     <use xlink:href="#ArialMT-6c" transform="translate(244.53125 0)"/>
     <use xlink:href="#ArialMT-65" transform="translate(266.748047 0)"/>
     <use xlink:href="#ArialMT-73" transform="translate(322.363281 0)"/>
     <use xlink:href="#ArialMT-20" transform="translate(372.363281 0)"/>
     <use xlink:href="#ArialMT-3d" transform="translate(400.146484 0)"/>
     <use xlink:href="#ArialMT-20" transform="translate(458.544922 0)"/>
     <use xlink:href="#ArialMT-32" transform="translate(486.328125 0)"/>
     <use xlink:href="#ArialMT-30" transform="translate(541.943359 0)"/>
     <use xlink:href="#ArialMT-32" transform="translate(597.558594 0)"/>
     <use xlink:href="#ArialMT-39" transform="translate(653.173828 0)"/>
    </g>
    <!-- value = [2004, 25] -->
    <g style="fill: #262626" transform="translate(597.020313 577.448125) scale(0.2 -0.2)">
     <defs>
      <path id="ArialMT-34" d="M 2069 0 
L 2069 1097 
L 81 1097 
L 81 1613 
L 2172 4581 
L 2631 4581 
L 2631 1613 
L 3250 1613 
L 3250 1097 
L 2631 1097 
L 2631 0 
L 2069 0 
z
M 2069 1613 
L 2069 3678 
L 634 1613 
L 2069 1613 
z
" transform="scale(0.015625)"/>
     </defs>
     <use xlink:href="#ArialMT-76"/>
     <use xlink:href="#ArialMT-61" transform="translate(50 0)"/>
     <use xlink:href="#ArialMT-6c" transform="translate(105.615234 0)"/>
     <use xlink:href="#ArialMT-75" transform="translate(127.832031 0)"/>
     <use xlink:href="#ArialMT-65" transform="translate(183.447266 0)"/>
     <use xlink:href="#ArialMT-20" transform="translate(239.0625 0)"/>
     <use xlink:href="#ArialMT-3d" transform="translate(266.845703 0)"/>
     <use xlink:href="#ArialMT-20" transform="translate(325.244141 0)"/>
     <use xlink:href="#ArialMT-5b" transform="translate(353.027344 0)"/>
     <use xlink:href="#ArialMT-32" transform="translate(380.810547 0)"/>
     <use xlink:href="#ArialMT-30" transform="translate(436.425781 0)"/>
     <use xlink:href="#ArialMT-30" transform="translate(492.041016 0)"/>
     <use xlink:href="#ArialMT-34" transform="translate(547.65625 0)"/>
     <use xlink:href="#ArialMT-2c" transform="translate(603.271484 0)"/>
     <use xlink:href="#ArialMT-20" transform="translate(631.054688 0)"/>
     <use xlink:href="#ArialMT-32" transform="translate(658.837891 0)"/>
     <use xlink:href="#ArialMT-35" transform="translate(714.453125 0)"/>
     <use xlink:href="#ArialMT-5d" transform="translate(770.068359 0)"/>
    </g>
    <!-- class = Alive -->
    <g style="fill: #262626" transform="translate(621.495313 598.601875) scale(0.2 -0.2)">
     <use xlink:href="#ArialMT-63"/>
     <use xlink:href="#ArialMT-6c" transform="translate(50 0)"/>
     <use xlink:href="#ArialMT-61" transform="translate(72.216797 0)"/>
     <use xlink:href="#ArialMT-73" transform="translate(127.832031 0)"/>
     <use xlink:href="#ArialMT-73" transform="translate(177.832031 0)"/>
     <use xlink:href="#ArialMT-20" transform="translate(227.832031 0)"/>
     <use xlink:href="#ArialMT-3d" transform="translate(255.615234 0)"/>
     <use xlink:href="#ArialMT-20" transform="translate(314.013672 0)"/>
     <use xlink:href="#ArialMT-41" transform="translate(336.296875 0)"/>
     <use xlink:href="#ArialMT-6c" transform="translate(402.996094 0)"/>
     <use xlink:href="#ArialMT-69" transform="translate(425.212891 0)"/>
     <use xlink:href="#ArialMT-76" transform="translate(447.429688 0)"/>
     <use xlink:href="#ArialMT-65" transform="translate(497.429688 0)"/>
    </g>
   </g>
   <g id="patch_20">
    <path d="M 1073.464684 512.185557 
Q 987.760217 427.034022 901.42125 341.252081 
" style="fill: none; stroke: #262626; stroke-width: 0.8; stroke-linecap: round"/>
    <path d="M 1070.608812 503.709474 
L 1073.464684 512.185557 
L 1064.970294 509.384605 
" style="fill: none; stroke: #262626; stroke-width: 0.8; stroke-linecap: round"/>
   </g>
   <g id="text_10">
    <g id="patch_21">
     <path d="M 1039.820312 608.576875 
L 1206.579688 608.576875 
Q 1212.579688 608.576875 1212.579688 602.576875 
L 1212.579688 520.623125 
Q 1212.579688 514.623125 1206.579688 514.623125 
L 1039.820312 514.623125 
Q 1033.820312 514.623125 1033.820312 520.623125 
L 1033.820312 602.576875 
Q 1033.820312 608.576875 1039.820312 608.576875 
z
" style="fill: #e88f4f; stroke: #ffffff; stroke-width: 0.8; stroke-linejoin: miter"/>
    </g>
    <!-- max_temp &lt;= 33.5 -->
    <g style="fill: #262626" transform="translate(1039.820312 534.998125) scale(0.2 -0.2)">
     <defs>
      <path id="ArialMT-78" d="M 47 0 
L 1259 1725 
L 138 3319 
L 841 3319 
L 1350 2541 
Q 1494 2319 1581 2169 
Q 1719 2375 1834 2534 
L 2394 3319 
L 3066 3319 
L 1919 1756 
L 3153 0 
L 2463 0 
L 1781 1031 
L 1600 1309 
L 728 0 
L 47 0 
z
" transform="scale(0.015625)"/>
      <path id="ArialMT-5f" d="M -97 -1272 
L -97 -866 
L 3631 -866 
L 3631 -1272 
L -97 -1272 
z
" transform="scale(0.015625)"/>
     </defs>
     <use xlink:href="#ArialMT-6d"/>
     <use xlink:href="#ArialMT-61" transform="translate(83.300781 0)"/>
     <use xlink:href="#ArialMT-78" transform="translate(138.916016 0)"/>
     <use xlink:href="#ArialMT-5f" transform="translate(188.916016 0)"/>
     <use xlink:href="#ArialMT-74" transform="translate(244.53125 0)"/>
     <use xlink:href="#ArialMT-65" transform="translate(272.314453 0)"/>
     <use xlink:href="#ArialMT-6d" transform="translate(327.929688 0)"/>
     <use xlink:href="#ArialMT-70" transform="translate(411.230469 0)"/>
     <use xlink:href="#ArialMT-20" transform="translate(466.845703 0)"/>
     <use xlink:href="#ArialMT-3c" transform="translate(494.628906 0)"/>
     <use xlink:href="#ArialMT-3d" transform="translate(553.027344 0)"/>
     <use xlink:href="#ArialMT-20" transform="translate(611.425781 0)"/>
     <use xlink:href="#ArialMT-33" transform="translate(639.208984 0)"/>
     <use xlink:href="#ArialMT-33" transform="translate(694.824219 0)"/>
     <use xlink:href="#ArialMT-2e" transform="translate(750.439453 0)"/>
     <use xlink:href="#ArialMT-35" transform="translate(778.222656 0)"/>
    </g>
    <!-- samples = 40 -->
    <g style="fill: #262626" transform="translate(1063.446875 556.223125) scale(0.2 -0.2)">
     <use xlink:href="#ArialMT-73"/>
     <use xlink:href="#ArialMT-61" transform="translate(50 0)"/>
     <use xlink:href="#ArialMT-6d" transform="translate(105.615234 0)"/>
     <use xlink:href="#ArialMT-70" transform="translate(188.916016 0)"/>
     <use xlink:href="#ArialMT-6c" transform="translate(244.53125 0)"/>
     <use xlink:href="#ArialMT-65" transform="translate(266.748047 0)"/>
     <use xlink:href="#ArialMT-73" transform="translate(322.363281 0)"/>
     <use xlink:href="#ArialMT-20" transform="translate(372.363281 0)"/>
     <use xlink:href="#ArialMT-3d" transform="translate(400.146484 0)"/>
     <use xlink:href="#ArialMT-20" transform="translate(458.544922 0)"/>
     <use xlink:href="#ArialMT-34" transform="translate(486.328125 0)"/>
     <use xlink:href="#ArialMT-30" transform="translate(541.943359 0)"/>
    </g>
    <!-- value = [36, 4] -->
    <g style="fill: #262626" transform="translate(1060.103125 577.448125) scale(0.2 -0.2)">
     <defs>
      <path id="ArialMT-36" d="M 3184 3459 
L 2625 3416 
Q 2550 3747 2413 3897 
Q 2184 4138 1850 4138 
Q 1581 4138 1378 3988 
Q 1113 3794 959 3422 
Q 806 3050 800 2363 
Q 1003 2672 1297 2822 
Q 1591 2972 1913 2972 
Q 2475 2972 2870 2558 
Q 3266 2144 3266 1488 
Q 3266 1056 3080 686 
Q 2894 316 2569 119 
Q 2244 -78 1831 -78 
Q 1128 -78 684 439 
Q 241 956 241 2144 
Q 241 3472 731 4075 
Q 1159 4600 1884 4600 
Q 2425 4600 2770 4297 
Q 3116 3994 3184 3459 
z
M 888 1484 
Q 888 1194 1011 928 
Q 1134 663 1356 523 
Q 1578 384 1822 384 
Q 2178 384 2434 671 
Q 2691 959 2691 1453 
Q 2691 1928 2437 2201 
Q 2184 2475 1800 2475 
Q 1419 2475 1153 2201 
Q 888 1928 888 1484 
z
" transform="scale(0.015625)"/>
     </defs>
     <use xlink:href="#ArialMT-76"/>
     <use xlink:href="#ArialMT-61" transform="translate(50 0)"/>
     <use xlink:href="#ArialMT-6c" transform="translate(105.615234 0)"/>
     <use xlink:href="#ArialMT-75" transform="translate(127.832031 0)"/>
     <use xlink:href="#ArialMT-65" transform="translate(183.447266 0)"/>
     <use xlink:href="#ArialMT-20" transform="translate(239.0625 0)"/>
     <use xlink:href="#ArialMT-3d" transform="translate(266.845703 0)"/>
     <use xlink:href="#ArialMT-20" transform="translate(325.244141 0)"/>
     <use xlink:href="#ArialMT-5b" transform="translate(353.027344 0)"/>
     <use xlink:href="#ArialMT-33" transform="translate(380.810547 0)"/>
     <use xlink:href="#ArialMT-36" transform="translate(436.425781 0)"/>
     <use xlink:href="#ArialMT-2c" transform="translate(492.041016 0)"/>
     <use xlink:href="#ArialMT-20" transform="translate(519.824219 0)"/>
     <use xlink:href="#ArialMT-34" transform="translate(547.607422 0)"/>
     <use xlink:href="#ArialMT-5d" transform="translate(603.222656 0)"/>
    </g>
    <!-- class = Alive -->
    <g style="fill: #262626" transform="translate(1067.895313 598.601875) scale(0.2 -0.2)">
     <use xlink:href="#ArialMT-63"/>
     <use xlink:href="#ArialMT-6c" transform="translate(50 0)"/>
     <use xlink:href="#ArialMT-61" transform="translate(72.216797 0)"/>
     <use xlink:href="#ArialMT-73" transform="translate(127.832031 0)"/>
     <use xlink:href="#ArialMT-73" transform="translate(177.832031 0)"/>
     <use xlink:href="#ArialMT-20" transform="translate(227.832031 0)"/>
     <use xlink:href="#ArialMT-3d" transform="translate(255.615234 0)"/>
     <use xlink:href="#ArialMT-20" transform="translate(314.013672 0)"/>
     <use xlink:href="#ArialMT-41" transform="translate(336.296875 0)"/>
     <use xlink:href="#ArialMT-6c" transform="translate(402.996094 0)"/>
     <use xlink:href="#ArialMT-69" transform="translate(425.212891 0)"/>
     <use xlink:href="#ArialMT-76" transform="translate(447.429688 0)"/>
     <use xlink:href="#ArialMT-65" transform="translate(497.429688 0)"/>
    </g>
   </g>
   <g id="patch_22">
    <path d="M 403.870767 290.66272 
Q 511.30253 205.271795 619.434484 119.324333 
" style="fill: none; stroke: #262626; stroke-width: 0.8; stroke-linecap: round"/>
    <path d="M 412.622367 288.816237 
L 403.870767 290.66272 
L 407.644541 282.55355 
" style="fill: none; stroke: #262626; stroke-width: 0.8; stroke-linecap: round"/>
   </g>
   <g id="text_11">
    <g id="patch_23">
     <path d="M 258.620313 386.816875 
L 425.379688 386.816875 
Q 431.379688 386.816875 431.379688 380.816875 
L 431.379688 298.863125 
Q 431.379688 292.863125 425.379688 292.863125 
L 258.620313 292.863125 
Q 252.620313 292.863125 252.620313 298.863125 
L 252.620313 380.816875 
Q 252.620313 386.816875 258.620313 386.816875 
z
" style="fill: #53aae8; stroke: #ffffff; stroke-width: 0.8; stroke-linejoin: miter"/>
    </g>
    <!-- max_temp &lt;= 21.5 -->
    <g style="fill: #262626" transform="translate(258.620313 313.238125) scale(0.2 -0.2)">
     <use xlink:href="#ArialMT-6d"/>
     <use xlink:href="#ArialMT-61" transform="translate(83.300781 0)"/>
     <use xlink:href="#ArialMT-78" transform="translate(138.916016 0)"/>
     <use xlink:href="#ArialMT-5f" transform="translate(188.916016 0)"/>
     <use xlink:href="#ArialMT-74" transform="translate(244.53125 0)"/>
     <use xlink:href="#ArialMT-65" transform="translate(272.314453 0)"/>
     <use xlink:href="#ArialMT-6d" transform="translate(327.929688 0)"/>
     <use xlink:href="#ArialMT-70" transform="translate(411.230469 0)"/>
     <use xlink:href="#ArialMT-20" transform="translate(466.845703 0)"/>
     <use xlink:href="#ArialMT-3c" transform="translate(494.628906 0)"/>
     <use xlink:href="#ArialMT-3d" transform="translate(553.027344 0)"/>
     <use xlink:href="#ArialMT-20" transform="translate(611.425781 0)"/>
     <use xlink:href="#ArialMT-32" transform="translate(639.208984 0)"/>
     <use xlink:href="#ArialMT-31" transform="translate(694.824219 0)"/>
     <use xlink:href="#ArialMT-2e" transform="translate(750.439453 0)"/>
     <use xlink:href="#ArialMT-35" transform="translate(778.222656 0)"/>
    </g>
    <!-- samples = 26 -->
    <g style="fill: #262626" transform="translate(282.246875 334.463125) scale(0.2 -0.2)">
     <use xlink:href="#ArialMT-73"/>
     <use xlink:href="#ArialMT-61" transform="translate(50 0)"/>
     <use xlink:href="#ArialMT-6d" transform="translate(105.615234 0)"/>
     <use xlink:href="#ArialMT-70" transform="translate(188.916016 0)"/>
     <use xlink:href="#ArialMT-6c" transform="translate(244.53125 0)"/>
     <use xlink:href="#ArialMT-65" transform="translate(266.748047 0)"/>
     <use xlink:href="#ArialMT-73" transform="translate(322.363281 0)"/>
     <use xlink:href="#ArialMT-20" transform="translate(372.363281 0)"/>
     <use xlink:href="#ArialMT-3d" transform="translate(400.146484 0)"/>
     <use xlink:href="#ArialMT-20" transform="translate(458.544922 0)"/>
     <use xlink:href="#ArialMT-32" transform="translate(486.328125 0)"/>
     <use xlink:href="#ArialMT-36" transform="translate(541.943359 0)"/>
    </g>
    <!-- value = [3, 23] -->
    <g style="fill: #262626" transform="translate(278.903125 355.688125) scale(0.2 -0.2)">
     <use xlink:href="#ArialMT-76"/>
     <use xlink:href="#ArialMT-61" transform="translate(50 0)"/>
     <use xlink:href="#ArialMT-6c" transform="translate(105.615234 0)"/>
     <use xlink:href="#ArialMT-75" transform="translate(127.832031 0)"/>
     <use xlink:href="#ArialMT-65" transform="translate(183.447266 0)"/>
     <use xlink:href="#ArialMT-20" transform="translate(239.0625 0)"/>
     <use xlink:href="#ArialMT-3d" transform="translate(266.845703 0)"/>
     <use xlink:href="#ArialMT-20" transform="translate(325.244141 0)"/>
     <use xlink:href="#ArialMT-5b" transform="translate(353.027344 0)"/>
     <use xlink:href="#ArialMT-33" transform="translate(380.810547 0)"/>
     <use xlink:href="#ArialMT-2c" transform="translate(436.425781 0)"/>
     <use xlink:href="#ArialMT-20" transform="translate(464.208984 0)"/>
     <use xlink:href="#ArialMT-32" transform="translate(491.992188 0)"/>
     <use xlink:href="#ArialMT-33" transform="translate(547.607422 0)"/>
     <use xlink:href="#ArialMT-5d" transform="translate(603.222656 0)"/>
    </g>
    <!-- class = Dead -->
    <g style="fill: #262626" transform="translate(283.915625 376.841875) scale(0.2 -0.2)">
     <use xlink:href="#ArialMT-63"/>
     <use xlink:href="#ArialMT-6c" transform="translate(50 0)"/>
     <use xlink:href="#ArialMT-61" transform="translate(72.216797 0)"/>
     <use xlink:href="#ArialMT-73" transform="translate(127.832031 0)"/>
     <use xlink:href="#ArialMT-73" transform="translate(177.832031 0)"/>
     <use xlink:href="#ArialMT-20" transform="translate(227.832031 0)"/>
     <use xlink:href="#ArialMT-3d" transform="translate(255.615234 0)"/>
     <use xlink:href="#ArialMT-20" transform="translate(314.013672 0)"/>
     <use xlink:href="#ArialMT-44" transform="translate(341.796875 0)"/>
     <use xlink:href="#ArialMT-65" transform="translate(414.013672 0)"/>
     <use xlink:href="#ArialMT-61" transform="translate(469.628906 0)"/>
     <use xlink:href="#ArialMT-64" transform="translate(525.244141 0)"/>
    </g>
   </g>
   <g id="text_12">
    <!-- True   -->
    <g style="fill: #262626" transform="translate(430.01875 228.96) scale(0.2 -0.2)">
     <defs>
      <path id="ArialMT-54" d="M 1659 0 
L 1659 4041 
L 150 4041 
L 150 4581 
L 3781 4581 
L 3781 4041 
L 2266 4041 
L 2266 0 
L 1659 0 
z
" transform="scale(0.015625)"/>
      <path id="ArialMT-72" d="M 416 0 
L 416 3319 
L 922 3319 
L 922 2816 
Q 1116 3169 1280 3281 
Q 1444 3394 1641 3394 
Q 1925 3394 2219 3213 
L 2025 2691 
Q 1819 2813 1613 2813 
Q 1428 2813 1281 2702 
Q 1134 2591 1072 2394 
Q 978 2094 978 1738 
L 978 0 
L 416 0 
z
" transform="scale(0.015625)"/>
     </defs>
     <use xlink:href="#ArialMT-54"/>
     <use xlink:href="#ArialMT-72" transform="translate(57.333984 0)"/>
     <use xlink:href="#ArialMT-75" transform="translate(90.634766 0)"/>
     <use xlink:href="#ArialMT-65" transform="translate(146.25 0)"/>
     <use xlink:href="#ArialMT-20" transform="translate(201.865234 0)"/>
     <use xlink:href="#ArialMT-20" transform="translate(229.648438 0)"/>
    </g>
   </g>
   <g id="patch_24">
    <path d="M 838.129233 290.66272 
Q 730.69747 205.271795 622.565516 119.324333 
" style="fill: none; stroke: #262626; stroke-width: 0.8; stroke-linecap: round"/>
    <path d="M 834.355459 282.55355 
L 838.129233 290.66272 
L 829.377633 288.816237 
" style="fill: none; stroke: #262626; stroke-width: 0.8; stroke-linecap: round"/>
   </g>
   <g id="text_13">
    <g id="patch_25">
     <path d="M 819.398438 386.816875 
L 980.601562 386.816875 
Q 986.601562 386.816875 986.601562 380.816875 
L 986.601562 298.863125 
Q 986.601562 292.863125 980.601562 292.863125 
L 819.398438 292.863125 
Q 813.398438 292.863125 813.398438 298.863125 
L 813.398438 380.816875 
Q 813.398438 386.816875 819.398438 386.816875 
z
" style="fill: #e5833c; stroke: #ffffff; stroke-width: 0.8; stroke-linejoin: miter"/>
    </g>
    <!-- min_temp &lt;= 32.5 -->
    <g style="fill: #262626" transform="translate(819.398438 313.238125) scale(0.2 -0.2)">
     <defs>
      <path id="ArialMT-6e" d="M 422 0 
L 422 3319 
L 928 3319 
L 928 2847 
Q 1294 3394 1984 3394 
Q 2284 3394 2536 3286 
Q 2788 3178 2913 3003 
Q 3038 2828 3088 2588 
Q 3119 2431 3119 2041 
L 3119 0 
L 2556 0 
L 2556 2019 
Q 2556 2363 2490 2533 
Q 2425 2703 2258 2804 
Q 2091 2906 1866 2906 
Q 1506 2906 1245 2678 
Q 984 2450 984 1813 
L 984 0 
L 422 0 
z
" transform="scale(0.015625)"/>
     </defs>
     <use xlink:href="#ArialMT-6d"/>
     <use xlink:href="#ArialMT-69" transform="translate(83.300781 0)"/>
     <use xlink:href="#ArialMT-6e" transform="translate(105.517578 0)"/>
     <use xlink:href="#ArialMT-5f" transform="translate(161.132812 0)"/>
     <use xlink:href="#ArialMT-74" transform="translate(216.748047 0)"/>
     <use xlink:href="#ArialMT-65" transform="translate(244.53125 0)"/>
     <use xlink:href="#ArialMT-6d" transform="translate(300.146484 0)"/>
     <use xlink:href="#ArialMT-70" transform="translate(383.447266 0)"/>
     <use xlink:href="#ArialMT-20" transform="translate(439.0625 0)"/>
     <use xlink:href="#ArialMT-3c" transform="translate(466.845703 0)"/>
     <use xlink:href="#ArialMT-3d" transform="translate(525.244141 0)"/>
     <use xlink:href="#ArialMT-20" transform="translate(583.642578 0)"/>
     <use xlink:href="#ArialMT-33" transform="translate(611.425781 0)"/>
     <use xlink:href="#ArialMT-32" transform="translate(667.041016 0)"/>
     <use xlink:href="#ArialMT-2e" transform="translate(722.65625 0)"/>
     <use xlink:href="#ArialMT-35" transform="translate(750.439453 0)"/>
    </g>
    <!-- samples = 2069 -->
    <g style="fill: #262626" transform="translate(829.125 334.463125) scale(0.2 -0.2)">
     <use xlink:href="#ArialMT-73"/>
     <use xlink:href="#ArialMT-61" transform="translate(50 0)"/>
     <use xlink:href="#ArialMT-6d" transform="translate(105.615234 0)"/>
     <use xlink:href="#ArialMT-70" transform="translate(188.916016 0)"/>
     <use xlink:href="#ArialMT-6c" transform="translate(244.53125 0)"/>
     <use xlink:href="#ArialMT-65" transform="translate(266.748047 0)"/>
     <use xlink:href="#ArialMT-73" transform="translate(322.363281 0)"/>
     <use xlink:href="#ArialMT-20" transform="translate(372.363281 0)"/>
     <use xlink:href="#ArialMT-3d" transform="translate(400.146484 0)"/>
     <use xlink:href="#ArialMT-20" transform="translate(458.544922 0)"/>
     <use xlink:href="#ArialMT-32" transform="translate(486.328125 0)"/>
     <use xlink:href="#ArialMT-30" transform="translate(541.943359 0)"/>
     <use xlink:href="#ArialMT-36" transform="translate(597.558594 0)"/>
     <use xlink:href="#ArialMT-39" transform="translate(653.173828 0)"/>
    </g>
    <!-- value = [2040, 29] -->
    <g style="fill: #262626" transform="translate(820.220312 355.688125) scale(0.2 -0.2)">
     <use xlink:href="#ArialMT-76"/>
     <use xlink:href="#ArialMT-61" transform="translate(50 0)"/>
     <use xlink:href="#ArialMT-6c" transform="translate(105.615234 0)"/>
     <use xlink:href="#ArialMT-75" transform="translate(127.832031 0)"/>
     <use xlink:href="#ArialMT-65" transform="translate(183.447266 0)"/>
     <use xlink:href="#ArialMT-20" transform="translate(239.0625 0)"/>
     <use xlink:href="#ArialMT-3d" transform="translate(266.845703 0)"/>
     <use xlink:href="#ArialMT-20" transform="translate(325.244141 0)"/>
     <use xlink:href="#ArialMT-5b" transform="translate(353.027344 0)"/>
     <use xlink:href="#ArialMT-32" transform="translate(380.810547 0)"/>
     <use xlink:href="#ArialMT-30" transform="translate(436.425781 0)"/>
     <use xlink:href="#ArialMT-34" transform="translate(492.041016 0)"/>
     <use xlink:href="#ArialMT-30" transform="translate(547.65625 0)"/>
     <use xlink:href="#ArialMT-2c" transform="translate(603.271484 0)"/>
     <use xlink:href="#ArialMT-20" transform="translate(631.054688 0)"/>
     <use xlink:href="#ArialMT-32" transform="translate(658.837891 0)"/>
     <use xlink:href="#ArialMT-39" transform="translate(714.453125 0)"/>
     <use xlink:href="#ArialMT-5d" transform="translate(770.068359 0)"/>
    </g>
    <!-- class = Alive -->
    <g style="fill: #262626" transform="translate(844.695312 376.841875) scale(0.2 -0.2)">
     <use xlink:href="#ArialMT-63"/>
     <use xlink:href="#ArialMT-6c" transform="translate(50 0)"/>
     <use xlink:href="#ArialMT-61" transform="translate(72.216797 0)"/>
     <use xlink:href="#ArialMT-73" transform="translate(127.832031 0)"/>
     <use xlink:href="#ArialMT-73" transform="translate(177.832031 0)"/>
     <use xlink:href="#ArialMT-20" transform="translate(227.832031 0)"/>
     <use xlink:href="#ArialMT-3d" transform="translate(255.615234 0)"/>
     <use xlink:href="#ArialMT-20" transform="translate(314.013672 0)"/>
     <use xlink:href="#ArialMT-41" transform="translate(336.296875 0)"/>
     <use xlink:href="#ArialMT-6c" transform="translate(402.996094 0)"/>
     <use xlink:href="#ArialMT-69" transform="translate(425.212891 0)"/>
     <use xlink:href="#ArialMT-76" transform="translate(447.429688 0)"/>
     <use xlink:href="#ArialMT-65" transform="translate(497.429688 0)"/>
    </g>
   </g>
   <g id="text_14">
    <!--   False -->
    <g style="fill: #262626" transform="translate(760.5 228.96) scale(0.2 -0.2)">
     <defs>
      <path id="ArialMT-46" d="M 525 0 
L 525 4581 
L 3616 4581 
L 3616 4041 
L 1131 4041 
L 1131 2622 
L 3281 2622 
L 3281 2081 
L 1131 2081 
L 1131 0 
L 525 0 
z
" transform="scale(0.015625)"/>
     </defs>
     <use xlink:href="#ArialMT-20"/>
     <use xlink:href="#ArialMT-20" transform="translate(27.783203 0)"/>
     <use xlink:href="#ArialMT-46" transform="translate(55.566406 0)"/>
     <use xlink:href="#ArialMT-61" transform="translate(116.650391 0)"/>
     <use xlink:href="#ArialMT-6c" transform="translate(172.265625 0)"/>
     <use xlink:href="#ArialMT-73" transform="translate(194.482422 0)"/>
     <use xlink:href="#ArialMT-65" transform="translate(244.482422 0)"/>
    </g>
   </g>
   <g id="patch_26">
    <path d="M 621 118.08 
Q 621 118.08 621 118.08 
" style="fill: none; stroke: #262626; stroke-width: 0.8; stroke-linecap: round"/>
   </g>
   <g id="text_15">
    <g id="patch_27">
     <path d="M 541.220312 165.056875 
L 700.779688 165.056875 
Q 706.779688 165.056875 706.779688 159.056875 
L 706.779688 77.103125 
Q 706.779688 71.103125 700.779688 71.103125 
L 541.220312 71.103125 
Q 535.220312 71.103125 535.220312 77.103125 
L 535.220312 159.056875 
Q 535.220312 165.056875 541.220312 165.056875 
z
" style="fill: #e6843e; stroke: #ffffff; stroke-width: 0.8; stroke-linejoin: miter"/>
    </g>
    <!-- min_sal &lt;= 19.5 -->
    <g style="fill: #262626" transform="translate(549.845312 91.478125) scale(0.2 -0.2)">
     <use xlink:href="#ArialMT-6d"/>
     <use xlink:href="#ArialMT-69" transform="translate(83.300781 0)"/>
     <use xlink:href="#ArialMT-6e" transform="translate(105.517578 0)"/>
     <use xlink:href="#ArialMT-5f" transform="translate(161.132812 0)"/>
     <use xlink:href="#ArialMT-73" transform="translate(216.748047 0)"/>
     <use xlink:href="#ArialMT-61" transform="translate(266.748047 0)"/>
     <use xlink:href="#ArialMT-6c" transform="translate(322.363281 0)"/>
     <use xlink:href="#ArialMT-20" transform="translate(344.580078 0)"/>
     <use xlink:href="#ArialMT-3c" transform="translate(372.363281 0)"/>
     <use xlink:href="#ArialMT-3d" transform="translate(430.761719 0)"/>
     <use xlink:href="#ArialMT-20" transform="translate(489.160156 0)"/>
     <use xlink:href="#ArialMT-31" transform="translate(516.943359 0)"/>
     <use xlink:href="#ArialMT-39" transform="translate(572.558594 0)"/>
     <use xlink:href="#ArialMT-2e" transform="translate(628.173828 0)"/>
     <use xlink:href="#ArialMT-35" transform="translate(655.957031 0)"/>
    </g>
    <!-- samples = 2095 -->
    <g style="fill: #262626" transform="translate(550.125 112.703125) scale(0.2 -0.2)">
     <use xlink:href="#ArialMT-73"/>
     <use xlink:href="#ArialMT-61" transform="translate(50 0)"/>
     <use xlink:href="#ArialMT-6d" transform="translate(105.615234 0)"/>
     <use xlink:href="#ArialMT-70" transform="translate(188.916016 0)"/>
     <use xlink:href="#ArialMT-6c" transform="translate(244.53125 0)"/>
     <use xlink:href="#ArialMT-65" transform="translate(266.748047 0)"/>
     <use xlink:href="#ArialMT-73" transform="translate(322.363281 0)"/>
     <use xlink:href="#ArialMT-20" transform="translate(372.363281 0)"/>
     <use xlink:href="#ArialMT-3d" transform="translate(400.146484 0)"/>
     <use xlink:href="#ArialMT-20" transform="translate(458.544922 0)"/>
     <use xlink:href="#ArialMT-32" transform="translate(486.328125 0)"/>
     <use xlink:href="#ArialMT-30" transform="translate(541.943359 0)"/>
     <use xlink:href="#ArialMT-39" transform="translate(597.558594 0)"/>
     <use xlink:href="#ArialMT-35" transform="translate(653.173828 0)"/>
    </g>
    <!-- value = [2043, 52] -->
    <g style="fill: #262626" transform="translate(541.220312 133.928125) scale(0.2 -0.2)">
     <use xlink:href="#ArialMT-76"/>
     <use xlink:href="#ArialMT-61" transform="translate(50 0)"/>
     <use xlink:href="#ArialMT-6c" transform="translate(105.615234 0)"/>
     <use xlink:href="#ArialMT-75" transform="translate(127.832031 0)"/>
     <use xlink:href="#ArialMT-65" transform="translate(183.447266 0)"/>
     <use xlink:href="#ArialMT-20" transform="translate(239.0625 0)"/>
     <use xlink:href="#ArialMT-3d" transform="translate(266.845703 0)"/>
     <use xlink:href="#ArialMT-20" transform="translate(325.244141 0)"/>
     <use xlink:href="#ArialMT-5b" transform="translate(353.027344 0)"/>
     <use xlink:href="#ArialMT-32" transform="translate(380.810547 0)"/>
     <use xlink:href="#ArialMT-30" transform="translate(436.425781 0)"/>
     <use xlink:href="#ArialMT-34" transform="translate(492.041016 0)"/>
     <use xlink:href="#ArialMT-33" transform="translate(547.65625 0)"/>
     <use xlink:href="#ArialMT-2c" transform="translate(603.271484 0)"/>
     <use xlink:href="#ArialMT-20" transform="translate(631.054688 0)"/>
     <use xlink:href="#ArialMT-35" transform="translate(658.837891 0)"/>
     <use xlink:href="#ArialMT-32" transform="translate(714.453125 0)"/>
     <use xlink:href="#ArialMT-5d" transform="translate(770.068359 0)"/>
    </g>
    <!-- class = Alive -->
    <g style="fill: #262626" transform="translate(565.695312 155.081875) scale(0.2 -0.2)">
     <use xlink:href="#ArialMT-63"/>
     <use xlink:href="#ArialMT-6c" transform="translate(50 0)"/>
     <use xlink:href="#ArialMT-61" transform="translate(72.216797 0)"/>
     <use xlink:href="#ArialMT-73" transform="translate(127.832031 0)"/>
     <use xlink:href="#ArialMT-73" transform="translate(177.832031 0)"/>
     <use xlink:href="#ArialMT-20" transform="translate(227.832031 0)"/>
     <use xlink:href="#ArialMT-3d" transform="translate(255.615234 0)"/>
     <use xlink:href="#ArialMT-20" transform="translate(314.013672 0)"/>
     <use xlink:href="#ArialMT-41" transform="translate(336.296875 0)"/>
     <use xlink:href="#ArialMT-6c" transform="translate(402.996094 0)"/>
     <use xlink:href="#ArialMT-69" transform="translate(425.212891 0)"/>
     <use xlink:href="#ArialMT-76" transform="translate(447.429688 0)"/>
     <use xlink:href="#ArialMT-65" transform="translate(497.429688 0)"/>
    </g>
   </g>
  </g>
 </g>
</svg>
