<?xml version="1.0" encoding="utf-8" standalone="no"?>
<!DOCTYPE svg PUBLIC "-//W3C//DTD SVG 1.1//EN"
  "http://www.w3.org/Graphics/SVG/1.1/DTD/svg11.dtd">
<svg xmlns:xlink="http://www.w3.org/1999/xlink" width="1728pt" height="1152pt" viewBox="0 0 1728 1152" xmlns="http://www.w3.org/2000/svg" version="1.1">
 <metadata>
  <rdf:RDF xmlns:dc="http://purl.org/dc/elements/1.1/" xmlns:cc="http://creativecommons.org/ns#" xmlns:rdf="http://www.w3.org/1999/02/22-rdf-syntax-ns#">
   <cc:Work>
    <dc:type rdf:resource="http://purl.org/dc/dcmitype/StillImage"/>
    <dc:date>2026-04-27T12:01:05.625689</dc:date>
    <dc:format>image/svg+xml</dc:format>
    <dc:creator>
     <cc:Agent>
      <dc:title>Matplotlib v3.10.1, https://matplotlib.org/</dc:title>
     </cc:Agent>
    </dc:creator>
   </cc:Work>
  </rdf:RDF>
 </metadata>
 <defs>
  <style type="text/css">*{stroke-linejoin: round; stroke-linecap: butt}</style>
 </defs>
 <g id="figure_1">
  <g id="patch_1">
   <path d="M 0 1152 
L 1728 1152 
L 1728 0 
L 0 0 
z
" style="fill: #ffffff"/>
  </g>
  <g id="axes_1">
   <g id="patch_2">
    <path d="M 348.412606 873.043337 
Q 393.105773 784.23369 438.301531 694.425344 
" style="fill: none; stroke: #000000; stroke-linecap: round"/>
    <path d="M 355.581921 867.695353 
L 348.412606 873.043337 
L 348.435808 864.099095 
" style="fill: none; stroke: #000000; stroke-linecap: round"/>
   </g>
   <g id="text_1">
    <g id="patch_3">
     <path d="M 297.55 952.47375 
L 357.65 952.47375 
Q 363.65 952.47375 363.65 946.47375 
L 363.65 882.32625 
Q 363.65 876.32625 357.65 876.32625 
L 297.55 876.32625 
Q 291.55 876.32625 291.55 882.32625 
L 291.55 946.47375 
Q 291.55 952.47375 297.55 952.47375 
z
" style="fill: #808080; stroke: #000000; stroke-linejoin: miter"/>
    </g>
    <!--  -->
    <g transform="translate(327.6 897.523125) scale(0.2 -0.2)"/>
    <!--   (...)   -->
    <g transform="translate(297.55 919.91875) scale(0.2 -0.2)">
     <defs>
      <path id="DejaVuSans-20" transform="scale(0.015625)"/>
      <path id="DejaVuSans-28" d="M 1984 4856 
Q 1566 4138 1362 3434 
Q 1159 2731 1159 2009 
Q 1159 1288 1364 580 
Q 1569 -128 1984 -844 
L 1484 -844 
Q 1016 -109 783 600 
Q 550 1309 550 2009 
Q 550 2706 781 3412 
Q 1013 4119 1484 4856 
L 1984 4856 
z
" transform="scale(0.015625)"/>
      <path id="DejaVuSans-2e" d="M 684 794 
L 1344 794 
L 1344 0 
L 684 0 
L 684 794 
z
" transform="scale(0.015625)"/>
      <path id="DejaVuSans-29" d="M 513 4856 
L 1013 4856 
Q 1481 4119 1714 3412 
Q 1947 2706 1947 2009 
Q 1947 1309 1714 600 
Q 1481 -109 1013 -844 
L 513 -844 
Q 928 -128 1133 580 
Q 1338 1288 1338 2009 
Q 1338 2731 1133 3434 
Q 928 4138 513 4856 
z
" transform="scale(0.015625)"/>
     </defs>
     <use xlink:href="#DejaVuSans-20"/>
     <use xlink:href="#DejaVuSans-20" transform="translate(31.787109 0)"/>
     <use xlink:href="#DejaVuSans-28" transform="translate(63.574219 0)"/>
     <use xlink:href="#DejaVuSans-2e" transform="translate(102.587891 0)"/>
     <use xlink:href="#DejaVuSans-2e" transform="translate(134.375 0)"/>
     <use xlink:href="#DejaVuSans-2e" transform="translate(166.162109 0)"/>
     <use xlink:href="#DejaVuSans-29" transform="translate(197.949219 0)"/>
     <use xlink:href="#DejaVuSans-20" transform="translate(236.962891 0)"/>
     <use xlink:href="#DejaVuSans-20" transform="translate(268.75 0)"/>
    </g>
    <!--  -->
    <g transform="translate(327.6 942.314375) scale(0.2 -0.2)"/>
   </g>
   <g id="patch_4">
    <path d="M 529.987394 873.043337 
Q 485.294227 784.23369 440.098469 694.425344 
" style="fill: none; stroke: #000000; stroke-linecap: round"/>
    <path d="M 529.964192 864.099095 
L 529.987394 873.043337 
L 522.818079 867.695353 
" style="fill: none; stroke: #000000; stroke-linecap: round"/>
   </g>
   <g id="text_2">
    <g id="patch_5">
     <path d="M 520.75 952.47375 
L 580.85 952.47375 
Q 586.85 952.47375 586.85 946.47375 
L 586.85 882.32625 
Q 586.85 876.32625 580.85 876.32625 
L 520.75 876.32625 
Q 514.75 876.32625 514.75 882.32625 
L 514.75 946.47375 
Q 514.75 952.47375 520.75 952.47375 
z
" style="fill: #808080; stroke: #000000; stroke-linejoin: miter"/>
    </g>
    <!--  -->
    <g transform="translate(550.8 897.523125) scale(0.2 -0.2)"/>
    <!--   (...)   -->
    <g transform="translate(520.75 919.91875) scale(0.2 -0.2)">
     <use xlink:href="#DejaVuSans-20"/>
     <use xlink:href="#DejaVuSans-20" transform="translate(31.787109 0)"/>
     <use xlink:href="#DejaVuSans-28" transform="translate(63.574219 0)"/>
     <use xlink:href="#DejaVuSans-2e" transform="translate(102.587891 0)"/>
     <use xlink:href="#DejaVuSans-2e" transform="translate(134.375 0)"/>
     <use xlink:href="#DejaVuSans-2e" transform="translate(166.162109 0)"/>
     <use xlink:href="#DejaVuSans-29" transform="translate(197.949219 0)"/>
     <use xlink:href="#DejaVuSans-20" transform="translate(236.962891 0)"/>
     <use xlink:href="#DejaVuSans-20" transform="translate(268.75 0)"/>
    </g>
    <!--  -->
    <g transform="translate(550.8 942.314375) scale(0.2 -0.2)"/>
   </g>
   <g id="patch_6">
    <path d="M 794.812606 873.043337 
Q 839.505773 784.23369 884.701531 694.425344 
" style="fill: none; stroke: #000000; stroke-linecap: round"/>
    <path d="M 801.981921 867.695353 
L 794.812606 873.043337 
L 794.835808 864.099095 
" style="fill: none; stroke: #000000; stroke-linecap: round"/>
   </g>
   <g id="text_3">
    <g id="patch_7">
     <path d="M 743.95 952.47375 
L 804.05 952.47375 
Q 810.05 952.47375 810.05 946.47375 
L 810.05 882.32625 
Q 810.05 876.32625 804.05 876.32625 
L 743.95 876.32625 
Q 737.95 876.32625 737.95 882.32625 
L 737.95 946.47375 
Q 737.95 952.47375 743.95 952.47375 
z
" style="fill: #808080; stroke: #000000; stroke-linejoin: miter"/>
    </g>
    <!--  -->
    <g transform="translate(774 897.523125) scale(0.2 -0.2)"/>
    <!--   (...)   -->
    <g transform="translate(743.95 919.91875) scale(0.2 -0.2)">
     <use xlink:href="#DejaVuSans-20"/>
     <use xlink:href="#DejaVuSans-20" transform="translate(31.787109 0)"/>
     <use xlink:href="#DejaVuSans-28" transform="translate(63.574219 0)"/>
     <use xlink:href="#DejaVuSans-2e" transform="translate(102.587891 0)"/>
     <use xlink:href="#DejaVuSans-2e" transform="translate(134.375 0)"/>
     <use xlink:href="#DejaVuSans-2e" transform="translate(166.162109 0)"/>
     <use xlink:href="#DejaVuSans-29" transform="translate(197.949219 0)"/>
     <use xlink:href="#DejaVuSans-20" transform="translate(236.962891 0)"/>
     <use xlink:href="#DejaVuSans-20" transform="translate(268.75 0)"/>
    </g>
    <!--  -->
    <g transform="translate(774 942.314375) scale(0.2 -0.2)"/>
   </g>
   <g id="patch_8">
    <path d="M 976.387394 873.043337 
Q 931.694227 784.23369 886.498469 694.425344 
" style="fill: none; stroke: #000000; stroke-linecap: round"/>
    <path d="M 976.364192 864.099095 
L 976.387394 873.043337 
L 969.218079 867.695353 
" style="fill: none; stroke: #000000; stroke-linecap: round"/>
   </g>
   <g id="text_4">
    <g id="patch_9">
     <path d="M 967.15 952.47375 
L 1027.25 952.47375 
Q 1033.25 952.47375 1033.25 946.47375 
L 1033.25 882.32625 
Q 1033.25 876.32625 1027.25 876.32625 
L 967.15 876.32625 
Q 961.15 876.32625 961.15 882.32625 
L 961.15 946.47375 
Q 961.15 952.47375 967.15 952.47375 
z
" style="fill: #808080; stroke: #000000; stroke-linejoin: miter"/>
    </g>
    <!--  -->
    <g transform="translate(997.2 897.523125) scale(0.2 -0.2)"/>
    <!--   (...)   -->
    <g transform="translate(967.15 919.91875) scale(0.2 -0.2)">
     <use xlink:href="#DejaVuSans-20"/>
     <use xlink:href="#DejaVuSans-20" transform="translate(31.787109 0)"/>
     <use xlink:href="#DejaVuSans-28" transform="translate(63.574219 0)"/>
     <use xlink:href="#DejaVuSans-2e" transform="translate(102.587891 0)"/>
     <use xlink:href="#DejaVuSans-2e" transform="translate(134.375 0)"/>
     <use xlink:href="#DejaVuSans-2e" transform="translate(166.162109 0)"/>
     <use xlink:href="#DejaVuSans-29" transform="translate(197.949219 0)"/>
     <use xlink:href="#DejaVuSans-20" transform="translate(236.962891 0)"/>
     <use xlink:href="#DejaVuSans-20" transform="translate(268.75 0)"/>
    </g>
    <!--  -->
    <g transform="translate(997.2 942.314375) scale(0.2 -0.2)"/>
   </g>
   <g id="patch_10">
    <path d="M 1241.212606 873.043337 
Q 1285.905773 784.23369 1331.101531 694.425344 
" style="fill: none; stroke: #000000; stroke-linecap: round"/>
    <path d="M 1248.381921 867.695353 
L 1241.212606 873.043337 
L 1241.235808 864.099095 
" style="fill: none; stroke: #000000; stroke-linecap: round"/>
   </g>
   <g id="text_5">
    <g id="patch_11">
     <path d="M 1190.35 952.47375 
L 1250.45 952.47375 
Q 1256.45 952.47375 1256.45 946.47375 
L 1256.45 882.32625 
Q 1256.45 876.32625 1250.45 876.32625 
L 1190.35 876.32625 
Q 1184.35 876.32625 1184.35 882.32625 
L 1184.35 946.47375 
Q 1184.35 952.47375 1190.35 952.47375 
z
" style="fill: #808080; stroke: #000000; stroke-linejoin: miter"/>
    </g>
    <!--  -->
    <g transform="translate(1220.4 897.523125) scale(0.2 -0.2)"/>
    <!--   (...)   -->
    <g transform="translate(1190.35 919.91875) scale(0.2 -0.2)">
     <use xlink:href="#DejaVuSans-20"/>
     <use xlink:href="#DejaVuSans-20" transform="translate(31.787109 0)"/>
     <use xlink:href="#DejaVuSans-28" transform="translate(63.574219 0)"/>
     <use xlink:href="#DejaVuSans-2e" transform="translate(102.587891 0)"/>
     <use xlink:href="#DejaVuSans-2e" transform="translate(134.375 0)"/>
     <use xlink:href="#DejaVuSans-2e" transform="translate(166.162109 0)"/>
     <use xlink:href="#DejaVuSans-29" transform="translate(197.949219 0)"/>
     <use xlink:href="#DejaVuSans-20" transform="translate(236.962891 0)"/>
     <use xlink:href="#DejaVuSans-20" transform="translate(268.75 0)"/>
    </g>
    <!--  -->
    <g transform="translate(1220.4 942.314375) scale(0.2 -0.2)"/>
   </g>
   <g id="patch_12">
    <path d="M 1422.787394 873.043337 
Q 1378.094227 784.23369 1332.898469 694.425344 
" style="fill: none; stroke: #000000; stroke-linecap: round"/>
    <path d="M 1422.764192 864.099095 
L 1422.787394 873.043337 
L 1415.618079 867.695353 
" style="fill: none; stroke: #000000; stroke-linecap: round"/>
   </g>
   <g id="text_6">
    <g id="patch_13">
     <path d="M 1413.55 952.47375 
L 1473.65 952.47375 
Q 1479.65 952.47375 1479.65 946.47375 
L 1479.65 882.32625 
Q 1479.65 876.32625 1473.65 876.32625 
L 1413.55 876.32625 
Q 1407.55 876.32625 1407.55 882.32625 
L 1407.55 946.47375 
Q 1407.55 952.47375 1413.55 952.47375 
z
" style="fill: #808080; stroke: #000000; stroke-linejoin: miter"/>
    </g>
    <!--  -->
    <g transform="translate(1443.6 897.523125) scale(0.2 -0.2)"/>
    <!--   (...)   -->
    <g transform="translate(1413.55 919.91875) scale(0.2 -0.2)">
     <use xlink:href="#DejaVuSans-20"/>
     <use xlink:href="#DejaVuSans-20" transform="translate(31.787109 0)"/>
     <use xlink:href="#DejaVuSans-28" transform="translate(63.574219 0)"/>
     <use xlink:href="#DejaVuSans-2e" transform="translate(102.587891 0)"/>
     <use xlink:href="#DejaVuSans-2e" transform="translate(134.375 0)"/>
     <use xlink:href="#DejaVuSans-2e" transform="translate(166.162109 0)"/>
     <use xlink:href="#DejaVuSans-29" transform="translate(197.949219 0)"/>
     <use xlink:href="#DejaVuSans-20" transform="translate(236.962891 0)"/>
     <use xlink:href="#DejaVuSans-20" transform="translate(268.75 0)"/>
    </g>
    <!--  -->
    <g transform="translate(1443.6 942.314375) scale(0.2 -0.2)"/>
   </g>
   <g id="patch_14">
    <path d="M 465.97921 639.427119 
Q 507.688491 556.54674 549.900365 472.667661 
" style="fill: none; stroke: #000000; stroke-linecap: round"/>
    <path d="M 473.148524 634.079135 
L 465.97921 639.427119 
L 466.002411 630.482877 
" style="fill: none; stroke: #000000; stroke-linecap: round"/>
   </g>
   <g id="text_7">
    <g id="patch_15">
     <path d="M 340.86875 742.013125 
L 537.53125 742.013125 
Q 543.53125 742.013125 543.53125 736.013125 
L 543.53125 648.710625 
Q 543.53125 642.710625 537.53125 642.710625 
L 340.86875 642.710625 
Q 334.86875 642.710625 334.86875 648.710625 
L 334.86875 736.013125 
Q 334.86875 742.013125 340.86875 742.013125 
z
" style="fill: #b0d8f5; stroke: #000000; stroke-linejoin: miter"/>
    </g>
    <!-- max_temp &lt;= 18.5 -->
    <g transform="translate(340.86875 664.110625) scale(0.2 -0.2)">
     <defs>
      <path id="DejaVuSans-6d" d="M 3328 2828 
Q 3544 3216 3844 3400 
Q 4144 3584 4550 3584 
Q 5097 3584 5394 3201 
Q 5691 2819 5691 2113 
L 5691 0 
L 5113 0 
L 5113 2094 
Q 5113 2597 4934 2840 
Q 4756 3084 4391 3084 
Q 3944 3084 3684 2787 
Q 3425 2491 3425 1978 
L 3425 0 
L 2847 0 
L 2847 2094 
Q 2847 2600 2669 2842 
Q 2491 3084 2119 3084 
Q 1678 3084 1418 2786 
Q 1159 2488 1159 1978 
L 1159 0 
L 581 0 
L 581 3500 
L 1159 3500 
L 1159 2956 
Q 1356 3278 1631 3431 
Q 1906 3584 2284 3584 
Q 2666 3584 2933 3390 
Q 3200 3197 3328 2828 
z
" transform="scale(0.015625)"/>
      <path id="DejaVuSans-61" d="M 2194 1759 
Q 1497 1759 1228 1600 
Q 959 1441 959 1056 
Q 959 750 1161 570 
Q 1363 391 1709 391 
Q 2188 391 2477 730 
Q 2766 1069 2766 1631 
L 2766 1759 
L 2194 1759 
z
M 3341 1997 
L 3341 0 
L 2766 0 
L 2766 531 
Q 2569 213 2275 61 
Q 1981 -91 1556 -91 
Q 1019 -91 701 211 
Q 384 513 384 1019 
Q 384 1609 779 1909 
Q 1175 2209 1959 2209 
L 2766 2209 
L 2766 2266 
Q 2766 2663 2505 2880 
Q 2244 3097 1772 3097 
Q 1472 3097 1187 3025 
Q 903 2953 641 2809 
L 641 3341 
Q 956 3463 1253 3523 
Q 1550 3584 1831 3584 
Q 2591 3584 2966 3190 
Q 3341 2797 3341 1997 
z
" transform="scale(0.015625)"/>
      <path id="DejaVuSans-78" d="M 3513 3500 
L 2247 1797 
L 3578 0 
L 2900 0 
L 1881 1375 
L 863 0 
L 184 0 
L 1544 1831 
L 300 3500 
L 978 3500 
L 1906 2253 
L 2834 3500 
L 3513 3500 
z
" transform="scale(0.015625)"/>
      <path id="DejaVuSans-5f" d="M 3263 -1063 
L 3263 -1509 
L -63 -1509 
L -63 -1063 
L 3263 -1063 
z
" transform="scale(0.015625)"/>
      <path id="DejaVuSans-74" d="M 1172 4494 
L 1172 3500 
L 2356 3500 
L 2356 3053 
L 1172 3053 
L 1172 1153 
Q 1172 725 1289 603 
Q 1406 481 1766 481 
L 2356 481 
L 2356 0 
L 1766 0 
Q 1100 0 847 248 
Q 594 497 594 1153 
L 594 3053 
L 172 3053 
L 172 3500 
L 594 3500 
L 594 4494 
L 1172 4494 
z
" transform="scale(0.015625)"/>
      <path id="DejaVuSans-65" d="M 3597 1894 
L 3597 1613 
L 953 1613 
Q 991 1019 1311 708 
Q 1631 397 2203 397 
Q 2534 397 2845 478 
Q 3156 559 3463 722 
L 3463 178 
Q 3153 47 2828 -22 
Q 2503 -91 2169 -91 
Q 1331 -91 842 396 
Q 353 884 353 1716 
Q 353 2575 817 3079 
Q 1281 3584 2069 3584 
Q 2775 3584 3186 3129 
Q 3597 2675 3597 1894 
z
M 3022 2063 
Q 3016 2534 2758 2815 
Q 2500 3097 2075 3097 
Q 1594 3097 1305 2825 
Q 1016 2553 972 2059 
L 3022 2063 
z
" transform="scale(0.015625)"/>
      <path id="DejaVuSans-70" d="M 1159 525 
L 1159 -1331 
L 581 -1331 
L 581 3500 
L 1159 3500 
L 1159 2969 
Q 1341 3281 1617 3432 
Q 1894 3584 2278 3584 
Q 2916 3584 3314 3078 
Q 3713 2572 3713 1747 
Q 3713 922 3314 415 
Q 2916 -91 2278 -91 
Q 1894 -91 1617 61 
Q 1341 213 1159 525 
z
M 3116 1747 
Q 3116 2381 2855 2742 
Q 2594 3103 2138 3103 
Q 1681 3103 1420 2742 
Q 1159 2381 1159 1747 
Q 1159 1113 1420 752 
Q 1681 391 2138 391 
Q 2594 391 2855 752 
Q 3116 1113 3116 1747 
z
" transform="scale(0.015625)"/>
      <path id="DejaVuSans-3c" d="M 4684 3150 
L 1459 2003 
L 4684 863 
L 4684 294 
L 678 1747 
L 678 2266 
L 4684 3719 
L 4684 3150 
z
" transform="scale(0.015625)"/>
      <path id="DejaVuSans-3d" d="M 678 2906 
L 4684 2906 
L 4684 2381 
L 678 2381 
L 678 2906 
z
M 678 1631 
L 4684 1631 
L 4684 1100 
L 678 1100 
L 678 1631 
z
" transform="scale(0.015625)"/>
      <path id="DejaVuSans-31" d="M 794 531 
L 1825 531 
L 1825 4091 
L 703 3866 
L 703 4441 
L 1819 4666 
L 2450 4666 
L 2450 531 
L 3481 531 
L 3481 0 
L 794 0 
L 794 531 
z
" transform="scale(0.015625)"/>
      <path id="DejaVuSans-38" d="M 2034 2216 
Q 1584 2216 1326 1975 
Q 1069 1734 1069 1313 
Q 1069 891 1326 650 
Q 1584 409 2034 409 
Q 2484 409 2743 651 
Q 3003 894 3003 1313 
Q 3003 1734 2745 1975 
Q 2488 2216 2034 2216 
z
M 1403 2484 
Q 997 2584 770 2862 
Q 544 3141 544 3541 
Q 544 4100 942 4425 
Q 1341 4750 2034 4750 
Q 2731 4750 3128 4425 
Q 3525 4100 3525 3541 
Q 3525 3141 3298 2862 
Q 3072 2584 2669 2484 
Q 3125 2378 3379 2068 
Q 3634 1759 3634 1313 
Q 3634 634 3220 271 
Q 2806 -91 2034 -91 
Q 1263 -91 848 271 
Q 434 634 434 1313 
Q 434 1759 690 2068 
Q 947 2378 1403 2484 
z
M 1172 3481 
Q 1172 3119 1398 2916 
Q 1625 2713 2034 2713 
Q 2441 2713 2670 2916 
Q 2900 3119 2900 3481 
Q 2900 3844 2670 4047 
Q 2441 4250 2034 4250 
Q 1625 4250 1398 4047 
Q 1172 3844 1172 3481 
z
" transform="scale(0.015625)"/>
      <path id="DejaVuSans-35" d="M 691 4666 
L 3169 4666 
L 3169 4134 
L 1269 4134 
L 1269 2991 
Q 1406 3038 1543 3061 
Q 1681 3084 1819 3084 
Q 2600 3084 3056 2656 
Q 3513 2228 3513 1497 
Q 3513 744 3044 326 
Q 2575 -91 1722 -91 
Q 1428 -91 1123 -41 
Q 819 9 494 109 
L 494 744 
Q 775 591 1075 516 
Q 1375 441 1709 441 
Q 2250 441 2565 725 
Q 2881 1009 2881 1497 
Q 2881 1984 2565 2268 
Q 2250 2553 1709 2553 
Q 1456 2553 1204 2497 
Q 953 2441 691 2322 
L 691 4666 
z
" transform="scale(0.015625)"/>
     </defs>
     <use xlink:href="#DejaVuSans-6d"/>
     <use xlink:href="#DejaVuSans-61" transform="translate(97.412109 0)"/>
     <use xlink:href="#DejaVuSans-78" transform="translate(158.691406 0)"/>
     <use xlink:href="#DejaVuSans-5f" transform="translate(217.871094 0)"/>
     <use xlink:href="#DejaVuSans-74" transform="translate(267.871094 0)"/>
     <use xlink:href="#DejaVuSans-65" transform="translate(307.080078 0)"/>
     <use xlink:href="#DejaVuSans-6d" transform="translate(368.603516 0)"/>
     <use xlink:href="#DejaVuSans-70" transform="translate(466.015625 0)"/>
     <use xlink:href="#DejaVuSans-20" transform="translate(529.492188 0)"/>
     <use xlink:href="#DejaVuSans-3c" transform="translate(561.279297 0)"/>
     <use xlink:href="#DejaVuSans-3d" transform="translate(645.068359 0)"/>
     <use xlink:href="#DejaVuSans-20" transform="translate(728.857422 0)"/>
     <use xlink:href="#DejaVuSans-31" transform="translate(760.644531 0)"/>
     <use xlink:href="#DejaVuSans-38" transform="translate(824.267578 0)"/>
     <use xlink:href="#DejaVuSans-2e" transform="translate(887.890625 0)"/>
     <use xlink:href="#DejaVuSans-35" transform="translate(919.677734 0)"/>
    </g>
    <!-- samples = 8 -->
    <g transform="translate(376.534375 687.0625) scale(0.2 -0.2)">
     <defs>
      <path id="DejaVuSans-73" d="M 2834 3397 
L 2834 2853 
Q 2591 2978 2328 3040 
Q 2066 3103 1784 3103 
Q 1356 3103 1142 2972 
Q 928 2841 928 2578 
Q 928 2378 1081 2264 
Q 1234 2150 1697 2047 
L 1894 2003 
Q 2506 1872 2764 1633 
Q 3022 1394 3022 966 
Q 3022 478 2636 193 
Q 2250 -91 1575 -91 
Q 1294 -91 989 -36 
Q 684 19 347 128 
L 347 722 
Q 666 556 975 473 
Q 1284 391 1588 391 
Q 1994 391 2212 530 
Q 2431 669 2431 922 
Q 2431 1156 2273 1281 
Q 2116 1406 1581 1522 
L 1381 1569 
Q 847 1681 609 1914 
Q 372 2147 372 2553 
Q 372 3047 722 3315 
Q 1072 3584 1716 3584 
Q 2034 3584 2315 3537 
Q 2597 3491 2834 3397 
z
" transform="scale(0.015625)"/>
      <path id="DejaVuSans-6c" d="M 603 4863 
L 1178 4863 
L 1178 0 
L 603 0 
L 603 4863 
z
" transform="scale(0.015625)"/>
     </defs>
     <use xlink:href="#DejaVuSans-73"/>
     <use xlink:href="#DejaVuSans-61" transform="translate(52.099609 0)"/>
     <use xlink:href="#DejaVuSans-6d" transform="translate(113.378906 0)"/>
     <use xlink:href="#DejaVuSans-70" transform="translate(210.791016 0)"/>
     <use xlink:href="#DejaVuSans-6c" transform="translate(274.267578 0)"/>
     <use xlink:href="#DejaVuSans-65" transform="translate(302.050781 0)"/>
     <use xlink:href="#DejaVuSans-73" transform="translate(363.574219 0)"/>
     <use xlink:href="#DejaVuSans-20" transform="translate(415.673828 0)"/>
     <use xlink:href="#DejaVuSans-3d" transform="translate(447.460938 0)"/>
     <use xlink:href="#DejaVuSans-20" transform="translate(531.25 0)"/>
     <use xlink:href="#DejaVuSans-38" transform="translate(563.037109 0)"/>
    </g>
    <!-- value = [3, 5] -->
    <g transform="translate(370.264062 709.458125) scale(0.2 -0.2)">
     <defs>
      <path id="DejaVuSans-76" d="M 191 3500 
L 800 3500 
L 1894 563 
L 2988 3500 
L 3597 3500 
L 2284 0 
L 1503 0 
L 191 3500 
z
" transform="scale(0.015625)"/>
      <path id="DejaVuSans-75" d="M 544 1381 
L 544 3500 
L 1119 3500 
L 1119 1403 
Q 1119 906 1312 657 
Q 1506 409 1894 409 
Q 2359 409 2629 706 
Q 2900 1003 2900 1516 
L 2900 3500 
L 3475 3500 
L 3475 0 
L 2900 0 
L 2900 538 
Q 2691 219 2414 64 
Q 2138 -91 1772 -91 
Q 1169 -91 856 284 
Q 544 659 544 1381 
z
M 1991 3584 
L 1991 3584 
z
" transform="scale(0.015625)"/>
      <path id="DejaVuSans-5b" d="M 550 4863 
L 1875 4863 
L 1875 4416 
L 1125 4416 
L 1125 -397 
L 1875 -397 
L 1875 -844 
L 550 -844 
L 550 4863 
z
" transform="scale(0.015625)"/>
      <path id="DejaVuSans-33" d="M 2597 2516 
Q 3050 2419 3304 2112 
Q 3559 1806 3559 1356 
Q 3559 666 3084 287 
Q 2609 -91 1734 -91 
Q 1441 -91 1130 -33 
Q 819 25 488 141 
L 488 750 
Q 750 597 1062 519 
Q 1375 441 1716 441 
Q 2309 441 2620 675 
Q 2931 909 2931 1356 
Q 2931 1769 2642 2001 
Q 2353 2234 1838 2234 
L 1294 2234 
L 1294 2753 
L 1863 2753 
Q 2328 2753 2575 2939 
Q 2822 3125 2822 3475 
Q 2822 3834 2567 4026 
Q 2313 4219 1838 4219 
Q 1578 4219 1281 4162 
Q 984 4106 628 3988 
L 628 4550 
Q 988 4650 1302 4700 
Q 1616 4750 1894 4750 
Q 2613 4750 3031 4423 
Q 3450 4097 3450 3541 
Q 3450 3153 3228 2886 
Q 3006 2619 2597 2516 
z
" transform="scale(0.015625)"/>
      <path id="DejaVuSans-2c" d="M 750 794 
L 1409 794 
L 1409 256 
L 897 -744 
L 494 -744 
L 750 256 
L 750 794 
z
" transform="scale(0.015625)"/>
      <path id="DejaVuSans-5d" d="M 1947 4863 
L 1947 -844 
L 622 -844 
L 622 -397 
L 1369 -397 
L 1369 4416 
L 622 4416 
L 622 4863 
L 1947 4863 
z
" transform="scale(0.015625)"/>
     </defs>
     <use xlink:href="#DejaVuSans-76"/>
     <use xlink:href="#DejaVuSans-61" transform="translate(59.179688 0)"/>
     <use xlink:href="#DejaVuSans-6c" transform="translate(120.458984 0)"/>
     <use xlink:href="#DejaVuSans-75" transform="translate(148.242188 0)"/>
     <use xlink:href="#DejaVuSans-65" transform="translate(211.621094 0)"/>
     <use xlink:href="#DejaVuSans-20" transform="translate(273.144531 0)"/>
     <use xlink:href="#DejaVuSans-3d" transform="translate(304.931641 0)"/>
     <use xlink:href="#DejaVuSans-20" transform="translate(388.720703 0)"/>
     <use xlink:href="#DejaVuSans-5b" transform="translate(420.507812 0)"/>
     <use xlink:href="#DejaVuSans-33" transform="translate(459.521484 0)"/>
     <use xlink:href="#DejaVuSans-2c" transform="translate(523.144531 0)"/>
     <use xlink:href="#DejaVuSans-20" transform="translate(554.931641 0)"/>
     <use xlink:href="#DejaVuSans-35" transform="translate(586.71875 0)"/>
     <use xlink:href="#DejaVuSans-5d" transform="translate(650.341797 0)"/>
    </g>
    <!-- class = Dead -->
    <g transform="translate(373.310937 731.85375) scale(0.2 -0.2)">
     <defs>
      <path id="DejaVuSans-63" d="M 3122 3366 
L 3122 2828 
Q 2878 2963 2633 3030 
Q 2388 3097 2138 3097 
Q 1578 3097 1268 2742 
Q 959 2388 959 1747 
Q 959 1106 1268 751 
Q 1578 397 2138 397 
Q 2388 397 2633 464 
Q 2878 531 3122 666 
L 3122 134 
Q 2881 22 2623 -34 
Q 2366 -91 2075 -91 
Q 1284 -91 818 406 
Q 353 903 353 1747 
Q 353 2603 823 3093 
Q 1294 3584 2113 3584 
Q 2378 3584 2631 3529 
Q 2884 3475 3122 3366 
z
" transform="scale(0.015625)"/>
      <path id="DejaVuSans-44" d="M 1259 4147 
L 1259 519 
L 2022 519 
Q 2988 519 3436 956 
Q 3884 1394 3884 2338 
Q 3884 3275 3436 3711 
Q 2988 4147 2022 4147 
L 1259 4147 
z
M 628 4666 
L 1925 4666 
Q 3281 4666 3915 4102 
Q 4550 3538 4550 2338 
Q 4550 1131 3912 565 
Q 3275 0 1925 0 
L 628 0 
L 628 4666 
z
" transform="scale(0.015625)"/>
      <path id="DejaVuSans-64" d="M 2906 2969 
L 2906 4863 
L 3481 4863 
L 3481 0 
L 2906 0 
L 2906 525 
Q 2725 213 2448 61 
Q 2172 -91 1784 -91 
Q 1150 -91 751 415 
Q 353 922 353 1747 
Q 353 2572 751 3078 
Q 1150 3584 1784 3584 
Q 2172 3584 2448 3432 
Q 2725 3281 2906 2969 
z
M 947 1747 
Q 947 1113 1208 752 
Q 1469 391 1925 391 
Q 2381 391 2643 752 
Q 2906 1113 2906 1747 
Q 2906 2381 2643 2742 
Q 2381 3103 1925 3103 
Q 1469 3103 1208 2742 
Q 947 2381 947 1747 
z
" transform="scale(0.015625)"/>
     </defs>
     <use xlink:href="#DejaVuSans-63"/>
     <use xlink:href="#DejaVuSans-6c" transform="translate(54.980469 0)"/>
     <use xlink:href="#DejaVuSans-61" transform="translate(82.763672 0)"/>
     <use xlink:href="#DejaVuSans-73" transform="translate(144.042969 0)"/>
     <use xlink:href="#DejaVuSans-73" transform="translate(196.142578 0)"/>
     <use xlink:href="#DejaVuSans-20" transform="translate(248.242188 0)"/>
     <use xlink:href="#DejaVuSans-3d" transform="translate(280.029297 0)"/>
     <use xlink:href="#DejaVuSans-20" transform="translate(363.818359 0)"/>
     <use xlink:href="#DejaVuSans-44" transform="translate(395.605469 0)"/>
     <use xlink:href="#DejaVuSans-65" transform="translate(472.607422 0)"/>
     <use xlink:href="#DejaVuSans-61" transform="translate(534.130859 0)"/>
     <use xlink:href="#DejaVuSans-64" transform="translate(595.410156 0)"/>
    </g>
   </g>
   <g id="patch_16">
    <path d="M 641.587394 651.283337 
Q 596.894227 562.47369 551.698469 472.665344 
" style="fill: none; stroke: #000000; stroke-linecap: round"/>
    <path d="M 641.564192 642.339095 
L 641.587394 651.283337 
L 634.418079 645.935353 
" style="fill: none; stroke: #000000; stroke-linecap: round"/>
   </g>
   <g id="text_8">
    <g id="patch_17">
     <path d="M 587.101562 730.71375 
L 737.698437 730.71375 
Q 743.698437 730.71375 743.698437 724.71375 
L 743.698437 660.56625 
Q 743.698437 654.56625 737.698437 654.56625 
L 587.101562 654.56625 
Q 581.101562 654.56625 581.101562 660.56625 
L 581.101562 724.71375 
Q 581.101562 730.71375 587.101562 730.71375 
z
" style="fill: #399de5; stroke: #000000; stroke-linejoin: miter"/>
    </g>
    <!-- samples = 18 -->
    <g transform="translate(593.371875 675.763125) scale(0.2 -0.2)">
     <use xlink:href="#DejaVuSans-73"/>
     <use xlink:href="#DejaVuSans-61" transform="translate(52.099609 0)"/>
     <use xlink:href="#DejaVuSans-6d" transform="translate(113.378906 0)"/>
     <use xlink:href="#DejaVuSans-70" transform="translate(210.791016 0)"/>
     <use xlink:href="#DejaVuSans-6c" transform="translate(274.267578 0)"/>
     <use xlink:href="#DejaVuSans-65" transform="translate(302.050781 0)"/>
     <use xlink:href="#DejaVuSans-73" transform="translate(363.574219 0)"/>
     <use xlink:href="#DejaVuSans-20" transform="translate(415.673828 0)"/>
     <use xlink:href="#DejaVuSans-3d" transform="translate(447.460938 0)"/>
     <use xlink:href="#DejaVuSans-20" transform="translate(531.25 0)"/>
     <use xlink:href="#DejaVuSans-31" transform="translate(563.037109 0)"/>
     <use xlink:href="#DejaVuSans-38" transform="translate(626.660156 0)"/>
    </g>
    <!-- value = [0, 18] -->
    <g transform="translate(587.101562 698.15875) scale(0.2 -0.2)">
     <defs>
      <path id="DejaVuSans-30" d="M 2034 4250 
Q 1547 4250 1301 3770 
Q 1056 3291 1056 2328 
Q 1056 1369 1301 889 
Q 1547 409 2034 409 
Q 2525 409 2770 889 
Q 3016 1369 3016 2328 
Q 3016 3291 2770 3770 
Q 2525 4250 2034 4250 
z
M 2034 4750 
Q 2819 4750 3233 4129 
Q 3647 3509 3647 2328 
Q 3647 1150 3233 529 
Q 2819 -91 2034 -91 
Q 1250 -91 836 529 
Q 422 1150 422 2328 
Q 422 3509 836 4129 
Q 1250 4750 2034 4750 
z
" transform="scale(0.015625)"/>
     </defs>
     <use xlink:href="#DejaVuSans-76"/>
     <use xlink:href="#DejaVuSans-61" transform="translate(59.179688 0)"/>
     <use xlink:href="#DejaVuSans-6c" transform="translate(120.458984 0)"/>
     <use xlink:href="#DejaVuSans-75" transform="translate(148.242188 0)"/>
     <use xlink:href="#DejaVuSans-65" transform="translate(211.621094 0)"/>
     <use xlink:href="#DejaVuSans-20" transform="translate(273.144531 0)"/>
     <use xlink:href="#DejaVuSans-3d" transform="translate(304.931641 0)"/>
     <use xlink:href="#DejaVuSans-20" transform="translate(388.720703 0)"/>
     <use xlink:href="#DejaVuSans-5b" transform="translate(420.507812 0)"/>
     <use xlink:href="#DejaVuSans-30" transform="translate(459.521484 0)"/>
     <use xlink:href="#DejaVuSans-2c" transform="translate(523.144531 0)"/>
     <use xlink:href="#DejaVuSans-20" transform="translate(554.931641 0)"/>
     <use xlink:href="#DejaVuSans-31" transform="translate(586.71875 0)"/>
     <use xlink:href="#DejaVuSans-38" transform="translate(650.341797 0)"/>
     <use xlink:href="#DejaVuSans-5d" transform="translate(713.964844 0)"/>
    </g>
    <!-- class = Dead -->
    <g transform="translate(596.510937 720.554375) scale(0.2 -0.2)">
     <use xlink:href="#DejaVuSans-63"/>
     <use xlink:href="#DejaVuSans-6c" transform="translate(54.980469 0)"/>
     <use xlink:href="#DejaVuSans-61" transform="translate(82.763672 0)"/>
     <use xlink:href="#DejaVuSans-73" transform="translate(144.042969 0)"/>
     <use xlink:href="#DejaVuSans-73" transform="translate(196.142578 0)"/>
     <use xlink:href="#DejaVuSans-20" transform="translate(248.242188 0)"/>
     <use xlink:href="#DejaVuSans-3d" transform="translate(280.029297 0)"/>
     <use xlink:href="#DejaVuSans-20" transform="translate(363.818359 0)"/>
     <use xlink:href="#DejaVuSans-44" transform="translate(395.605469 0)"/>
     <use xlink:href="#DejaVuSans-65" transform="translate(472.607422 0)"/>
     <use xlink:href="#DejaVuSans-61" transform="translate(534.130859 0)"/>
     <use xlink:href="#DejaVuSans-64" transform="translate(595.410156 0)"/>
    </g>
   </g>
   <g id="patch_18">
    <path d="M 938.743097 639.839762 
Q 1022.664589 556.459699 1107.379204 472.291629 
" style="fill: none; stroke: #000000; stroke-linecap: round"/>
    <path d="M 947.237487 637.03881 
L 938.743097 639.839762 
L 941.598969 631.363679 
" style="fill: none; stroke: #000000; stroke-linecap: round"/>
   </g>
   <g id="text_9">
    <g id="patch_19">
     <path d="M 791.214062 742.189687 
L 979.985937 742.189687 
Q 985.985937 742.189687 985.985937 736.189687 
L 985.985937 648.534063 
Q 985.985937 642.534063 979.985937 642.534063 
L 791.214062 642.534063 
Q 785.214062 642.534063 785.214062 648.534063 
L 785.214062 736.189687 
Q 785.214062 742.189687 791.214062 742.189687 
z
" style="fill: #e5823b; stroke: #000000; stroke-linejoin: miter"/>
    </g>
    <!-- max_sal &lt;= 27.5 -->
    <g transform="translate(799.315625 664.287188) scale(0.2 -0.2)">
     <defs>
      <path id="DejaVuSans-32" d="M 1228 531 
L 3431 531 
L 3431 0 
L 469 0 
L 469 531 
Q 828 903 1448 1529 
Q 2069 2156 2228 2338 
Q 2531 2678 2651 2914 
Q 2772 3150 2772 3378 
Q 2772 3750 2511 3984 
Q 2250 4219 1831 4219 
Q 1534 4219 1204 4116 
Q 875 4013 500 3803 
L 500 4441 
Q 881 4594 1212 4672 
Q 1544 4750 1819 4750 
Q 2544 4750 2975 4387 
Q 3406 4025 3406 3419 
Q 3406 3131 3298 2873 
Q 3191 2616 2906 2266 
Q 2828 2175 2409 1742 
Q 1991 1309 1228 531 
z
" transform="scale(0.015625)"/>
      <path id="DejaVuSans-37" d="M 525 4666 
L 3525 4666 
L 3525 4397 
L 1831 0 
L 1172 0 
L 2766 4134 
L 525 4134 
L 525 4666 
z
" transform="scale(0.015625)"/>
     </defs>
     <use xlink:href="#DejaVuSans-6d"/>
     <use xlink:href="#DejaVuSans-61" transform="translate(97.412109 0)"/>
     <use xlink:href="#DejaVuSans-78" transform="translate(158.691406 0)"/>
     <use xlink:href="#DejaVuSans-5f" transform="translate(217.871094 0)"/>
     <use xlink:href="#DejaVuSans-73" transform="translate(267.871094 0)"/>
     <use xlink:href="#DejaVuSans-61" transform="translate(319.970703 0)"/>
     <use xlink:href="#DejaVuSans-6c" transform="translate(381.25 0)"/>
     <use xlink:href="#DejaVuSans-20" transform="translate(409.033203 0)"/>
     <use xlink:href="#DejaVuSans-3c" transform="translate(440.820312 0)"/>
     <use xlink:href="#DejaVuSans-3d" transform="translate(524.609375 0)"/>
     <use xlink:href="#DejaVuSans-20" transform="translate(608.398438 0)"/>
     <use xlink:href="#DejaVuSans-32" transform="translate(640.185547 0)"/>
     <use xlink:href="#DejaVuSans-37" transform="translate(703.808594 0)"/>
     <use xlink:href="#DejaVuSans-2e" transform="translate(767.431641 0)"/>
     <use xlink:href="#DejaVuSans-35" transform="translate(799.21875 0)"/>
    </g>
    <!-- samples = 1876 -->
    <g transform="translate(803.846875 687.239063) scale(0.2 -0.2)">
     <defs>
      <path id="DejaVuSans-36" d="M 2113 2584 
Q 1688 2584 1439 2293 
Q 1191 2003 1191 1497 
Q 1191 994 1439 701 
Q 1688 409 2113 409 
Q 2538 409 2786 701 
Q 3034 994 3034 1497 
Q 3034 2003 2786 2293 
Q 2538 2584 2113 2584 
z
M 3366 4563 
L 3366 3988 
Q 3128 4100 2886 4159 
Q 2644 4219 2406 4219 
Q 1781 4219 1451 3797 
Q 1122 3375 1075 2522 
Q 1259 2794 1537 2939 
Q 1816 3084 2150 3084 
Q 2853 3084 3261 2657 
Q 3669 2231 3669 1497 
Q 3669 778 3244 343 
Q 2819 -91 2113 -91 
Q 1303 -91 875 529 
Q 447 1150 447 2328 
Q 447 3434 972 4092 
Q 1497 4750 2381 4750 
Q 2619 4750 2861 4703 
Q 3103 4656 3366 4563 
z
" transform="scale(0.015625)"/>
     </defs>
     <use xlink:href="#DejaVuSans-73"/>
     <use xlink:href="#DejaVuSans-61" transform="translate(52.099609 0)"/>
     <use xlink:href="#DejaVuSans-6d" transform="translate(113.378906 0)"/>
     <use xlink:href="#DejaVuSans-70" transform="translate(210.791016 0)"/>
     <use xlink:href="#DejaVuSans-6c" transform="translate(274.267578 0)"/>
     <use xlink:href="#DejaVuSans-65" transform="translate(302.050781 0)"/>
     <use xlink:href="#DejaVuSans-73" transform="translate(363.574219 0)"/>
     <use xlink:href="#DejaVuSans-20" transform="translate(415.673828 0)"/>
     <use xlink:href="#DejaVuSans-3d" transform="translate(447.460938 0)"/>
     <use xlink:href="#DejaVuSans-20" transform="translate(531.25 0)"/>
     <use xlink:href="#DejaVuSans-31" transform="translate(563.037109 0)"/>
     <use xlink:href="#DejaVuSans-38" transform="translate(626.660156 0)"/>
     <use xlink:href="#DejaVuSans-37" transform="translate(690.283203 0)"/>
     <use xlink:href="#DejaVuSans-36" transform="translate(753.90625 0)"/>
    </g>
    <!-- value = [1856, 20] -->
    <g transform="translate(791.214062 709.634688) scale(0.2 -0.2)">
     <use xlink:href="#DejaVuSans-76"/>
     <use xlink:href="#DejaVuSans-61" transform="translate(59.179688 0)"/>
     <use xlink:href="#DejaVuSans-6c" transform="translate(120.458984 0)"/>
     <use xlink:href="#DejaVuSans-75" transform="translate(148.242188 0)"/>
     <use xlink:href="#DejaVuSans-65" transform="translate(211.621094 0)"/>
     <use xlink:href="#DejaVuSans-20" transform="translate(273.144531 0)"/>
     <use xlink:href="#DejaVuSans-3d" transform="translate(304.931641 0)"/>
     <use xlink:href="#DejaVuSans-20" transform="translate(388.720703 0)"/>
     <use xlink:href="#DejaVuSans-5b" transform="translate(420.507812 0)"/>
     <use xlink:href="#DejaVuSans-31" transform="translate(459.521484 0)"/>
     <use xlink:href="#DejaVuSans-38" transform="translate(523.144531 0)"/>
     <use xlink:href="#DejaVuSans-35" transform="translate(586.767578 0)"/>
     <use xlink:href="#DejaVuSans-36" transform="translate(650.390625 0)"/>
     <use xlink:href="#DejaVuSans-2c" transform="translate(714.013672 0)"/>
     <use xlink:href="#DejaVuSans-20" transform="translate(745.800781 0)"/>
     <use xlink:href="#DejaVuSans-32" transform="translate(777.587891 0)"/>
     <use xlink:href="#DejaVuSans-30" transform="translate(841.210938 0)"/>
     <use xlink:href="#DejaVuSans-5d" transform="translate(904.833984 0)"/>
    </g>
    <!-- class = Alive -->
    <g transform="translate(821.571875 732.030313) scale(0.2 -0.2)">
     <defs>
      <path id="DejaVuSans-41" d="M 2188 4044 
L 1331 1722 
L 3047 1722 
L 2188 4044 
z
M 1831 4666 
L 2547 4666 
L 4325 0 
L 3669 0 
L 3244 1197 
L 1141 1197 
L 716 0 
L 50 0 
L 1831 4666 
z
" transform="scale(0.015625)"/>
      <path id="DejaVuSans-69" d="M 603 3500 
L 1178 3500 
L 1178 0 
L 603 0 
L 603 3500 
z
M 603 4863 
L 1178 4863 
L 1178 4134 
L 603 4134 
L 603 4863 
z
" transform="scale(0.015625)"/>
     </defs>
     <use xlink:href="#DejaVuSans-63"/>
     <use xlink:href="#DejaVuSans-6c" transform="translate(54.980469 0)"/>
     <use xlink:href="#DejaVuSans-61" transform="translate(82.763672 0)"/>
     <use xlink:href="#DejaVuSans-73" transform="translate(144.042969 0)"/>
     <use xlink:href="#DejaVuSans-73" transform="translate(196.142578 0)"/>
     <use xlink:href="#DejaVuSans-20" transform="translate(248.242188 0)"/>
     <use xlink:href="#DejaVuSans-3d" transform="translate(280.029297 0)"/>
     <use xlink:href="#DejaVuSans-20" transform="translate(363.818359 0)"/>
     <use xlink:href="#DejaVuSans-41" transform="translate(395.605469 0)"/>
     <use xlink:href="#DejaVuSans-6c" transform="translate(464.013672 0)"/>
     <use xlink:href="#DejaVuSans-69" transform="translate(491.796875 0)"/>
     <use xlink:href="#DejaVuSans-76" transform="translate(519.580078 0)"/>
     <use xlink:href="#DejaVuSans-65" transform="translate(578.759766 0)"/>
    </g>
   </g>
   <g id="patch_20">
    <path d="M 1278.856903 639.839762 
Q 1194.935411 556.459699 1110.220796 472.291629 
" style="fill: none; stroke: #000000; stroke-linecap: round"/>
    <path d="M 1276.001031 631.363679 
L 1278.856903 639.839762 
L 1270.362513 637.03881 
" style="fill: none; stroke: #000000; stroke-linecap: round"/>
   </g>
   <g id="text_10">
    <g id="patch_21">
     <path d="M 1222.617188 742.189687 
L 1441.382812 742.189687 
Q 1447.382812 742.189687 1447.382812 736.189687 
L 1447.382812 648.534063 
Q 1447.382812 642.534063 1441.382812 642.534063 
L 1222.617188 642.534063 
Q 1216.617188 642.534063 1216.617188 648.534063 
L 1216.617188 736.189687 
Q 1216.617188 742.189687 1222.617188 742.189687 
z
" style="fill: #e68743; stroke: #000000; stroke-linejoin: miter"/>
    </g>
    <!-- days_passed &lt;= 31.5 -->
    <g transform="translate(1222.617188 664.287188) scale(0.2 -0.2)">
     <defs>
      <path id="DejaVuSans-79" d="M 2059 -325 
Q 1816 -950 1584 -1140 
Q 1353 -1331 966 -1331 
L 506 -1331 
L 506 -850 
L 844 -850 
Q 1081 -850 1212 -737 
Q 1344 -625 1503 -206 
L 1606 56 
L 191 3500 
L 800 3500 
L 1894 763 
L 2988 3500 
L 3597 3500 
L 2059 -325 
z
" transform="scale(0.015625)"/>
     </defs>
     <use xlink:href="#DejaVuSans-64"/>
     <use xlink:href="#DejaVuSans-61" transform="translate(63.476562 0)"/>
     <use xlink:href="#DejaVuSans-79" transform="translate(124.755859 0)"/>
     <use xlink:href="#DejaVuSans-73" transform="translate(183.935547 0)"/>
     <use xlink:href="#DejaVuSans-5f" transform="translate(236.035156 0)"/>
     <use xlink:href="#DejaVuSans-70" transform="translate(286.035156 0)"/>
     <use xlink:href="#DejaVuSans-61" transform="translate(349.511719 0)"/>
     <use xlink:href="#DejaVuSans-73" transform="translate(410.791016 0)"/>
     <use xlink:href="#DejaVuSans-73" transform="translate(462.890625 0)"/>
     <use xlink:href="#DejaVuSans-65" transform="translate(514.990234 0)"/>
     <use xlink:href="#DejaVuSans-64" transform="translate(576.513672 0)"/>
     <use xlink:href="#DejaVuSans-20" transform="translate(639.990234 0)"/>
     <use xlink:href="#DejaVuSans-3c" transform="translate(671.777344 0)"/>
     <use xlink:href="#DejaVuSans-3d" transform="translate(755.566406 0)"/>
     <use xlink:href="#DejaVuSans-20" transform="translate(839.355469 0)"/>
     <use xlink:href="#DejaVuSans-33" transform="translate(871.142578 0)"/>
     <use xlink:href="#DejaVuSans-31" transform="translate(934.765625 0)"/>
     <use xlink:href="#DejaVuSans-2e" transform="translate(998.388672 0)"/>
     <use xlink:href="#DejaVuSans-35" transform="translate(1030.175781 0)"/>
    </g>
    <!-- samples = 193 -->
    <g transform="translate(1256.609375 687.239063) scale(0.2 -0.2)">
     <defs>
      <path id="DejaVuSans-39" d="M 703 97 
L 703 672 
Q 941 559 1184 500 
Q 1428 441 1663 441 
Q 2288 441 2617 861 
Q 2947 1281 2994 2138 
Q 2813 1869 2534 1725 
Q 2256 1581 1919 1581 
Q 1219 1581 811 2004 
Q 403 2428 403 3163 
Q 403 3881 828 4315 
Q 1253 4750 1959 4750 
Q 2769 4750 3195 4129 
Q 3622 3509 3622 2328 
Q 3622 1225 3098 567 
Q 2575 -91 1691 -91 
Q 1453 -91 1209 -44 
Q 966 3 703 97 
z
M 1959 2075 
Q 2384 2075 2632 2365 
Q 2881 2656 2881 3163 
Q 2881 3666 2632 3958 
Q 2384 4250 1959 4250 
Q 1534 4250 1286 3958 
Q 1038 3666 1038 3163 
Q 1038 2656 1286 2365 
Q 1534 2075 1959 2075 
z
" transform="scale(0.015625)"/>
     </defs>
     <use xlink:href="#DejaVuSans-73"/>
     <use xlink:href="#DejaVuSans-61" transform="translate(52.099609 0)"/>
     <use xlink:href="#DejaVuSans-6d" transform="translate(113.378906 0)"/>
     <use xlink:href="#DejaVuSans-70" transform="translate(210.791016 0)"/>
     <use xlink:href="#DejaVuSans-6c" transform="translate(274.267578 0)"/>
     <use xlink:href="#DejaVuSans-65" transform="translate(302.050781 0)"/>
     <use xlink:href="#DejaVuSans-73" transform="translate(363.574219 0)"/>
     <use xlink:href="#DejaVuSans-20" transform="translate(415.673828 0)"/>
     <use xlink:href="#DejaVuSans-3d" transform="translate(447.460938 0)"/>
     <use xlink:href="#DejaVuSans-20" transform="translate(531.25 0)"/>
     <use xlink:href="#DejaVuSans-31" transform="translate(563.037109 0)"/>
     <use xlink:href="#DejaVuSans-39" transform="translate(626.660156 0)"/>
     <use xlink:href="#DejaVuSans-33" transform="translate(690.283203 0)"/>
    </g>
    <!-- value = [184, 9] -->
    <g transform="translate(1250.339062 709.634688) scale(0.2 -0.2)">
     <defs>
      <path id="DejaVuSans-34" d="M 2419 4116 
L 825 1625 
L 2419 1625 
L 2419 4116 
z
M 2253 4666 
L 3047 4666 
L 3047 1625 
L 3713 1625 
L 3713 1100 
L 3047 1100 
L 3047 0 
L 2419 0 
L 2419 1100 
L 313 1100 
L 313 1709 
L 2253 4666 
z
" transform="scale(0.015625)"/>
     </defs>
     <use xlink:href="#DejaVuSans-76"/>
     <use xlink:href="#DejaVuSans-61" transform="translate(59.179688 0)"/>
     <use xlink:href="#DejaVuSans-6c" transform="translate(120.458984 0)"/>
     <use xlink:href="#DejaVuSans-75" transform="translate(148.242188 0)"/>
     <use xlink:href="#DejaVuSans-65" transform="translate(211.621094 0)"/>
     <use xlink:href="#DejaVuSans-20" transform="translate(273.144531 0)"/>
     <use xlink:href="#DejaVuSans-3d" transform="translate(304.931641 0)"/>
     <use xlink:href="#DejaVuSans-20" transform="translate(388.720703 0)"/>
     <use xlink:href="#DejaVuSans-5b" transform="translate(420.507812 0)"/>
     <use xlink:href="#DejaVuSans-31" transform="translate(459.521484 0)"/>
     <use xlink:href="#DejaVuSans-38" transform="translate(523.144531 0)"/>
     <use xlink:href="#DejaVuSans-34" transform="translate(586.767578 0)"/>
     <use xlink:href="#DejaVuSans-2c" transform="translate(650.390625 0)"/>
     <use xlink:href="#DejaVuSans-20" transform="translate(682.177734 0)"/>
     <use xlink:href="#DejaVuSans-39" transform="translate(713.964844 0)"/>
     <use xlink:href="#DejaVuSans-5d" transform="translate(777.587891 0)"/>
    </g>
    <!-- class = Alive -->
    <g transform="translate(1267.971875 732.030313) scale(0.2 -0.2)">
     <use xlink:href="#DejaVuSans-63"/>
     <use xlink:href="#DejaVuSans-6c" transform="translate(54.980469 0)"/>
     <use xlink:href="#DejaVuSans-61" transform="translate(82.763672 0)"/>
     <use xlink:href="#DejaVuSans-73" transform="translate(144.042969 0)"/>
     <use xlink:href="#DejaVuSans-73" transform="translate(196.142578 0)"/>
     <use xlink:href="#DejaVuSans-20" transform="translate(248.242188 0)"/>
     <use xlink:href="#DejaVuSans-3d" transform="translate(280.029297 0)"/>
     <use xlink:href="#DejaVuSans-20" transform="translate(363.818359 0)"/>
     <use xlink:href="#DejaVuSans-41" transform="translate(395.605469 0)"/>
     <use xlink:href="#DejaVuSans-6c" transform="translate(464.013672 0)"/>
     <use xlink:href="#DejaVuSans-69" transform="translate(491.796875 0)"/>
     <use xlink:href="#DejaVuSans-76" transform="translate(519.580078 0)"/>
     <use xlink:href="#DejaVuSans-65" transform="translate(578.759766 0)"/>
    </g>
   </g>
   <g id="patch_22">
    <path d="M 616.691338 418.507014 
Q 722.026051 334.782907 828.236 250.363128 
" style="fill: none; stroke: #000000; stroke-linecap: round"/>
    <path d="M 625.442938 416.660531 
L 616.691338 418.507014 
L 620.465112 410.397845 
" style="fill: none; stroke: #000000; stroke-linecap: round"/>
   </g>
   <g id="text_11">
    <g id="patch_23">
     <path d="M 452.46875 520.253125 
L 649.13125 520.253125 
Q 655.13125 520.253125 655.13125 514.253125 
L 655.13125 426.950625 
Q 655.13125 420.950625 649.13125 420.950625 
L 452.46875 420.950625 
Q 446.46875 420.950625 446.46875 426.950625 
L 446.46875 514.253125 
Q 446.46875 520.253125 452.46875 520.253125 
z
" style="fill: #53aae8; stroke: #000000; stroke-linejoin: miter"/>
    </g>
    <!-- max_temp &lt;= 21.0 -->
    <g transform="translate(452.46875 442.350625) scale(0.2 -0.2)">
     <use xlink:href="#DejaVuSans-6d"/>
     <use xlink:href="#DejaVuSans-61" transform="translate(97.412109 0)"/>
     <use xlink:href="#DejaVuSans-78" transform="translate(158.691406 0)"/>
     <use xlink:href="#DejaVuSans-5f" transform="translate(217.871094 0)"/>
     <use xlink:href="#DejaVuSans-74" transform="translate(267.871094 0)"/>
     <use xlink:href="#DejaVuSans-65" transform="translate(307.080078 0)"/>
     <use xlink:href="#DejaVuSans-6d" transform="translate(368.603516 0)"/>
     <use xlink:href="#DejaVuSans-70" transform="translate(466.015625 0)"/>
     <use xlink:href="#DejaVuSans-20" transform="translate(529.492188 0)"/>
     <use xlink:href="#DejaVuSans-3c" transform="translate(561.279297 0)"/>
     <use xlink:href="#DejaVuSans-3d" transform="translate(645.068359 0)"/>
     <use xlink:href="#DejaVuSans-20" transform="translate(728.857422 0)"/>
     <use xlink:href="#DejaVuSans-32" transform="translate(760.644531 0)"/>
     <use xlink:href="#DejaVuSans-31" transform="translate(824.267578 0)"/>
     <use xlink:href="#DejaVuSans-2e" transform="translate(887.890625 0)"/>
     <use xlink:href="#DejaVuSans-30" transform="translate(919.677734 0)"/>
    </g>
    <!-- samples = 26 -->
    <g transform="translate(481.771875 465.3025) scale(0.2 -0.2)">
     <use xlink:href="#DejaVuSans-73"/>
     <use xlink:href="#DejaVuSans-61" transform="translate(52.099609 0)"/>
     <use xlink:href="#DejaVuSans-6d" transform="translate(113.378906 0)"/>
     <use xlink:href="#DejaVuSans-70" transform="translate(210.791016 0)"/>
     <use xlink:href="#DejaVuSans-6c" transform="translate(274.267578 0)"/>
     <use xlink:href="#DejaVuSans-65" transform="translate(302.050781 0)"/>
     <use xlink:href="#DejaVuSans-73" transform="translate(363.574219 0)"/>
     <use xlink:href="#DejaVuSans-20" transform="translate(415.673828 0)"/>
     <use xlink:href="#DejaVuSans-3d" transform="translate(447.460938 0)"/>
     <use xlink:href="#DejaVuSans-20" transform="translate(531.25 0)"/>
     <use xlink:href="#DejaVuSans-32" transform="translate(563.037109 0)"/>
     <use xlink:href="#DejaVuSans-36" transform="translate(626.660156 0)"/>
    </g>
    <!-- value = [3, 23] -->
    <g transform="translate(475.501562 487.698125) scale(0.2 -0.2)">
     <use xlink:href="#DejaVuSans-76"/>
     <use xlink:href="#DejaVuSans-61" transform="translate(59.179688 0)"/>
     <use xlink:href="#DejaVuSans-6c" transform="translate(120.458984 0)"/>
     <use xlink:href="#DejaVuSans-75" transform="translate(148.242188 0)"/>
     <use xlink:href="#DejaVuSans-65" transform="translate(211.621094 0)"/>
     <use xlink:href="#DejaVuSans-20" transform="translate(273.144531 0)"/>
     <use xlink:href="#DejaVuSans-3d" transform="translate(304.931641 0)"/>
     <use xlink:href="#DejaVuSans-20" transform="translate(388.720703 0)"/>
     <use xlink:href="#DejaVuSans-5b" transform="translate(420.507812 0)"/>
     <use xlink:href="#DejaVuSans-33" transform="translate(459.521484 0)"/>
     <use xlink:href="#DejaVuSans-2c" transform="translate(523.144531 0)"/>
     <use xlink:href="#DejaVuSans-20" transform="translate(554.931641 0)"/>
     <use xlink:href="#DejaVuSans-32" transform="translate(586.71875 0)"/>
     <use xlink:href="#DejaVuSans-33" transform="translate(650.341797 0)"/>
     <use xlink:href="#DejaVuSans-5d" transform="translate(713.964844 0)"/>
    </g>
    <!-- class = Dead -->
    <g transform="translate(484.910937 510.09375) scale(0.2 -0.2)">
     <use xlink:href="#DejaVuSans-63"/>
     <use xlink:href="#DejaVuSans-6c" transform="translate(54.980469 0)"/>
     <use xlink:href="#DejaVuSans-61" transform="translate(82.763672 0)"/>
     <use xlink:href="#DejaVuSans-73" transform="translate(144.042969 0)"/>
     <use xlink:href="#DejaVuSans-73" transform="translate(196.142578 0)"/>
     <use xlink:href="#DejaVuSans-20" transform="translate(248.242188 0)"/>
     <use xlink:href="#DejaVuSans-3d" transform="translate(280.029297 0)"/>
     <use xlink:href="#DejaVuSans-20" transform="translate(363.818359 0)"/>
     <use xlink:href="#DejaVuSans-44" transform="translate(395.605469 0)"/>
     <use xlink:href="#DejaVuSans-65" transform="translate(472.607422 0)"/>
     <use xlink:href="#DejaVuSans-61" transform="translate(534.130859 0)"/>
     <use xlink:href="#DejaVuSans-64" transform="translate(595.410156 0)"/>
    </g>
   </g>
   <g id="text_12">
    <!-- True   -->
    <g transform="translate(635.11875 360) scale(0.2 -0.2)">
     <defs>
      <path id="DejaVuSans-54" d="M -19 4666 
L 3928 4666 
L 3928 4134 
L 2272 4134 
L 2272 0 
L 1638 0 
L 1638 4134 
L -19 4134 
L -19 4666 
z
" transform="scale(0.015625)"/>
      <path id="DejaVuSans-72" d="M 2631 2963 
Q 2534 3019 2420 3045 
Q 2306 3072 2169 3072 
Q 1681 3072 1420 2755 
Q 1159 2438 1159 1844 
L 1159 0 
L 581 0 
L 581 3500 
L 1159 3500 
L 1159 2956 
Q 1341 3275 1631 3429 
Q 1922 3584 2338 3584 
Q 2397 3584 2469 3576 
Q 2541 3569 2628 3553 
L 2631 2963 
z
" transform="scale(0.015625)"/>
     </defs>
     <use xlink:href="#DejaVuSans-54"/>
     <use xlink:href="#DejaVuSans-72" transform="translate(46.333984 0)"/>
     <use xlink:href="#DejaVuSans-75" transform="translate(87.447266 0)"/>
     <use xlink:href="#DejaVuSans-65" transform="translate(150.826172 0)"/>
     <use xlink:href="#DejaVuSans-20" transform="translate(212.349609 0)"/>
     <use xlink:href="#DejaVuSans-20" transform="translate(244.136719 0)"/>
    </g>
   </g>
   <g id="patch_24">
    <path d="M 1042.688899 418.332338 
Q 937.466527 334.697523 831.368917 250.367036 
" style="fill: none; stroke: #000000; stroke-linecap: round"/>
    <path d="M 1038.915125 410.223168 
L 1042.688899 418.332338 
L 1033.937299 416.485855 
" style="fill: none; stroke: #000000; stroke-linecap: round"/>
   </g>
   <g id="text_13">
    <g id="patch_25">
     <path d="M 1013.4 520.429688 
L 1204.2 520.429688 
Q 1210.2 520.429688 1210.2 514.429688 
L 1210.2 426.774063 
Q 1210.2 420.774063 1204.2 420.774063 
L 1013.4 420.774063 
Q 1007.4 420.774063 1007.4 426.774063 
L 1007.4 514.429688 
Q 1007.4 520.429688 1013.4 520.429688 
z
" style="fill: #e5833c; stroke: #000000; stroke-linejoin: miter"/>
    </g>
    <!-- min_temp &lt;= 30.5 -->
    <g transform="translate(1013.4 442.527187) scale(0.2 -0.2)">
     <defs>
      <path id="DejaVuSans-6e" d="M 3513 2113 
L 3513 0 
L 2938 0 
L 2938 2094 
Q 2938 2591 2744 2837 
Q 2550 3084 2163 3084 
Q 1697 3084 1428 2787 
Q 1159 2491 1159 1978 
L 1159 0 
L 581 0 
L 581 3500 
L 1159 3500 
L 1159 2956 
Q 1366 3272 1645 3428 
Q 1925 3584 2291 3584 
Q 2894 3584 3203 3211 
Q 3513 2838 3513 2113 
z
" transform="scale(0.015625)"/>
     </defs>
     <use xlink:href="#DejaVuSans-6d"/>
     <use xlink:href="#DejaVuSans-69" transform="translate(97.412109 0)"/>
     <use xlink:href="#DejaVuSans-6e" transform="translate(125.195312 0)"/>
     <use xlink:href="#DejaVuSans-5f" transform="translate(188.574219 0)"/>
     <use xlink:href="#DejaVuSans-74" transform="translate(238.574219 0)"/>
     <use xlink:href="#DejaVuSans-65" transform="translate(277.783203 0)"/>
     <use xlink:href="#DejaVuSans-6d" transform="translate(339.306641 0)"/>
     <use xlink:href="#DejaVuSans-70" transform="translate(436.71875 0)"/>
     <use xlink:href="#DejaVuSans-20" transform="translate(500.195312 0)"/>
     <use xlink:href="#DejaVuSans-3c" transform="translate(531.982422 0)"/>
     <use xlink:href="#DejaVuSans-3d" transform="translate(615.771484 0)"/>
     <use xlink:href="#DejaVuSans-20" transform="translate(699.560547 0)"/>
     <use xlink:href="#DejaVuSans-33" transform="translate(731.347656 0)"/>
     <use xlink:href="#DejaVuSans-30" transform="translate(794.970703 0)"/>
     <use xlink:href="#DejaVuSans-2e" transform="translate(858.59375 0)"/>
     <use xlink:href="#DejaVuSans-35" transform="translate(890.380859 0)"/>
    </g>
    <!-- samples = 2069 -->
    <g transform="translate(1027.046875 465.479063) scale(0.2 -0.2)">
     <use xlink:href="#DejaVuSans-73"/>
     <use xlink:href="#DejaVuSans-61" transform="translate(52.099609 0)"/>
     <use xlink:href="#DejaVuSans-6d" transform="translate(113.378906 0)"/>
     <use xlink:href="#DejaVuSans-70" transform="translate(210.791016 0)"/>
     <use xlink:href="#DejaVuSans-6c" transform="translate(274.267578 0)"/>
     <use xlink:href="#DejaVuSans-65" transform="translate(302.050781 0)"/>
     <use xlink:href="#DejaVuSans-73" transform="translate(363.574219 0)"/>
     <use xlink:href="#DejaVuSans-20" transform="translate(415.673828 0)"/>
     <use xlink:href="#DejaVuSans-3d" transform="translate(447.460938 0)"/>
     <use xlink:href="#DejaVuSans-20" transform="translate(531.25 0)"/>
     <use xlink:href="#DejaVuSans-32" transform="translate(563.037109 0)"/>
     <use xlink:href="#DejaVuSans-30" transform="translate(626.660156 0)"/>
     <use xlink:href="#DejaVuSans-36" transform="translate(690.283203 0)"/>
     <use xlink:href="#DejaVuSans-39" transform="translate(753.90625 0)"/>
    </g>
    <!-- value = [2040, 29] -->
    <g transform="translate(1014.414062 487.874688) scale(0.2 -0.2)">
     <use xlink:href="#DejaVuSans-76"/>
     <use xlink:href="#DejaVuSans-61" transform="translate(59.179688 0)"/>
     <use xlink:href="#DejaVuSans-6c" transform="translate(120.458984 0)"/>
     <use xlink:href="#DejaVuSans-75" transform="translate(148.242188 0)"/>
     <use xlink:href="#DejaVuSans-65" transform="translate(211.621094 0)"/>
     <use xlink:href="#DejaVuSans-20" transform="translate(273.144531 0)"/>
     <use xlink:href="#DejaVuSans-3d" transform="translate(304.931641 0)"/>
     <use xlink:href="#DejaVuSans-20" transform="translate(388.720703 0)"/>
     <use xlink:href="#DejaVuSans-5b" transform="translate(420.507812 0)"/>
     <use xlink:href="#DejaVuSans-32" transform="translate(459.521484 0)"/>
     <use xlink:href="#DejaVuSans-30" transform="translate(523.144531 0)"/>
     <use xlink:href="#DejaVuSans-34" transform="translate(586.767578 0)"/>
     <use xlink:href="#DejaVuSans-30" transform="translate(650.390625 0)"/>
     <use xlink:href="#DejaVuSans-2c" transform="translate(714.013672 0)"/>
     <use xlink:href="#DejaVuSans-20" transform="translate(745.800781 0)"/>
     <use xlink:href="#DejaVuSans-32" transform="translate(777.587891 0)"/>
     <use xlink:href="#DejaVuSans-39" transform="translate(841.210938 0)"/>
     <use xlink:href="#DejaVuSans-5d" transform="translate(904.833984 0)"/>
    </g>
    <!-- class = Alive -->
    <g transform="translate(1044.771875 510.270313) scale(0.2 -0.2)">
     <use xlink:href="#DejaVuSans-63"/>
     <use xlink:href="#DejaVuSans-6c" transform="translate(54.980469 0)"/>
     <use xlink:href="#DejaVuSans-61" transform="translate(82.763672 0)"/>
     <use xlink:href="#DejaVuSans-73" transform="translate(144.042969 0)"/>
     <use xlink:href="#DejaVuSans-73" transform="translate(196.142578 0)"/>
     <use xlink:href="#DejaVuSans-20" transform="translate(248.242188 0)"/>
     <use xlink:href="#DejaVuSans-3d" transform="translate(280.029297 0)"/>
     <use xlink:href="#DejaVuSans-20" transform="translate(363.818359 0)"/>
     <use xlink:href="#DejaVuSans-41" transform="translate(395.605469 0)"/>
     <use xlink:href="#DejaVuSans-6c" transform="translate(464.013672 0)"/>
     <use xlink:href="#DejaVuSans-69" transform="translate(491.796875 0)"/>
     <use xlink:href="#DejaVuSans-76" transform="translate(519.580078 0)"/>
     <use xlink:href="#DejaVuSans-65" transform="translate(578.759766 0)"/>
    </g>
   </g>
   <g id="text_14">
    <!--   False -->
    <g transform="translate(969.3 360) scale(0.2 -0.2)">
     <defs>
      <path id="DejaVuSans-46" d="M 628 4666 
L 3309 4666 
L 3309 4134 
L 1259 4134 
L 1259 2759 
L 3109 2759 
L 3109 2228 
L 1259 2228 
L 1259 0 
L 628 0 
L 628 4666 
z
" transform="scale(0.015625)"/>
     </defs>
     <use xlink:href="#DejaVuSans-20"/>
     <use xlink:href="#DejaVuSans-20" transform="translate(31.787109 0)"/>
     <use xlink:href="#DejaVuSans-46" transform="translate(63.574219 0)"/>
     <use xlink:href="#DejaVuSans-61" transform="translate(111.96875 0)"/>
     <use xlink:href="#DejaVuSans-6c" transform="translate(173.248047 0)"/>
     <use xlink:href="#DejaVuSans-73" transform="translate(201.03125 0)"/>
     <use xlink:href="#DejaVuSans-65" transform="translate(253.130859 0)"/>
    </g>
   </g>
   <g id="patch_26">
    <path d="M 829.8 249.12 
Q 829.8 249.12 829.8 249.12 
" style="fill: none; stroke: #000000; stroke-linecap: round"/>
   </g>
   <g id="text_15">
    <g id="patch_27">
     <path d="M 735.414062 298.669688 
L 924.185938 298.669688 
Q 930.185938 298.669688 930.185938 292.669688 
L 930.185938 205.014063 
Q 930.185938 199.014063 924.185938 199.014063 
L 735.414062 199.014063 
Q 729.414062 199.014063 729.414062 205.014063 
L 729.414062 292.669688 
Q 729.414062 298.669688 735.414062 298.669688 
z
" style="fill: #e6843e; stroke: #000000; stroke-linejoin: miter"/>
    </g>
    <!-- max_sal &lt;= 19.5 -->
    <g transform="translate(743.515625 220.767187) scale(0.2 -0.2)">
     <use xlink:href="#DejaVuSans-6d"/>
     <use xlink:href="#DejaVuSans-61" transform="translate(97.412109 0)"/>
     <use xlink:href="#DejaVuSans-78" transform="translate(158.691406 0)"/>
     <use xlink:href="#DejaVuSans-5f" transform="translate(217.871094 0)"/>
     <use xlink:href="#DejaVuSans-73" transform="translate(267.871094 0)"/>
     <use xlink:href="#DejaVuSans-61" transform="translate(319.970703 0)"/>
     <use xlink:href="#DejaVuSans-6c" transform="translate(381.25 0)"/>
     <use xlink:href="#DejaVuSans-20" transform="translate(409.033203 0)"/>
     <use xlink:href="#DejaVuSans-3c" transform="translate(440.820312 0)"/>
     <use xlink:href="#DejaVuSans-3d" transform="translate(524.609375 0)"/>
     <use xlink:href="#DejaVuSans-20" transform="translate(608.398438 0)"/>
     <use xlink:href="#DejaVuSans-31" transform="translate(640.185547 0)"/>
     <use xlink:href="#DejaVuSans-39" transform="translate(703.808594 0)"/>
     <use xlink:href="#DejaVuSans-2e" transform="translate(767.431641 0)"/>
     <use xlink:href="#DejaVuSans-35" transform="translate(799.21875 0)"/>
    </g>
    <!-- samples = 2095 -->
    <g transform="translate(748.046875 243.719063) scale(0.2 -0.2)">
     <use xlink:href="#DejaVuSans-73"/>
     <use xlink:href="#DejaVuSans-61" transform="translate(52.099609 0)"/>
     <use xlink:href="#DejaVuSans-6d" transform="translate(113.378906 0)"/>
     <use xlink:href="#DejaVuSans-70" transform="translate(210.791016 0)"/>
     <use xlink:href="#DejaVuSans-6c" transform="translate(274.267578 0)"/>
     <use xlink:href="#DejaVuSans-65" transform="translate(302.050781 0)"/>
     <use xlink:href="#DejaVuSans-73" transform="translate(363.574219 0)"/>
     <use xlink:href="#DejaVuSans-20" transform="translate(415.673828 0)"/>
     <use xlink:href="#DejaVuSans-3d" transform="translate(447.460938 0)"/>
     <use xlink:href="#DejaVuSans-20" transform="translate(531.25 0)"/>
     <use xlink:href="#DejaVuSans-32" transform="translate(563.037109 0)"/>
     <use xlink:href="#DejaVuSans-30" transform="translate(626.660156 0)"/>
     <use xlink:href="#DejaVuSans-39" transform="translate(690.283203 0)"/>
     <use xlink:href="#DejaVuSans-35" transform="translate(753.90625 0)"/>
    </g>
    <!-- value = [2043, 52] -->
    <g transform="translate(735.414062 266.114688) scale(0.2 -0.2)">
     <use xlink:href="#DejaVuSans-76"/>
     <use xlink:href="#DejaVuSans-61" transform="translate(59.179688 0)"/>
     <use xlink:href="#DejaVuSans-6c" transform="translate(120.458984 0)"/>
     <use xlink:href="#DejaVuSans-75" transform="translate(148.242188 0)"/>
     <use xlink:href="#DejaVuSans-65" transform="translate(211.621094 0)"/>
     <use xlink:href="#DejaVuSans-20" transform="translate(273.144531 0)"/>
     <use xlink:href="#DejaVuSans-3d" transform="translate(304.931641 0)"/>
     <use xlink:href="#DejaVuSans-20" transform="translate(388.720703 0)"/>
     <use xlink:href="#DejaVuSans-5b" transform="translate(420.507812 0)"/>
     <use xlink:href="#DejaVuSans-32" transform="translate(459.521484 0)"/>
     <use xlink:href="#DejaVuSans-30" transform="translate(523.144531 0)"/>
     <use xlink:href="#DejaVuSans-34" transform="translate(586.767578 0)"/>
     <use xlink:href="#DejaVuSans-33" transform="translate(650.390625 0)"/>
     <use xlink:href="#DejaVuSans-2c" transform="translate(714.013672 0)"/>
     <use xlink:href="#DejaVuSans-20" transform="translate(745.800781 0)"/>
     <use xlink:href="#DejaVuSans-35" transform="translate(777.587891 0)"/>
     <use xlink:href="#DejaVuSans-32" transform="translate(841.210938 0)"/>
     <use xlink:href="#DejaVuSans-5d" transform="translate(904.833984 0)"/>
    </g>
    <!-- class = Alive -->
    <g transform="translate(765.771875 288.510313) scale(0.2 -0.2)">
     <use xlink:href="#DejaVuSans-63"/>
     <use xlink:href="#DejaVuSans-6c" transform="translate(54.980469 0)"/>
     <use xlink:href="#DejaVuSans-61" transform="translate(82.763672 0)"/>
     <use xlink:href="#DejaVuSans-73" transform="translate(144.042969 0)"/>
     <use xlink:href="#DejaVuSans-73" transform="translate(196.142578 0)"/>
     <use xlink:href="#DejaVuSans-20" transform="translate(248.242188 0)"/>
     <use xlink:href="#DejaVuSans-3d" transform="translate(280.029297 0)"/>
     <use xlink:href="#DejaVuSans-20" transform="translate(363.818359 0)"/>
     <use xlink:href="#DejaVuSans-41" transform="translate(395.605469 0)"/>
     <use xlink:href="#DejaVuSans-6c" transform="translate(464.013672 0)"/>
     <use xlink:href="#DejaVuSans-69" transform="translate(491.796875 0)"/>
     <use xlink:href="#DejaVuSans-76" transform="translate(519.580078 0)"/>
     <use xlink:href="#DejaVuSans-65" transform="translate(578.759766 0)"/>
    </g>
   </g>
  </g>
 </g>
</svg>
